<?xml version="1.0" encoding="UTF-8"?>
<svg version="1.1" xmlns="http://www.w3.org/2000/svg" width="512" height="512">
<path d="M0 0 C4.37359372 1.79501171 8.48035952 3.98238872 12.625 6.25 C13.82836166 6.89315063 15.03247512 7.53489643 16.23730469 8.17529297 C19.83683701 10.09524776 23.41914417 12.04542848 27 14 C28.00063477 14.54366211 29.00126953 15.08732422 30.03222656 15.64746094 C33.66890891 17.62389135 37.30320605 19.60442719 40.93017578 21.59863281 C47.40759848 25.15667036 53.93839292 28.6000149 60.5 32 C68.97261402 36.39061432 77.36694659 40.90544705 85.73046875 45.5 C92.27690404 49.08606441 98.87283771 52.56568108 105.5 56 C113.9725934 60.39065569 122.36694545 64.90544643 130.73046875 69.5 C137.27690404 73.08606441 143.87283771 76.56568108 150.5 80 C158.9725934 84.39065569 167.36694545 88.90544643 175.73046875 93.5 C182.27691156 97.08606853 188.87298528 100.56538614 195.5 104 C206.75622126 109.83889592 217.90559755 115.85956257 229 122 C229.75861328 122.41862305 230.51722656 122.83724609 231.29882812 123.26855469 C233.3074435 124.38030418 235.31111875 125.5002916 237.3125 126.625 C238.40175781 127.23601562 239.49101562 127.84703125 240.61328125 128.4765625 C243 130 243 130 244 132 C244.46343537 137.74659864 244.46343537 137.74659864 244 140 C241.21319103 143.19510608 238.34309046 145.10872141 234.609375 147.07421875 C233.52229248 147.65131592 232.43520996 148.22841309 231.31518555 148.82299805 C230.1268362 149.44458633 228.93843974 150.06608455 227.75 150.6875 C226.51760563 151.33888231 225.28559804 151.99099685 224.05395508 152.64379883 C221.42743377 154.03454699 218.79878992 155.42116209 216.16845703 156.8046875 C209.70193672 160.20741495 203.25059214 163.63875912 196.79772949 167.06729126 C194.72444225 168.16788932 192.64997385 169.26622995 190.57519531 170.36401367 C189.28319737 171.0486545 187.99120492 171.73330569 186.69921875 172.41796875 C185.57346436 173.01375732 184.44770996 173.6095459 183.2878418 174.22338867 C182.202854 174.80967041 181.11786621 175.39595215 180 176 C178.7938353 176.49200897 177.58767059 176.98401794 176.34495544 177.49093628 C174.05890431 178.81824146 173.16990788 179.4619974 172.36545467 182.00924778 C172.12956744 184.6700912 172.12634126 187.25092722 172.19287109 189.92163086 C172.1901268 190.92855484 172.18738251 191.93547882 172.18455505 192.97291565 C172.18329718 195.15881362 172.198275 197.3447672 172.22751999 199.53046989 C172.27377247 202.98989728 172.27830661 206.44717086 172.27212524 209.90687561 C172.26819288 216.00282464 172.30168098 222.09790387 172.347229 228.19366455 C172.41957962 237.94732294 172.46084007 247.70051179 172.45399857 257.45443916 C172.46085906 260.8633698 172.49915455 264.27099457 172.53939819 267.67967224 C172.54371573 269.76943736 172.54676456 271.85920562 172.54833984 273.94897461 C172.5679628 274.89719086 172.58758575 275.8454071 172.60780334 276.82235718 C172.58070964 281.41274881 172.52751998 283.3381717 169.58187866 287.03378296 C168.7298587 287.68263458 167.87783875 288.33148621 167 289 C166.08009277 289.74769653 166.08009277 289.74769653 165.14160156 290.51049805 C164.27486816 291.12985229 164.27486816 291.12985229 163.390625 291.76171875 C162.72732178 292.23577148 162.06401855 292.70982422 161.38061523 293.19824219 C160.67751221 293.68969727 159.97440918 294.18115234 159.25 294.6875 C158.13443726 295.46915527 158.13443726 295.46915527 156.99633789 296.26660156 C144.31686206 305.03351531 130.92182656 312.41136564 117 319 C116.39994141 319.28939453 115.79988281 319.57878906 115.18164062 319.87695312 C83.33500983 335.12305009 46.93074433 344.06669903 11.58203125 344.203125 C10.4077507 344.20882507 9.23347015 344.21452515 8.02360535 344.22039795 C5.54349657 344.22980307 3.06337555 344.23636397 0.58325195 344.24023438 C-3.13158293 344.24985518 -6.84584341 344.2808876 -10.56054688 344.3125 C-29.86357687 344.39865878 -48.55714561 342.74051992 -67.4375 338.625 C-68.41976562 338.41657471 -69.40203125 338.20814941 -70.4140625 337.9934082 C-78.77918775 336.16387877 -86.91046973 333.79564649 -95 331 C-93.90301833 325.30860098 -92.45946923 320.25432063 -90 315 C-83.75108043 315.71565839 -77.82535753 317.27836139 -71.75 318.875 C-61.23822381 321.57269824 -50.76506327 323.64011018 -40 325 C-39.28416748 325.09063721 -38.56833496 325.18127441 -37.83081055 325.2746582 C-32.12496697 325.95379092 -26.42658695 326.3070791 -20.6875 326.5625 C-19.75744141 326.6042334 -18.82738281 326.6459668 -17.86914062 326.68896484 C-11.23719059 326.97282714 -4.63787472 327.17722481 2 327 C3.03253906 326.98114746 3.03253906 326.98114746 4.0859375 326.96191406 C56.43641367 325.88229566 110.24439291 309.54174065 152.03125 277.36328125 C154 276 154 276 156 276 C156 247.29 156 218.58 156 189 C142.76339625 195.90605413 129.61157659 202.82450656 116.53125 210 C109.9389468 213.59580174 103.27233039 217.04510814 96.60546875 220.5 C90.02472801 223.91949181 83.49980308 227.42929273 77 231 C69.54706589 235.09431574 62.049938 239.08745832 54.5 243 C46.90886908 246.93407571 39.37119441 250.9504388 31.875 255.0625 C30.06785745 256.04845046 28.26056626 257.03412849 26.453125 258.01953125 C23.67257929 259.5357819 20.89587159 261.05781569 18.12695312 262.59521484 C15.301113 264.16221093 12.46436356 265.70767621 9.625 267.25 C8.77534668 267.72832275 7.92569336 268.20664551 7.05029297 268.69946289 C2.10516684 271.35740656 -2.3269444 273.40674848 -8 272 C-12.37935204 270.22014822 -16.48104822 268.01723447 -20.625 265.75 C-21.82836166 265.10684937 -23.03247512 264.46510357 -24.23730469 263.82470703 C-27.83683701 261.90475224 -31.41914417 259.95457152 -35 258 C-36.00063477 257.45633789 -37.00126953 256.91267578 -38.03222656 256.35253906 C-41.66890891 254.37610865 -45.30320605 252.39557281 -48.93017578 250.40136719 C-55.40759893 246.84332939 -61.93840081 243.40000106 -68.5 240 C-77.0025579 235.59363302 -85.42878046 231.06552355 -93.82275391 226.45605469 C-103.47729504 221.16575128 -113.23491249 216.08319624 -123 211 C-123.33 223.54 -123.66 236.08 -124 249 C-122.02 249.33 -120.04 249.66 -118 250 C-109.76989848 254.21541785 -104.32636803 260.27232147 -100.8671875 268.7890625 C-99.86543011 272.49827228 -99.61728186 275.99656294 -99.625 279.8125 C-99.62443604 280.51737549 -99.62387207 281.22225098 -99.62329102 281.94848633 C-99.72895704 286.96675622 -100.5579879 290.75975648 -103.02734375 295.10546875 C-105.86063703 300.62413237 -104.54647725 305.14202223 -103.125 310.875 C-102.75004795 312.43428337 -102.37761468 313.99417476 -102.0078125 315.5546875 C-101.83910645 316.24030762 -101.67040039 316.92592773 -101.49658203 317.63232422 C-100.11106144 324.23841013 -99.81478498 330.66524894 -99.76171875 337.38671875 C-99.753647 338.36614944 -99.74557526 339.34558014 -99.73725891 340.35469055 C-99.72349049 342.41458399 -99.7127363 344.47449954 -99.70483398 346.53442383 C-99.69324809 348.64191364 -99.67269383 350.74937264 -99.64331055 352.85668945 C-99.60080131 355.90856774 -99.58449541 358.9595819 -99.57421875 362.01171875 C-99.55671066 362.9534343 -99.53920258 363.89514984 -99.52116394 364.86540222 C-99.54282186 371.36550078 -99.54282186 371.36550078 -101.8059082 374.50634766 C-103.69629045 375.79324635 -105.4545404 376.93776825 -107.53125 377.88671875 C-108.17707031 378.18513672 -108.82289063 378.48355469 -109.48828125 378.79101562 C-110.15214844 379.08685547 -110.81601563 379.38269531 -111.5 379.6875 C-112.16386719 379.99494141 -112.82773438 380.30238281 -113.51171875 380.61914062 C-123.52506556 385.18610619 -136.4212776 386.04805739 -146.9375 382.375 C-148.64731426 381.63275505 -150.33537745 380.83870384 -152 380 C-153.52173828 379.24203125 -153.52173828 379.24203125 -155.07421875 378.46875 C-162.77783795 374.44432409 -162.77783795 374.44432409 -164 372 C-164.10894719 370.66687943 -164.15893215 369.3286538 -164.17700195 367.99121094 C-164.19625481 366.7465506 -164.19625481 366.7465506 -164.21589661 365.47674561 C-164.22328354 364.57176331 -164.23067047 363.66678101 -164.23828125 362.734375 C-164.246353 361.79055969 -164.25442474 360.84674438 -164.26274109 359.87432861 C-164.2766091 357.86008547 -164.28731902 355.84581856 -164.29516602 353.83154297 C-164.30652099 351.81291604 -164.32669956 349.79431498 -164.35668945 347.77587891 C-164.56392229 333.81602674 -163.34071054 320.82821238 -160.4553833 307.16621399 C-158.89783746 300.77861769 -158.89783746 300.77861769 -160.875 294.8125 C-163.96869044 289.32823059 -164 286.95503749 -164 280 C-169.28 280 -174.56 280 -180 280 C-180.33 247 -180.66 214 -181 180 C-204.52543627 167.38809186 -204.52543627 167.38809186 -228.11181641 154.8918457 C-250.43049404 143.13901192 -250.43049404 143.13901192 -252 140 C-252.46343537 134.25340136 -252.46343537 134.25340136 -252 132 C-249.21319103 128.80489392 -246.34309046 126.89127859 -242.609375 124.92578125 C-241.52430664 124.34973145 -240.43923828 123.77368164 -239.32128906 123.18017578 C-238.13090842 122.55752341 -236.94047717 121.9349678 -235.75 121.3125 C-234.49929986 120.65158734 -233.24898242 119.98995003 -231.99902344 119.32763672 C-229.35413517 117.92747537 -226.70717988 116.53133687 -224.05859375 115.13818359 C-220.08530786 113.047062 -216.11970513 110.94171497 -212.15625 108.83203125 C-210.84375306 108.13353918 -209.53125305 107.43505287 -208.21875 106.73657227 C-207.56583984 106.38909943 -206.91292969 106.04162659 -206.24023438 105.68362427 C-202.88004678 103.89630908 -199.51817569 102.11216813 -196.15625 100.328125 C-195.48440674 99.9715834 -194.81256348 99.61504181 -194.12036133 99.24769592 C-191.39978207 97.80396656 -188.67913748 96.36036032 -185.95849609 94.91674805 C-181.22201265 92.40343098 -176.48579644 89.88961135 -171.75 87.375 C-171.08391724 87.02133362 -170.41783447 86.66766724 -169.73156738 86.30328369 C-159.33353161 80.78123963 -148.95166558 75.22970246 -138.57714844 69.66357422 C-129.0513106 64.55573104 -119.50693328 59.48334402 -109.95898438 54.41699219 C-100.62815266 49.46529961 -91.30820879 44.49413029 -82 39.5 C-74.71505392 35.59141021 -67.42634524 31.69035636 -60.125 27.8125 C-59.12418396 27.28081459 -59.12418396 27.28081459 -58.10314941 26.73838806 C-54.72882417 24.94649398 -51.35296146 23.15758202 -47.97460938 21.37329102 C-41.95583104 18.19073419 -35.95074886 14.99043824 -29.99926758 11.68331909 C-27.44369301 10.26338372 -24.88203172 8.85461237 -22.3203125 7.44580078 C-20.55056006 6.46550604 -18.79072617 5.46737161 -17.03125 4.46875 C-5.83784006 -1.6795533 -5.83784006 -1.6795533 0 0 Z M-10.71875 20.4453125 C-11.80446289 21.02168457 -12.89017578 21.59805664 -14.00878906 22.19189453 C-15.16088867 22.82981934 -16.31298828 23.46774414 -17.5 24.125 C-18.71227061 24.77763829 -19.92550054 25.42849755 -21.13964844 26.07763672 C-24.7731946 28.02770124 -28.38673844 30.01260515 -32 32 C-33.95260255 33.06345983 -35.90568649 34.12603653 -37.859375 35.1875 C-40.55212794 36.65298642 -43.24317422 38.12124756 -45.9296875 39.59814453 C-52.40708197 43.15669853 -58.93819769 46.59991374 -65.5 50 C-73.04996547 53.91248632 -80.54706745 57.90568512 -88 62 C-96.40589148 66.6178288 -104.8794162 71.0873088 -113.39453125 75.5 C-119.97527199 78.91949181 -126.50019692 82.42929273 -133 86 C-141.40589148 90.6178288 -149.8794162 95.0873088 -158.39453125 99.5 C-164.97527281 102.91949223 -171.50018255 106.42931729 -178 110 C-186.60034135 114.72426208 -195.26779365 119.30470905 -203.97680664 123.82519531 C-211.02213751 127.48272449 -218.03009224 131.20066448 -225 135 C-225 135.66 -225 136.32 -225 137 C-224.2972998 137.36125977 -223.59459961 137.72251953 -222.87060547 138.09472656 C-209.86390618 144.78944449 -196.9010143 151.53710655 -184.08496094 158.59204102 C-176.52551918 162.74282407 -168.88857251 166.73359911 -161.22216797 170.68286133 C-156.81579168 172.96355428 -152.45361474 175.28098264 -148.171875 177.7890625 C-147.43952637 178.21678955 -146.70717773 178.6445166 -145.95263672 179.08520508 C-144.6130428 179.87652571 -143.28063916 180.68021063 -141.95751953 181.4987793 C-138.50126164 183.55499135 -138.50126164 183.55499135 -134.58203125 183.734375 C-131.95759497 182.98793926 -129.88290886 182.0344122 -127.5078125 180.69921875 C-126.64994141 180.22291016 -125.79207031 179.74660156 -124.90820312 179.25585938 C-123.98974609 178.73830078 -123.07128906 178.22074219 -122.125 177.6875 C-120.13905531 176.58537347 -118.15204215 175.48517043 -116.1640625 174.38671875 C-115.14344727 173.82259277 -114.12283203 173.2584668 -113.07128906 172.67724609 C-108.25180726 170.04530333 -103.37783121 167.5216649 -98.5 165 C-90.21108013 160.70335714 -81.98780785 156.30367415 -73.80786133 151.80322266 C-68.22540648 148.73863918 -62.61679035 145.72920119 -56.984375 142.7578125 C-55.59708303 142.02442079 -54.20979462 141.29102236 -52.82250977 140.55761719 C-50.76276026 139.46906344 -48.70203321 138.3826058 -46.63790894 137.30236816 C-44.71820172 136.29765611 -42.80219814 135.28618047 -40.88671875 134.2734375 C-39.21935669 133.39824463 -39.21935669 133.39824463 -37.51831055 132.50537109 C-34.89880032 131.24615009 -34.89880032 131.24615009 -34 129 C-34.33 128.01 -34.66 127.02 -35 126 C-35.62325119 117.69397934 -35.27417309 112.06791202 -29.9375 105.4375 C-19.74500041 96.97989396 -9.16212282 96.21266773 3.5390625 96.76904297 C10.39212678 97.41219761 15.86080592 100.21006209 21.0625 104.5625 C21.701875 105.366875 22.34125 106.17125 23 107 C23.5775 107.70125 24.155 108.4025 24.75 109.125 C28.08779714 114.13169571 27.42086818 120.23027979 27 126 C24.63800893 132.83734258 20.18299804 136.54550027 13.875 139.75 C9.79093834 141.71134268 6.39611098 143.12575438 1.83203125 143.1328125 C1.02056641 143.13410156 0.20910156 143.13539063 -0.62695312 143.13671875 C-1.47193359 143.13285156 -2.31691406 143.12898438 -3.1875 143.125 C-4.4259668 143.13080078 -4.4259668 143.13080078 -5.68945312 143.13671875 C-6.50736328 143.13542969 -7.32527344 143.13414062 -8.16796875 143.1328125 C-8.90297607 143.13168457 -9.6379834 143.13055664 -10.39526367 143.12939453 C-13 143 -13 143 -16.87719727 142.29833984 C-21.28789746 141.73183144 -23.88676728 142.92334221 -27.796875 145.09375 C-28.73046844 145.60035156 -28.73046844 145.60035156 -29.68292236 146.1171875 C-31.71622109 147.22606515 -33.73245343 148.36275535 -35.75 149.5 C-37.18115464 150.28657754 -38.61346594 151.07105394 -40.046875 151.85351562 C-42.97089263 153.45267211 -45.889024 155.06182994 -48.80273438 156.6796875 C-54.83177027 160.02189286 -60.91709971 163.25704911 -67 166.5 C-69.25928617 167.71191976 -71.5183981 168.92416439 -73.77734375 170.13671875 C-79.09575725 172.98616135 -84.42260408 175.81928482 -89.75390625 178.64453125 C-90.48934662 179.0344223 -91.22478699 179.42431335 -91.98251343 179.82601929 C-95.5816173 181.73380768 -99.18166687 183.63977626 -102.78320312 185.54296875 C-104.08596767 186.23301596 -105.38870352 186.92311735 -106.69140625 187.61328125 C-108.41145874 188.52267456 -108.41145874 188.52267456 -110.16625977 189.45043945 C-113.07936112 190.98972153 -113.07936112 190.98972153 -116 193 C-116 193.66 -116 194.32 -116 195 C-115.41847168 195.30067383 -114.83694336 195.60134766 -114.23779297 195.91113281 C-103.43440578 201.50412097 -92.66233157 207.14183203 -82 213 C-74.54708958 217.09436003 -67.04993738 221.08745864 -59.5 225 C-51.90885708 228.93408193 -44.37145308 232.9508978 -36.875 237.0625 C-35.07040019 238.04573387 -33.26571293 239.02880727 -31.4609375 240.01171875 C-27.68077766 242.07244511 -23.91999818 244.1650308 -20.1640625 246.26953125 C-18.27650265 247.30552784 -16.38849701 248.34071272 -14.5 249.375 C-13.63358887 249.87008057 -12.76717773 250.36516113 -11.87451172 250.87524414 C-7.22639063 253.46300974 -7.22639063 253.46300974 -2.0625 253.625 C-0.5465625 252.820625 -0.5465625 252.820625 1 252 C1.74572266 251.63213379 2.49144531 251.26426758 3.25976562 250.88525391 C6.03092912 249.50857423 8.76541903 248.07293496 11.5 246.625 C12.51320313 246.09261719 13.52640625 245.56023437 14.5703125 245.01171875 C22.33165057 240.91920178 30.03617071 236.72637257 37.7265625 232.50244141 C45.22728414 228.39280457 52.80111738 224.43504848 60.39453125 220.5 C66.97527199 217.08050819 73.50019692 213.57070727 80 210 C88.40589148 205.3821712 96.8794162 200.9126912 105.39453125 196.5 C111.97527199 193.08050819 118.50019692 189.57070727 125 186 C133.40589148 181.3821712 141.8794162 176.9126912 150.39453125 172.5 C156.97527281 169.08050777 163.50018255 165.57068271 170 162 C178.60034135 157.27573792 187.26779365 152.69529095 195.97680664 148.17480469 C203.02213751 144.51727551 210.03009224 140.79933552 217 137 C217 136.34 217 135.68 217 135 C216.2972998 134.63874023 215.59459961 134.27748047 214.87060547 133.90527344 C201.8594746 127.20827452 188.89351554 120.45624519 176.07177734 113.40136719 C169.59276849 109.84505091 163.06205413 106.40038225 156.5 103 C149.18255804 99.20636005 141.91104803 95.34449614 134.6875 91.375 C125.29897752 86.21847089 115.84635222 81.18957305 106.375 76.1875 C95.85911564 70.63331429 85.35316087 65.06259413 74.875 59.4375 C63.59350861 53.38162396 52.29202675 47.36445526 40.97851562 41.36865234 C34.29263351 37.82351933 27.61710193 34.26081587 20.9609375 30.66015625 C19.67059922 29.96349294 18.38023512 29.26687746 17.08984375 28.5703125 C14.67554021 27.26687712 12.26462799 25.95744493 9.85546875 24.64453125 C8.77652344 24.061875 7.69757813 23.47921875 6.5859375 22.87890625 C5.17900635 22.11429077 5.17900635 22.11429077 3.74365234 21.33422852 C-2.04609634 18.51869403 -4.84217642 17.2573996 -10.71875 20.4453125 Z M-19 118 C-18.83721806 121.17424776 -18.4716111 122.55982964 -16.125 124.75 C-12.13034475 127.09979721 -8.74521968 127.19175438 -4.1875 127.25 C-2.38345703 127.28867188 -2.38345703 127.28867188 -0.54296875 127.328125 C4.25510883 126.88376059 7.59089516 125.40910484 11 122 C10.83721806 118.82575224 10.4716111 117.44017036 8.125 115.25 C4.13034475 112.90020279 0.74521968 112.80824562 -3.8125 112.75 C-5.01519531 112.72421875 -6.21789062 112.6984375 -7.45703125 112.671875 C-12.25510883 113.11623941 -15.59089516 114.59089516 -19 118 Z M-164 189 C-164 216.39 -164 243.78 -164 272 C-162.44756625 269.67134937 -161.33616799 267.63740574 -160.1875 265.125 C-157.10139658 258.91875526 -151.97599618 254.4268791 -146 251 C-144.02 250.34 -142.04 249.68 -140 249 C-140 233.16 -140 217.32 -140 201 C-143.58875 199.02 -147.1775 197.04 -150.875 195 C-152.00534668 194.37351562 -153.13569336 193.74703125 -154.30029297 193.1015625 C-155.18861816 192.61429688 -156.07694336 192.12703125 -156.9921875 191.625 C-157.90339355 191.12226563 -158.81459961 190.61953125 -159.75341797 190.1015625 C-161.8822724 188.85324905 -161.8822724 188.85324905 -164 189 Z M-145.375 271.625 C-147.57907893 276.20270239 -147.7971639 280.00552411 -147 285 C-144.67031069 289.83858548 -141.83858548 292.67031069 -137 295 C-132.00552411 295.7971639 -128.20270239 295.57907893 -123.625 293.375 C-120.04092287 290.13226355 -117.40464759 287.53524104 -116.6171875 282.6015625 C-116.36116081 276.91777006 -117.06373068 273.35061345 -121 269 C-125.35061345 265.06373068 -128.91777006 264.36116081 -134.6015625 264.6171875 C-139.53524104 265.40464759 -142.13226355 268.04092287 -145.375 271.625 Z M-143 311 C-149.77875078 326.51454677 -148.17361099 346.33334465 -148 363 C-140.59940863 367.38553563 -133.47847301 368.01351861 -125 367 C-121.77398962 365.99132829 -118.90522946 364.72161746 -116 363 C-115.77411327 352.94804047 -116.01435579 343.02152411 -116.875 333 C-116.95347168 332.05825928 -117.03194336 331.11651855 -117.11279297 330.14624023 C-117.67731069 323.99668111 -118.66765471 318.0290668 -120 312 C-122.9248633 311.15808218 -125.50741656 310.88180687 -128.546875 310.90234375 C-129.39121094 310.90556641 -130.23554688 310.90878906 -131.10546875 310.91210938 C-131.97816406 310.92048828 -132.85085937 310.92886719 -133.75 310.9375 C-134.63816406 310.94201172 -135.52632812 310.94652344 -136.44140625 310.95117188 C-138.62767329 310.962926 -140.81380179 310.97935751 -143 311 Z " fill="#059669" transform="translate(260,64)"/>
</svg>
