<?xml version="1.0" encoding="UTF-8"?>
<svg version="1.1" xmlns="http://www.w3.org/2000/svg" width="512" height="512">
<path d="M0 0 C1.70349609 0.54333984 1.70349609 0.54333984 3.44140625 1.09765625 C31.77442378 11.155707 52.1756482 31.59338155 66.03173828 57.94042969 C66.97237792 59.94124562 67.68418345 61.89829674 68.33984375 64.0078125 C71.81480569 75.16397544 77.31753622 78.52102008 87.08789062 83.87353516 C94.70667704 88.36192644 104.00462775 97.00925551 108 105 C108.66 105 109.32 105 110 105 C111.50311841 103.28353922 111.50311841 103.28353922 113.0625 101.0625 C118.1652993 94.41747535 122.99612444 88.51811476 130.484375 84.50390625 C143.77980192 77.2914487 148.17549006 70.57985685 153.07910156 56.43945312 C162.06720582 32.63003165 184.66087033 14.7167571 206.78320312 3.99853516 C220.91249895 -2.36587232 235.62048842 -4.39578185 251 -4.375 C252.02179855 -4.37418427 252.02179855 -4.37418427 253.0642395 -4.37335205 C264.41996988 -4.33178825 275.11400692 -3.39525158 286 0 C286.6904541 0.21430664 287.3809082 0.42861328 288.09228516 0.64941406 C295.77303263 3.12266155 303.03409399 6.33962942 310.1875 10.0625 C310.79948242 10.37864258 311.41146484 10.69478516 312.04199219 11.02050781 C316.47052669 13.42866238 320.87338493 16.18887875 322.8125 21.02734375 C322.9053125 21.97287109 322.9053125 21.97287109 323 22.9375 C323.0825 23.56527344 323.165 24.19304687 323.25 24.83984375 C322.55272131 30.86476747 318.79655222 34.47630672 314.4375 38.3125 C313.63795898 39.02515015 313.63795898 39.02515015 312.82226562 39.75219727 C311.22212611 41.17663612 309.61227322 42.58932441 308 44 C299.16339863 51.81032941 290.32844627 59.80010183 282.6875 68.8125 C264.28478823 90.15608096 242.44713928 105.76580331 214 110 C191.37182944 111.52697145 172.22469522 108.27658527 152 98 C141.32133765 105.03228984 132.59011907 111.25971149 126.625 122.875 C126.29072998 123.52283447 125.95645996 124.17066895 125.61206055 124.83813477 C121.00809073 134.38873401 120.68510512 144.21549591 120.5859375 154.6640625 C120.56657135 155.93728363 120.5472052 157.21050476 120.5272522 158.52230835 C120.477929 161.87260638 120.43652546 165.22280404 120.39910889 168.57324219 C120.35877328 172.0059554 120.30781743 175.43851019 120.2578125 178.87109375 C120.16219302 185.58062647 120.07702898 192.29022946 120 199 C120.7480188 199.13014496 121.4960376 199.26028992 122.26672363 199.39437866 C123.25184937 199.56893585 124.2369751 199.74349304 125.25195312 199.92333984 C126.22684692 200.0947348 127.20174072 200.26612976 128.20617676 200.44271851 C139.18231323 202.63211891 148.41743839 207.98568054 157 215 C157.63164062 215.46921875 158.26328125 215.9384375 158.9140625 216.421875 C165.62096495 221.62814631 170.61345056 229.03670831 174.95703125 236.25 C177.30765837 239.41413288 178.17696283 240.1837299 182 241 C185.42309703 241.12083318 188.82796395 240.99014214 192.25 240.875 C211.74879518 240.5904282 229.23173198 245.73814912 244 259 C244.82113281 259.72832031 245.64226562 260.45664062 246.48828125 261.20703125 C257.18996754 271.25914629 263.33621057 283.3008542 267.6875 297.1953125 C269.86229892 303.47504439 274.85714729 305.45335955 280.4765625 308.21875 C299.54283401 317.89249248 313.5986556 334.5904628 320.35546875 354.90625 C324.77424925 369.33686311 324.77424925 369.33686311 322 375 C317.5971449 379.35459534 315.18885656 380.62507204 308.81288147 380.6292057 C307.75671318 380.64010651 307.75671318 380.64010651 306.67920816 380.65122753 C304.31952851 380.66947717 301.96147443 380.65212438 299.60180664 380.63491821 C297.89322866 380.64067947 296.18465687 380.64862061 294.47609806 380.65855443 C289.78081785 380.67945057 285.08604498 380.66910004 280.39076281 380.65362334 C275.32727633 380.64232509 270.26387799 380.65976497 265.20040894 380.67352295 C255.28099804 380.69577616 245.36177613 380.69094486 235.44235778 380.67645974 C227.381895 380.66517571 219.32148525 380.66363299 211.26101685 380.66907883 C210.11456257 380.66984499 208.96810829 380.67061116 207.78691298 380.67140054 C205.45803855 380.67299914 203.12916414 380.6746202 200.80028975 380.6762635 C178.95357225 380.69052711 157.10695958 380.67411865 135.26025927 380.64726166 C116.50776356 380.62492236 97.7554226 380.62880231 79.00292969 380.65185547 C57.23531133 380.67860264 35.46778489 380.68915375 13.7001524 380.67379415 C11.37976266 380.67220138 9.05937292 380.67062952 6.73898315 380.66907883 C5.02639198 380.66792176 5.02639198 380.66792176 3.279203 380.66674132 C-4.77318681 380.66242108 -12.82551838 380.66971787 -20.87789917 380.68147659 C-30.68879529 380.69548807 -40.49949134 380.69173005 -50.31036448 380.66507287 C-55.31772039 380.65191656 -60.32474253 380.64681328 -65.3320961 380.66331863 C-69.91405191 380.67819356 -74.49536388 380.67007073 -79.07726109 380.64343087 C-80.73665959 380.63783545 -82.39611224 380.64071011 -84.05547607 380.65280981 C-86.30872143 380.66798243 -88.5597523 380.65246045 -90.81288147 380.6292057 C-92.06498445 380.62839394 -93.31708742 380.62758218 -94.60713291 380.62674582 C-99.11554585 379.7939313 -100.76477025 378.19976835 -104 375 C-107.26474746 368.33559816 -103.891063 359.53440387 -101.69189453 352.92871094 C-94.0546859 331.63938554 -78.87959791 316.60961923 -59.05444336 306.39746094 C-53.64017112 303.57467045 -50.94267176 301.68596885 -48.859375 295.75 C-48.49328125 294.5125 -48.1271875 293.275 -47.75 292 C-42.05623513 274.01128895 -29.21420531 258.74706586 -12.80078125 249.37890625 C0.6778628 242.74297689 13.32797052 240.63556246 28.140625 241.16601562 C33.51330591 241.27421545 37.4599092 241.24592008 42 238 C43.87607908 235.67225486 43.87607908 235.67225486 45.3125 232.9375 C56.00689057 215.25331167 72.39952659 205.14151457 91.99609375 199.69921875 C95 199 95 199 98 199 C97.93830785 191.66202301 97.86086667 184.32438106 97.76428509 176.9867754 C97.71989384 173.5782039 97.68057308 170.16974339 97.65356445 166.76098633 C97.62215016 162.82608671 97.5673789 158.89166512 97.51171875 154.95703125 C97.50213387 153.15465752 97.50213387 153.15465752 97.49235535 151.31587219 C97.21991387 135.34689298 93.4466227 121.45724294 82.3125 109.625 C74.51977896 102.37767547 74.51977896 102.37767547 65 98 C61.67025587 98.8634371 59.27312313 100.27450001 56.35546875 102.08984375 C52.38403607 104.35064768 48.50445274 105.58612136 44.125 106.8125 C43.41126221 107.01842773 42.69752441 107.22435547 41.9621582 107.43652344 C17.85621457 114.19535793 -7.05027412 110.20755522 -29 99 C-29.93996826 98.53424561 -29.93996826 98.53424561 -30.89892578 98.05908203 C-47.42947809 89.63333585 -60.4432922 74.68230029 -72.40649414 60.80957031 C-74.96709928 57.90177113 -77.68676598 55.16440185 -80.4375 52.4375 C-81.00170654 51.87595215 -81.56591309 51.3144043 -82.1472168 50.73583984 C-86.96126674 45.97626776 -91.95637754 41.49566191 -97.19140625 37.203125 C-104.26977167 31.27705162 -104.26977167 31.27705162 -105 27 C-105.12773962 22.53823769 -104.83589298 19.98133224 -101.8671875 16.49609375 C-98.83523282 13.85655827 -95.73726926 11.89626706 -92.1875 10.0625 C-91.20571777 9.55154785 -91.20571777 9.55154785 -90.20410156 9.03027344 C-83.01634432 5.37994646 -75.69855732 2.38951721 -68 0 C-67.32114746 -0.21172852 -66.64229492 -0.42345703 -65.94287109 -0.64160156 C-45.39054886 -6.70874324 -20.37307464 -6.520239 0 0 Z " fill="#994B28" transform="translate(147,68)"/>
<path d="M0 0 C1.70349609 0.54333984 1.70349609 0.54333984 3.44140625 1.09765625 C31.77442378 11.155707 52.1756482 31.59338155 66.03173828 57.94042969 C66.97237792 59.94124562 67.68418345 61.89829674 68.33984375 64.0078125 C71.81480569 75.16397544 77.31753622 78.52102008 87.08789062 83.87353516 C94.70667704 88.36192644 104.00462775 97.00925551 108 105 C108.66 105 109.32 105 110 105 C111.50311841 103.28353922 111.50311841 103.28353922 113.0625 101.0625 C118.1652993 94.41747535 122.99612444 88.51811476 130.484375 84.50390625 C143.77980192 77.2914487 148.17549006 70.57985685 153.07910156 56.43945312 C162.06720582 32.63003165 184.66087033 14.7167571 206.78320312 3.99853516 C220.91249895 -2.36587232 235.62048842 -4.39578185 251 -4.375 C252.02179855 -4.37418427 252.02179855 -4.37418427 253.0642395 -4.37335205 C264.41996988 -4.33178825 275.11400692 -3.39525158 286 0 C286.6904541 0.21430664 287.3809082 0.42861328 288.09228516 0.64941406 C295.77303263 3.12266155 303.03409399 6.33962942 310.1875 10.0625 C310.79948242 10.37864258 311.41146484 10.69478516 312.04199219 11.02050781 C316.47052669 13.42866238 320.87338493 16.18887875 322.8125 21.02734375 C322.9053125 21.97287109 322.9053125 21.97287109 323 22.9375 C323.0825 23.56527344 323.165 24.19304687 323.25 24.83984375 C322.55272131 30.86476747 318.79655222 34.47630672 314.4375 38.3125 C313.63795898 39.02515015 313.63795898 39.02515015 312.82226562 39.75219727 C311.22212611 41.17663612 309.61227322 42.58932441 308 44 C299.16339863 51.81032941 290.32844627 59.80010183 282.6875 68.8125 C264.28478823 90.15608096 242.44713928 105.76580331 214 110 C191.37182944 111.52697145 172.22469522 108.27658527 152 98 C141.32133765 105.03228984 132.59011907 111.25971149 126.625 122.875 C126.29072998 123.52283447 125.95645996 124.17066895 125.61206055 124.83813477 C121.00809073 134.38873401 120.68510512 144.21549591 120.5859375 154.6640625 C120.56657135 155.93728363 120.5472052 157.21050476 120.5272522 158.52230835 C120.477929 161.87260638 120.43652546 165.22280404 120.39910889 168.57324219 C120.35877328 172.0059554 120.30781743 175.43851019 120.2578125 178.87109375 C120.1621929 185.58063488 120.07801318 192.290232 120 199 C112.74 199 105.48 199 98 199 C97.97812622 196.46662964 97.97812622 196.46662964 97.95581055 193.88208008 C97.90379226 188.25014369 97.83841245 182.61846386 97.76428509 176.9867754 C97.71989384 173.5782039 97.68057308 170.16974339 97.65356445 166.76098633 C97.62215016 162.82608671 97.5673789 158.89166512 97.51171875 154.95703125 C97.50213387 153.15465752 97.50213387 153.15465752 97.49235535 151.31587219 C97.21991387 135.34689298 93.4466227 121.45724294 82.3125 109.625 C74.51977896 102.37767547 74.51977896 102.37767547 65 98 C61.67025587 98.8634371 59.27312313 100.27450001 56.35546875 102.08984375 C52.38403607 104.35064768 48.50445274 105.58612136 44.125 106.8125 C43.41126221 107.01842773 42.69752441 107.22435547 41.9621582 107.43652344 C17.85621457 114.19535793 -7.05027412 110.20755522 -29 99 C-29.93996826 98.53424561 -29.93996826 98.53424561 -30.89892578 98.05908203 C-47.42947809 89.63333585 -60.4432922 74.68230029 -72.40649414 60.80957031 C-74.96709928 57.90177113 -77.68676598 55.16440185 -80.4375 52.4375 C-81.00170654 51.87595215 -81.56591309 51.3144043 -82.1472168 50.73583984 C-86.96126674 45.97626776 -91.95637754 41.49566191 -97.19140625 37.203125 C-104.26977167 31.27705162 -104.26977167 31.27705162 -105 27 C-105.12773962 22.53823769 -104.83589298 19.98133224 -101.8671875 16.49609375 C-98.83523282 13.85655827 -95.73726926 11.89626706 -92.1875 10.0625 C-91.20571777 9.55154785 -91.20571777 9.55154785 -90.20410156 9.03027344 C-83.01634432 5.37994646 -75.69855732 2.38951721 -68 0 C-67.32114746 -0.21172852 -66.64229492 -0.42345703 -65.94287109 -0.64160156 C-45.39054886 -6.70874324 -20.37307464 -6.520239 0 0 Z " fill="#00A679" transform="translate(147,68)"/>
<path d="M0 0 C22.45168199 -0.86168502 41.10919469 4.38863825 58 20 C63.40153016 25.52044309 68.21466563 31.59898574 71.76953125 38.4765625 C73.65366091 40.80929446 75.07394078 41.2389963 78 42 C81.42222759 42.1364166 84.82838516 41.99012797 88.25 41.875 C107.74879518 41.5904282 125.23173198 46.73814912 140 60 C140.82113281 60.72832031 141.64226562 61.45664062 142.48828125 62.20703125 C153.18996754 72.25914629 159.33621057 84.3008542 163.6875 98.1953125 C165.86229892 104.47504439 170.85714729 106.45335955 176.4765625 109.21875 C195.54283401 118.89249248 209.5986556 135.5904628 216.35546875 155.90625 C220.77424925 170.33686311 220.77424925 170.33686311 218 176 C214.48166046 179.82909973 212.24324837 181.31301305 207.00439453 181.56762695 C205.04702198 181.56684099 203.08952996 181.538924 201.1328125 181.48828125 C199.58072586 181.47766914 199.58072586 181.47766914 197.99728394 181.46684265 C194.70577446 181.43894587 191.41599174 181.37621368 188.125 181.3125 C185.88804547 181.28741115 183.65106417 181.26459901 181.4140625 181.24414062 C175.94212328 181.18913494 170.47118502 181.10555572 165 181 C164.8153418 179.84822266 164.63068359 178.69644531 164.44042969 177.50976562 C164.18466708 175.97518998 163.92845845 174.44068862 163.671875 172.90625 C163.55183105 172.14989258 163.43178711 171.39353516 163.30810547 170.61425781 C161.26756072 158.57894294 154.78687973 147.19407454 145 139.75 C143.67554199 138.82055579 142.3422365 137.90357995 141 137 C134.11061947 132.22123894 134.11061947 132.22123894 133 130 C132.67923059 128.04622267 132.39314501 126.08669242 132.125 124.125 C129.55645974 107.22474962 124.32412801 93.33158364 111 82 C104.12581455 76.98749197 96.29044867 72.99432264 88 71 C87.27941406 70.82082031 86.55882812 70.64164062 85.81640625 70.45703125 C81.11381831 69.69392059 76.35154802 69.67844427 71.59375 69.5703125 C66.97620656 69.38561076 63.69521549 69.06534921 60 66 C57.84301429 63.02196812 57.46808345 59.6293252 56.81030273 56.06103516 C53.37188935 37.80639629 45.0620272 23.20361853 30 12.0625 C20.49776742 5.9219063 11.10116387 2.99334767 0 1 C0 0.67 0 0.34 0 0 Z " fill="#7D3326" transform="translate(251,267)"/>
<path d="M0 0 C0.68119904 0.00054382 1.36239807 0.00108765 2.0642395 0.00164795 C13.41996988 0.04321175 24.11400692 0.97974842 35 4.375 C36.03568115 4.69645996 36.03568115 4.69645996 37.09228516 5.02441406 C44.77303263 7.49766155 52.03409399 10.71462942 59.1875 14.4375 C59.79948242 14.75364258 60.41146484 15.06978516 61.04199219 15.39550781 C65.47052669 17.80366238 69.87338493 20.56387875 71.8125 25.40234375 C72.28726903 30.2390532 71.8336487 33.2189819 69 37.375 C66.45341883 39.78010443 63.95996878 41.39702723 60.890625 43.0859375 C56.33989703 45.67022819 52.19312803 48.75370607 48 51.875 C47.16984375 52.48867432 46.3396875 53.10234863 45.484375 53.73461914 C40.2253648 57.6461088 35.08334947 61.67639965 30 65.8125 C5.64587264 85.4976352 -20.72875582 93.44567705 -52 91.375 C-57.1898738 90.60802358 -62.06700695 89.15516706 -67 87.375 C-67.99 87.045 -68.98 86.715 -70 86.375 C-70 85.715 -70 85.055 -70 84.375 C-50.72053091 75.09914282 -31.34843355 65.92716036 -10.92724609 59.39160156 C-9.45312256 58.90771973 -9.45312256 58.90771973 -7.94921875 58.4140625 C-7.06967529 58.14029785 -6.19013184 57.8665332 -5.28393555 57.58447266 C-2.31648461 56.01304006 -1.41393497 54.38311902 0 51.375 C0.53368563 47.10551497 0.49446926 45.1331862 -1.875 41.5 C-4.40002953 38.97497047 -5.31362516 38.45492036 -8.8515625 38.04296875 C-14.67426056 38.14346354 -20.01143519 40.62870013 -25.375 42.6875 C-27.16151978 43.36365356 -27.16151978 43.36365356 -28.98413086 44.0534668 C-43.68032439 49.68760699 -58.1493649 55.82960253 -72.16796875 62.99609375 C-72.76239273 63.29892776 -73.35681671 63.60176178 -73.96925354 63.91377258 C-76.85450683 65.38707924 -79.72756101 66.87888657 -82.58813477 68.3996582 C-83.61608154 68.93292725 -84.64402832 69.46619629 -85.703125 70.015625 C-86.60708008 70.49547852 -87.51103516 70.97533203 -88.44238281 71.46972656 C-91.4749637 72.5431143 -92.97149711 72.37777376 -96 71.375 C-98.8125 69.3125 -98.8125 69.3125 -101 67.375 C-91.55323895 47.05654747 -78.77193989 27.9844654 -59 16.375 C-58.39849121 16.02099121 -57.79698242 15.66698242 -57.17724609 15.30224609 C-39.0131222 4.76573 -21.04713218 -0.02844032 0 0 Z " fill="#00D08C" transform="translate(398,63.625)"/>
<path d="M0 0 C1.70349609 0.54333984 1.70349609 0.54333984 3.44140625 1.09765625 C32.62885419 11.45902465 53.11094516 32.738551 67 60 C67.36517146 61.32496743 67.70714169 62.65719588 68 64 C62.83671565 68.05686628 62.83671565 68.05686628 59.17651367 67.80810547 C55.72167464 66.92919399 52.95628702 65.66459178 49.80078125 64.0078125 C48.59305421 63.38372857 47.38511869 62.76004796 46.17700195 62.13671875 C45.54750641 61.80849121 44.91801086 61.48026367 44.2694397 61.14208984 C29.52248736 53.47758415 14.51432152 46.97664469 -1 41 C-2.88677979 40.25666533 -4.77350159 39.51318346 -6.66015625 38.76953125 C-8.3559265 38.11499578 -10.05248755 37.46250377 -11.75 36.8125 C-12.49403076 36.52052734 -13.23806152 36.22855469 -14.00463867 35.92773438 C-18.46481449 34.26803782 -22.16969266 33.55274932 -27 34 C-29.75329021 35.79562405 -31.52627461 37.05254922 -33 40 C-33.237433 44.27379395 -33.35022052 47.36579767 -31 51 C-29.29852879 52.16995397 -29.29852879 52.16995397 -27.20703125 52.94140625 C-26.39830566 53.27285645 -25.58958008 53.60430664 -24.75634766 53.94580078 C-20.61993785 55.52782182 -16.47337445 57.07877728 -12.31567383 58.60400391 C4.56107516 64.80687067 20.91339025 71.95669513 37 80 C37 80.66 37 81.32 37 82 C35.00283825 82.65455759 33.00209613 83.2981943 31 83.9375 C29.88625 84.29714844 28.7725 84.65679687 27.625 85.02734375 C1.79022531 91.95930377 -24.36210248 85.30572522 -47.125 72.75 C-53.59452434 68.83676944 -59.39934017 64.1435215 -65.26513672 59.39648438 C-72.4726195 53.59479545 -79.86673873 48.03034584 -87.375 42.625 C-87.93380859 42.22015381 -88.49261719 41.81530762 -89.06835938 41.39819336 C-91.9000607 39.37837548 -94.76803237 37.52340173 -97.796875 35.8203125 C-100.94535208 34.03105602 -102.40218082 33.19563837 -104 30 C-105.01038466 25.52543937 -105.47639634 23.36471433 -103.9609375 19.0234375 C-101.43952061 15.13583456 -98.78900209 13.610905 -94.75 11.5 C-94.03908203 11.11690674 -93.32816406 10.73381348 -92.59570312 10.33911133 C-64.81766809 -4.31570897 -30.33409947 -9.70818504 0 0 Z " fill="#00D08C" transform="translate(147,68)"/>
<path d="M0 0 C0.99 0.495 0.99 0.495 2 1 C-1.42480831 4.52113104 -4.87887447 7.94477854 -8.625 11.125 C-15.98698516 17.48242578 -23.08641582 24.44894582 -29.375 31.875 C-47.72367774 53.20646771 -69.61114901 68.77447919 -98 73 C-118.79877027 74.4035217 -141.09432423 72.93711718 -159 61 C-157.74411479 57.23234436 -156.69460115 56.99081211 -153.265625 55.15234375 C-152.29882812 54.62962891 -151.33203125 54.10691406 -150.3359375 53.56835938 C-148.80839844 52.76108398 -148.80839844 52.76108398 -147.25 51.9375 C-146.24710937 51.39544922 -145.24421875 50.85339844 -144.2109375 50.29492188 C-132.10212651 43.79888202 -132.10212651 43.79888202 -128.859375 44.390625 C-127.81523437 44.81601563 -127.81523437 44.81601563 -126.75 45.25 C-118.20967076 48.6532891 -110.01302684 49.36051065 -100.875 49.3125 C-99.21730591 49.30512817 -99.21730591 49.30512817 -97.52612305 49.29760742 C-73.72441423 48.95780705 -52.21718348 40.08567772 -33.72705078 25.37353516 C-30.21253412 22.57841631 -26.66589576 19.82406517 -23.125 17.0625 C-22.36227783 16.46598633 -21.59955566 15.86947266 -20.8137207 15.25488281 C-14.01907458 9.96237826 -7.06225515 4.92768285 0 0 Z " fill="#00B377" transform="translate(459,105)"/>
<path d="M0 0 C3.47723736 1.25566905 6.09382458 2.73343156 9 5 C7.21118264 6.00508801 5.41885304 7.00392736 3.625 8 C2.62726563 8.556875 1.62953125 9.11375 0.6015625 9.6875 C-2 11 -2 11 -4 11 C-3.5247412 9.35303396 -3.04468109 7.70745272 -2.5625 6.0625 C-2.29566406 5.14597656 -2.02882813 4.22945312 -1.75390625 3.28515625 C-1 1 -1 1 0 0 Z " fill="#00B679" transform="translate(297,132)"/>
<path d="M0 0 C0.99 0.33 1.98 0.66 3 1 C3.94921875 3.28515625 3.94921875 3.28515625 4.6875 6.0625 C5.06455078 7.44115234 5.06455078 7.44115234 5.44921875 8.84765625 C5.63097656 9.55792969 5.81273437 10.26820313 6 11 C1.50202887 9.31326082 -2.72886302 7.18326108 -7 5 C-4.702779 3.25728062 -2.40133271 1.60088848 0 0 Z " fill="#00B67C" transform="translate(213,132)"/>
<path d="M0 0 C3.91841827 1.30613942 6.32640809 2.83129848 9 6 C9 6.66 9 7.32 9 8 C4.7257442 6.4169423 2.73468206 3.49431596 0 0 Z " fill="#00BE7E" transform="translate(51,105)"/>
</svg>
