<?xml version="1.0" encoding="UTF-8"?>
<svg version="1.1" xmlns="http://www.w3.org/2000/svg" width="512" height="512">
<path d="M0 0 C3.51502073 0.03686827 7.02899405 0.04101594 10.54418945 0.04052734 C12.78833919 0.05034769 15.03248182 0.06199994 17.27661133 0.07568359 C18.32244888 0.07790924 19.36828644 0.08013489 20.44581604 0.08242798 C21.42130905 0.09518768 22.39680206 0.10794739 23.40185547 0.12109375 C24.25453506 0.12871735 25.10721466 0.13634094 25.98573303 0.14419556 C28.80514971 0.45279789 30.89918524 1.13147647 33.42895508 2.41162109 C35.42895508 5.41162109 35.42895508 5.41162109 35.42895508 9.41162109 C40.04895508 9.41162109 44.66895508 9.41162109 49.42895508 9.41162109 C49.75895508 7.76162109 50.08895508 6.11162109 50.42895508 4.41162109 C52.74688214 1.84318566 54.11667248 1.44289544 57.57235718 1.09681702 C58.85583038 1.1260173 60.13930359 1.15521759 61.46166992 1.18530273 C62.56213685 1.20409154 62.56213685 1.20409154 63.68483543 1.22325993 C65.34645167 1.25424481 67.00793792 1.2927922 68.66924286 1.33745193 C71.61089247 1.41651079 74.5525323 1.47596459 77.49468994 1.53292847 C84.63220993 1.67710868 91.76877909 1.85451555 98.90551758 2.03271484 C101.56464295 2.09772633 104.22377143 2.16259711 106.88290405 2.22731018 C112.44191001 2.36292229 118.00087429 2.50014642 123.55981445 2.63842773 C129.89482482 2.79600061 136.22988733 2.95131054 142.56498587 3.10529464 C148.75379578 3.25575625 154.94256999 3.40764094 161.13132858 3.56019783 C163.71815629 3.62387262 166.30499123 3.68725423 168.89183426 3.75030327 C176.14561278 3.9276014 183.39908428 4.11356945 190.65235138 4.31071091 C193.29309941 4.38127123 195.9338214 4.44951921 198.5746994 4.51472855 C202.10587103 4.6022342 205.63677281 4.69733185 209.16761661 4.79716313 C211.15514972 4.85161597 213.14287372 4.89895684 215.13059425 4.94607449 C233.20656762 5.47703723 246.62680659 10.54189995 260.01879883 22.84912109 C262.57805369 25.5701441 264.45112969 28.25444275 266.42895508 31.41162109 C272.17340517 30.79801607 277.0491076 28.69596182 282.32348633 26.48193359 C283.74367317 25.89543533 283.74367317 25.89543533 285.19255066 25.29708862 C288.21134257 24.04951374 291.22658485 22.7936401 294.24145508 21.53662109 C297.24605572 20.28786186 300.25140329 19.04098026 303.25822449 17.7975769 C305.12511202 17.02517207 306.99068688 16.24958392 308.85469055 15.47024536 C328.24748448 7.42990903 328.24748448 7.42990903 338.49145508 10.91162109 C347.95043483 15.14935973 351.54098259 22.83986862 355.20458984 32.05102539 C358.27999366 40.26861245 359.67204185 46.99834748 356.36645508 55.38037109 C351.49133119 65.94313951 342.33475206 69.12073904 332.02661133 73.16943359 C330.94947372 73.59916473 329.87233612 74.02889587 328.76255798 74.47164917 C326.49566033 75.37439375 324.22728343 76.27343172 321.95751953 77.16894531 C318.50269935 78.53218421 315.05241271 79.90640087 311.6027832 81.28271484 C309.39014858 82.16226537 307.17726603 83.04119252 304.96411133 83.91943359 C303.94197037 84.32574005 302.91982941 84.73204651 301.86671448 85.15066528 C292.00957286 89.03521548 283.18470154 91.80058772 272.65380859 93.03393555 C271.58960693 93.15857178 270.52540527 93.28320801 269.42895508 93.41162109 C267.22786489 114.67466398 265.2959924 135.95264148 263.48924363 157.25235951 C263.11665718 161.6387264 262.74146312 166.02487041 262.36657715 170.41104126 C261.72038986 177.97493075 261.0756452 185.53894201 260.43182182 193.10303307 C259.41332043 205.06787559 258.39055255 217.03235173 257.36720276 228.9967804 C257.01566203 233.10744151 256.66415437 237.21810546 256.31266117 241.32877064 C256.2248876 242.35526715 256.13711402 243.38176366 256.04668064 244.43936613 C255.05295608 256.06164228 254.06023989 267.6840045 253.06787109 279.30639648 C252.97738316 280.36615796 252.88689523 281.42591943 252.79366524 282.51779488 C251.3222688 299.75129564 249.85332666 316.98500503 248.3848865 334.21875789 C246.87212643 351.97145295 245.35532748 369.72380008 243.83514267 387.47586089 C242.90000729 398.3977967 241.96821323 409.32000723 241.04076887 420.24259887 C240.40609683 427.71396859 239.7676178 435.18500678 239.12615471 442.65579649 C238.75663468 446.96083701 238.3888209 451.2660053 238.02562904 455.5715847 C237.69277833 459.51707935 237.35503166 463.46212405 237.01349283 467.40687583 C236.89125289 468.82861969 236.77076851 470.25051589 236.65228467 471.6725777 C234.42705295 498.33659191 234.42705295 498.33659191 224.49145508 507.28662109 C217.31172374 512.26847549 211.70950422 512.8555979 203.14111328 512.83154297 C202.02485565 512.84001251 200.90859802 512.84848206 199.7585144 512.85720825 C196.08213809 512.8805399 192.40618095 512.88160163 188.72973633 512.88037109 C186.17099337 512.88747249 183.61225201 512.89517146 181.05351257 512.90344238 C175.69805853 512.91687661 170.34275879 512.91864113 164.98730469 512.91259766 C158.79937046 512.90594359 152.61203029 512.9288855 146.42421657 512.96591139 C140.46172677 513.00029142 134.49942067 513.00694724 128.53682518 513.00282288 C126.00301526 513.00451884 123.46919784 513.01420684 120.9354496 513.03196716 C117.39935271 513.05403526 113.86470407 513.04451685 110.32861328 513.02685547 C109.27865677 513.04011871 108.22870026 513.05338196 107.14692688 513.06704712 C100.08268515 512.98482403 100.08268515 512.98482403 96.74772644 510.06066895 C95.42895508 507.41162109 95.42895508 507.41162109 95.42895508 504.41162109 C90.80895508 504.41162109 86.18895508 504.41162109 81.42895508 504.41162109 C81.09895508 506.06162109 80.76895508 507.71162109 80.42895508 509.41162109 C78.86878711 511.57703164 78.04016945 512.29751944 75.40665531 512.78914452 C74.62857738 512.79027559 73.85049944 512.79140667 73.04884338 512.79257202 C71.70557732 512.80526123 71.70557732 512.80526123 70.33517456 512.81820679 C69.35493317 512.81213409 68.37469177 512.8060614 67.36474609 512.79980469 C66.33019791 512.80506165 65.29564972 512.8103186 64.22975159 512.81573486 C60.79730269 512.82897469 57.36531527 512.82017668 53.93286133 512.81005859 C51.54450898 512.81207956 49.15615724 512.81499119 46.76780701 512.8187561 C41.75155792 512.823186 36.7354688 512.81673201 31.71923828 512.80273438 C25.31384412 512.78572541 18.90882937 512.79542686 12.50344944 512.81345177 C7.56437881 512.82434272 2.6253966 512.82081752 -2.31367683 512.81306839 C-4.6733918 512.81107671 -7.03311498 512.81348912 -9.39282036 512.82050705 C-32.25835835 512.87353942 -50.40357851 509.94227268 -67.57104492 493.41162109 C-80.82480934 479.64727827 -87.54965835 462.48843886 -87.57104492 443.41162109 C-86.51484149 424.13110759 -79.41219702 408.03131476 -65.57104492 394.41162109 C-56.7428339 386.54271641 -56.7428339 386.54271641 -51.57104492 385.41162109 C-51.62182819 384.82370623 -51.67261147 384.23579137 -51.72493362 383.63006091 C-54.7369736 348.75833579 -57.74365723 313.88615286 -60.74341941 279.01336937 C-61.10389108 274.82287441 -61.46440734 270.63238328 -61.82495117 266.44189453 C-61.89672593 265.60767012 -61.96850068 264.77344571 -62.04245043 263.91394177 C-63.20357156 250.41969434 -64.36830195 236.92576076 -65.53437471 223.43194041 C-66.73146398 209.5782561 -67.92465486 195.72423999 -69.114254 181.86991048 C-69.84797376 173.32628304 -70.58470559 164.78292648 -71.3253355 156.23989525 C-71.83344147 150.37559509 -72.33774842 144.51097582 -72.83911991 138.64609608 C-73.1281663 135.26622899 -73.41939988 131.88658926 -73.71403503 128.50720215 C-74.03407478 124.83337693 -74.34775398 121.15906021 -74.65991211 117.48455811 C-74.75329487 116.43004668 -74.84667763 115.37553525 -74.94289017 114.28906894 C-75.5263409 107.31539859 -75.67289072 100.40830476 -75.57104492 93.41162109 C-76.72604492 93.45287109 -77.88104492 93.49412109 -79.07104492 93.53662109 C-87.82612323 93.50568442 -93.98455855 90.99810747 -100.25854492 84.72412109 C-105.34468525 78.19814308 -106.0568789 70.41629749 -105.94604492 62.41162109 C-105.95764648 61.57373047 -105.96924805 60.73583984 -105.98120117 59.87255859 C-105.94276665 51.5963257 -104.18591216 44.03451619 -98.33666992 37.91552734 C-93.18399974 33.52663792 -88.58163012 32.30887562 -81.83691406 32.44995117 C-76.49233242 32.51210477 -72.33242725 32.54934951 -68.25854492 28.74755859 C-65.67384363 25.96562445 -63.33126236 22.987113 -60.95922852 20.02392578 C-45.60659946 2.19262746 -21.75695226 -0.2367058 0 0 Z " fill="#70A951" transform="translate(129.571044921875,-0.41162109375)"/>
<path d="M0 0 C3.51502073 0.03686827 7.02899405 0.04101594 10.54418945 0.04052734 C12.78833919 0.05034769 15.03248182 0.06199994 17.27661133 0.07568359 C18.32244888 0.07790924 19.36828644 0.08013489 20.44581604 0.08242798 C21.42130905 0.09518768 22.39680206 0.10794739 23.40185547 0.12109375 C24.25453506 0.12871735 25.10721466 0.13634094 25.98573303 0.14419556 C28.80514971 0.45279789 30.89918524 1.13147647 33.42895508 2.41162109 C35.42895508 5.41162109 35.42895508 5.41162109 35.42895508 9.41162109 C40.04895508 9.41162109 44.66895508 9.41162109 49.42895508 9.41162109 C49.75895508 7.76162109 50.08895508 6.11162109 50.42895508 4.41162109 C52.74688214 1.84318566 54.11667248 1.44289544 57.57235718 1.09681702 C58.85583038 1.1260173 60.13930359 1.15521759 61.46166992 1.18530273 C62.56213685 1.20409154 62.56213685 1.20409154 63.68483543 1.22325993 C65.34645167 1.25424481 67.00793792 1.2927922 68.66924286 1.33745193 C71.61089247 1.41651079 74.5525323 1.47596459 77.49468994 1.53292847 C84.63220993 1.67710868 91.76877909 1.85451555 98.90551758 2.03271484 C101.56464295 2.09772633 104.22377143 2.16259711 106.88290405 2.22731018 C112.44191001 2.36292229 118.00087429 2.50014642 123.55981445 2.63842773 C129.89482482 2.79600061 136.22988733 2.95131054 142.56498587 3.10529464 C148.75379578 3.25575625 154.94256999 3.40764094 161.13132858 3.56019783 C163.71815629 3.62387262 166.30499123 3.68725423 168.89183426 3.75030327 C176.14561278 3.9276014 183.39908428 4.11356945 190.65235138 4.31071091 C193.29309941 4.38127123 195.9338214 4.44951921 198.5746994 4.51472855 C202.10587103 4.6022342 205.63677281 4.69733185 209.16761661 4.79716313 C211.15514972 4.85161597 213.14287372 4.89895684 215.13059425 4.94607449 C233.20656762 5.47703723 246.62680659 10.54189995 260.01879883 22.84912109 C262.57805369 25.5701441 264.45112969 28.25444275 266.42895508 31.41162109 C272.17340517 30.79801607 277.0491076 28.69596182 282.32348633 26.48193359 C283.74367317 25.89543533 283.74367317 25.89543533 285.19255066 25.29708862 C288.21134257 24.04951374 291.22658485 22.7936401 294.24145508 21.53662109 C297.24605572 20.28786186 300.25140329 19.04098026 303.25822449 17.7975769 C305.12511202 17.02517207 306.99068688 16.24958392 308.85469055 15.47024536 C328.24748448 7.42990903 328.24748448 7.42990903 338.49145508 10.91162109 C347.95043483 15.14935973 351.54098259 22.83986862 355.20458984 32.05102539 C358.27999366 40.26861245 359.67204185 46.99834748 356.36645508 55.38037109 C351.49133119 65.94313951 342.33475206 69.12073904 332.02661133 73.16943359 C330.94947372 73.59916473 329.87233612 74.02889587 328.76255798 74.47164917 C326.49566033 75.37439375 324.22728343 76.27343172 321.95751953 77.16894531 C318.50269935 78.53218421 315.05241271 79.90640087 311.6027832 81.28271484 C309.39014858 82.16226537 307.17726603 83.04119252 304.96411133 83.91943359 C303.94197037 84.32574005 302.91982941 84.73204651 301.86671448 85.15066528 C292.00957286 89.03521548 283.18470154 91.80058772 272.65380859 93.03393555 C271.58960693 93.15857178 270.52540527 93.28320801 269.42895508 93.41162109 C267.22786489 114.67466398 265.2959924 135.95264148 263.48924363 157.25235951 C263.11665718 161.6387264 262.74146312 166.02487041 262.36657715 170.41104126 C261.72038986 177.97493075 261.0756452 185.53894201 260.43182182 193.10303307 C259.41332043 205.06787559 258.39055255 217.03235173 257.36720276 228.9967804 C257.01566203 233.10744151 256.66415437 237.21810546 256.31266117 241.32877064 C256.2248876 242.35526715 256.13711402 243.38176366 256.04668064 244.43936613 C255.05295608 256.06164228 254.06023989 267.6840045 253.06787109 279.30639648 C252.97738316 280.36615796 252.88689523 281.42591943 252.79366524 282.51779488 C251.3222688 299.75129564 249.85332666 316.98500503 248.3848865 334.21875789 C246.87212643 351.97145295 245.35532748 369.72380008 243.83514267 387.47586089 C242.90000729 398.3977967 241.96821323 409.32000723 241.04076887 420.24259887 C240.40609683 427.71396859 239.7676178 435.18500678 239.12615471 442.65579649 C238.75663468 446.96083701 238.3888209 451.2660053 238.02562904 455.5715847 C237.69277833 459.51707935 237.35503166 463.46212405 237.01349283 467.40687583 C236.89125289 468.82861969 236.77076851 470.25051589 236.65228467 471.6725777 C234.42705295 498.33659191 234.42705295 498.33659191 224.49145508 507.28662109 C217.31172374 512.26847549 211.70950422 512.8555979 203.14111328 512.83154297 C202.02485565 512.84001251 200.90859802 512.84848206 199.7585144 512.85720825 C196.08213809 512.8805399 192.40618095 512.88160163 188.72973633 512.88037109 C186.17099337 512.88747249 183.61225201 512.89517146 181.05351257 512.90344238 C175.69805853 512.91687661 170.34275879 512.91864113 164.98730469 512.91259766 C158.79937046 512.90594359 152.61203029 512.9288855 146.42421657 512.96591139 C140.46172677 513.00029142 134.49942067 513.00694724 128.53682518 513.00282288 C126.00301526 513.00451884 123.46919784 513.01420684 120.9354496 513.03196716 C117.39935271 513.05403526 113.86470407 513.04451685 110.32861328 513.02685547 C109.27865677 513.04011871 108.22870026 513.05338196 107.14692688 513.06704712 C100.08378783 512.98483686 100.08378783 512.98483686 96.74772644 510.0645752 C95.42895508 507.41162109 95.42895508 507.41162109 95.42895508 504.34912109 C96.63975993 500.79238184 97.35821372 499.60608745 100.42895508 497.41162109 C103.87886666 496.80908856 107.29938902 496.8791267 110.79370117 496.91333008 C111.84778671 496.90781128 112.90187225 496.90229248 113.98789978 496.89660645 C116.27686068 496.88727979 118.56587346 496.88718672 120.85483932 496.89520073 C124.47800426 496.90780393 128.10040438 496.89656448 131.72354126 496.87916565 C138.10978676 496.85242516 144.49584568 496.84687137 150.88214111 496.8482666 C161.09740367 496.85049232 171.31243495 496.83639994 181.52760696 496.79268074 C185.09619508 496.7828354 188.66442098 496.79156451 192.23300171 496.80137634 C194.4238102 496.79523173 196.61461671 496.78831986 198.80541992 496.78051758 C200.29248192 496.79209648 200.29248192 496.79209648 201.80958557 496.8039093 C207.00968355 496.76569778 211.13125859 496.67201515 215.42895508 493.41162109 C218.4089848 488.25518636 219.0306041 483.36154817 219.48461914 477.49487305 C219.60031281 476.18605289 219.60031281 476.18605289 219.71834373 474.85079193 C219.97174375 471.95134692 220.20818346 469.05077924 220.44458008 466.14990234 C220.62182041 464.0814305 220.8000976 462.01304728 220.9793396 459.94474792 C221.45963621 454.36781403 221.92520414 448.78973826 222.38806915 443.21133423 C222.87664331 437.35418523 223.378979 431.49821586 223.87963867 425.64208984 C224.98697788 412.65740632 226.07455311 399.67111336 227.15626526 386.68427277 C227.49664811 382.59921191 227.83793903 378.51422722 228.17927551 374.42924595 C229.35572258 360.34831131 230.52963022 346.26716394 231.69223022 332.18507862 C233.74927062 307.27450091 235.91709506 282.37525957 238.14677048 257.47957993 C240.65226682 229.50163277 243.02712668 201.51439514 245.33986282 173.5198822 C247.57453966 146.47150604 249.87173742 119.43183126 252.42895508 92.41162109 C251.68615295 92.42272415 250.94335083 92.43382721 250.17803955 92.44526672 C243.17448808 92.54549243 236.17118536 92.62159735 229.16711807 92.67068195 C225.56626012 92.69676581 221.96599516 92.73213902 218.36547852 92.78881836 C214.89005467 92.84318549 211.41520076 92.87305075 207.93938446 92.88600731 C205.96942834 92.89972926 203.99970125 92.93875595 202.03009033 92.97810364 C200.22867584 92.97867012 200.22867584 92.97867012 198.39086914 92.97924805 C197.33385803 92.9903511 196.27684692 93.00145416 195.18780518 93.01289368 C192.42895508 92.41162109 192.42895508 92.41162109 190.05633545 90.10270691 C188.42895508 87.41162109 188.42895508 87.41162109 188.42895508 83.78662109 C189.56424057 79.95503256 190.00237701 79.27620559 193.42895508 77.41162109 C196.05438203 77.11850488 198.44393216 76.99425666 201.06811523 77.01098633 C201.83292206 77.00400726 202.59772888 76.9970282 203.38571167 76.98983765 C205.91325903 76.96985134 208.44039816 76.97036099 210.96801758 76.97021484 C212.73197525 76.95843746 214.49592296 76.94507235 216.25985718 76.93019104 C220.90845977 76.89397805 225.55697433 76.87380381 230.20568848 76.85864258 C237.62437596 76.83384261 245.04286844 76.79380909 252.46137619 76.73674202 C255.04140632 76.72053897 257.62124996 76.71664575 260.20132446 76.71372986 C270.52312715 76.66875502 279.90108096 76.07724848 289.58129883 72.19677734 C290.67514893 71.76308838 291.76899902 71.32939941 292.89599609 70.88256836 C294.04124756 70.41778076 295.18649902 69.95299316 296.36645508 69.47412109 C297.56906982 68.99193115 298.77168457 68.50974121 300.01074219 68.01293945 C302.53451572 67.00069441 305.05600433 65.98298613 307.57641602 64.96240234 C310.79083505 63.66381217 314.01499671 62.39176964 317.24369812 61.12916565 C319.12635246 60.39179408 321.00668691 59.64882614 322.88623047 58.90356445 C325.24940592 57.96658387 327.61569794 57.03741744 329.98535156 56.11694336 C331.58358765 55.47583618 331.58358765 55.47583618 333.21411133 54.82177734 C334.15134033 54.45189697 335.08856934 54.0820166 336.05419922 53.70092773 C338.71066334 52.25867555 339.89906851 50.99919547 341.42895508 48.41162109 C342.0725295 43.45679005 340.61189559 39.61480276 338.61645508 35.16162109 C338.22490234 34.22576172 338.22490234 34.22576172 337.82543945 33.27099609 C336.35858592 29.90990949 335.55480113 28.49551846 332.42895508 26.41162109 C326.20698894 25.71328205 321.70715711 27.57264623 316.12817383 29.98974609 C315.25175735 30.35759216 314.37534088 30.72543823 313.47236633 31.10443115 C310.6819867 32.27854727 307.89922292 33.46959208 305.11645508 34.66162109 C303.25822255 35.4479397 301.39950252 36.23310731 299.5402832 37.01708984 C296.90289681 38.12947702 294.26627548 39.24333033 291.63346863 40.36651611 C290.07403978 41.03144864 288.51146969 41.68908414 286.94520581 42.33775282 C285.377141 43.00696079 283.82293575 43.71098275 282.29436862 44.46606493 C274.81612415 47.94149167 267.74382935 47.96807599 259.6242981 47.90368652 C258.13771053 47.90670157 256.65112568 47.91148274 255.16454875 47.91786528 C251.10155788 47.9303188 247.03896491 47.9181178 242.97600174 47.90179038 C238.58613507 47.88857694 234.19631413 47.89859206 229.80644226 47.90589905 C222.20711374 47.91556408 214.60790004 47.91113322 207.00857925 47.8974762 C196.016988 47.87809312 185.02552552 47.88456108 174.03393088 47.89805001 C156.19359405 47.91961541 138.35328766 47.92634803 120.51293945 47.92089844 C119.44601301 47.9205778 118.37908656 47.92025717 117.27982901 47.91992682 C109.70453754 47.91755306 102.12924631 47.9146479 94.55395508 47.91162109 C85.8902182 47.90816065 77.22648132 47.90494295 68.56274414 47.90234375 C67.49530158 47.90201824 66.42785901 47.90169273 65.3280697 47.90135735 C47.54584017 47.89641965 29.76365292 47.90707176 11.98143661 47.9289155 C1.01283756 47.9416286 -9.95558755 47.9401377 -20.92417724 47.92046463 C-28.43185651 47.90788398 -35.93944734 47.90929445 -43.44712643 47.92183816 C-47.78185574 47.92856844 -52.11632721 47.92859671 -56.45103264 47.91125679 C-60.41583621 47.89549741 -64.38018805 47.89794678 -68.34498192 47.91510683 C-69.78216339 47.91803531 -71.21937768 47.91413049 -72.65651785 47.90284866 C-74.60434691 47.88851332 -76.55231895 47.9010173 -78.50015068 47.91498566 C-79.58376786 47.91433625 -80.66738504 47.91368684 -81.78383911 47.91301775 C-85.24788411 48.53270088 -86.4265627 49.67656254 -88.57104492 52.41162109 C-89.17696153 54.6465664 -89.17696153 54.6465664 -89.10229492 57.03662109 C-89.10745117 57.90802734 -89.11260742 58.77943359 -89.11791992 59.67724609 C-89.10245117 60.57958984 -89.08698242 61.48193359 -89.07104492 62.41162109 C-89.08651367 63.31396484 -89.10198242 64.21630859 -89.11791992 65.14599609 C-89.11276367 66.01740234 -89.10760742 66.88880859 -89.10229492 67.78662109 C-89.0977832 68.57810547 -89.09327148 69.36958984 -89.08862305 70.18505859 C-88.32709065 73.46108475 -87.30958761 74.41654136 -84.57104492 76.41162109 C-81.22585124 77.01549968 -77.9098452 76.93603652 -74.51881409 76.8969574 C-72.96927116 76.90291753 -72.96927116 76.90291753 -71.38842434 76.90899807 C-67.91591254 76.91761119 -64.44413869 76.8977308 -60.97167969 76.87817383 C-58.4866221 76.87872235 -56.00156433 76.88109567 -53.51651001 76.88516235 C-48.15971764 76.89034638 -42.80313664 76.88366116 -37.44638252 76.86691093 C-29.69597536 76.84313343 -21.94575052 76.84608515 -14.19532215 76.85653938 C-1.61376314 76.87324765 10.96775105 76.87580667 23.54931641 76.8659668 C24.30236839 76.86538385 25.05542036 76.86480091 25.8312921 76.8642003 C34.23339656 76.85747167 42.63549714 76.84839953 51.03759766 76.83789062 C54.08447257 76.83415065 57.13134756 76.83049107 60.17822266 76.8269043 C60.93005463 76.82601338 61.6818866 76.82512247 62.45650136 76.82420456 C74.98965132 76.80991677 87.52271462 76.81503022 100.05585629 76.83482701 C107.78735365 76.8461594 115.51847572 76.84035467 123.24993325 76.81254817 C129.1723567 76.79255724 135.09458053 76.79799182 141.01702499 76.81285477 C143.44828633 76.81471563 145.87957146 76.80795768 148.31078148 76.79205132 C151.62425873 76.77155242 154.93627998 76.78157937 158.2497406 76.79930115 C159.21685783 76.78589941 160.18397507 76.77249767 161.18039888 76.75868982 C165.74122538 76.81499199 167.79683431 76.94510103 171.56124973 79.72332859 C173.42895508 82.41162109 173.42895508 82.41162109 173.49145508 86.03662109 C172.28259165 89.8765402 171.92203122 90.58412746 168.42895508 92.41162109 C165.37045595 92.84800351 162.33902987 92.80303907 159.25421143 92.77238464 C157.84638464 92.77622956 157.84638464 92.77622956 156.41011691 92.78015214 C153.25769421 92.78510294 150.1057479 92.76857553 146.95336914 92.75219727 C144.6966503 92.75135127 142.43993064 92.75182559 140.18321228 92.75352478 C134.04927525 92.75438725 127.9155134 92.73672068 121.78161716 92.71580291 C115.37409409 92.69707805 108.96656721 92.69528898 102.559021 92.69172668 C91.8019245 92.68345495 81.04490475 92.66470286 70.2878418 92.63793945 C59.20809247 92.61040187 48.12836063 92.58916682 37.04858398 92.57641602 C36.36561289 92.57562785 35.6826418 92.57483967 34.97897461 92.57402762 C31.55270494 92.5701125 28.12643515 92.56632138 24.70016527 92.56259191 C-3.7236158 92.5314924 -32.14732691 92.47843043 -60.57104492 92.41162109 C-60.45864881 93.46163835 -60.34625269 94.5116556 -60.23045063 95.59349155 C-56.18714881 133.42170675 -56.18714881 133.42170675 -54.89526367 149.72021484 C-54.76382117 151.33114737 -54.63191028 152.94204172 -54.49958801 154.55290222 C-54.2236315 157.91987575 -53.94998954 161.28702397 -53.6784668 164.65435791 C-52.93964817 173.81009037 -52.18241009 182.96431699 -51.42651367 192.11865234 C-51.34952618 193.0524749 -51.27253868 193.98629745 -51.19321823 194.94841766 C-49.63407897 213.8465946 -47.976854 232.73540212 -46.28704071 251.62228775 C-45.63936261 258.86183096 -44.99336375 266.1015241 -44.34838867 273.34130859 C-44.27703453 274.14213427 -44.20568039 274.94295994 -44.132164 275.76805305 C-42.33349063 295.97162714 -40.59697285 316.18052236 -38.87045288 336.39037323 C-38.63466073 339.14856887 -38.39833478 341.90671831 -38.16186523 344.66485596 C-37.79333936 348.96449721 -37.4261899 353.26425368 -37.06022453 357.56411362 C-36.92536317 359.14682297 -36.79010229 360.72949834 -36.65442085 362.3121376 C-36.46924178 364.4737779 -36.28566431 366.63554816 -36.10253906 368.79736328 C-35.99929825 370.00914246 -35.89605743 371.22092163 -35.78968811 372.46942139 C-35.57104492 375.41162109 -35.57104492 375.41162109 -35.57104492 378.41162109 C-34.73814941 378.17258057 -34.73814941 378.17258057 -33.88842773 377.92871094 C-16.68237812 374.08943438 1.87038106 377.85397017 16.84692383 386.70068359 C33.21360029 397.54577329 44.45365491 413.05727279 48.42895508 432.41162109 C48.88701499 436.46350926 49.0009892 440.46078386 48.99145508 444.53662109 C48.98782959 446.16869507 48.98782959 446.16869507 48.98413086 447.83374023 C48.53675759 467.64535852 39.17322359 482.66735259 25.42895508 496.41162109 C26.05900452 496.41526672 26.68905396 496.41891235 27.3381958 496.42266846 C33.89209972 496.46445821 40.44530103 496.53377908 46.9987793 496.61914062 C49.4449969 496.64737745 51.8913062 496.6685784 54.33764648 496.68261719 C57.85293621 496.7040084 61.36712019 496.75064147 64.88208008 496.80224609 C65.97699768 496.80347473 67.07191528 496.80470337 68.20001221 496.80596924 C69.22076843 496.82568787 70.24152466 496.84540649 71.29321289 496.86572266 C72.19033997 496.8746051 73.08746704 496.88348755 74.01177979 496.89263916 C77.21821809 497.58108056 78.40730119 498.8755731 80.42895508 501.41162109 C81.42895508 504.91162109 81.42895508 504.91162109 81.42895508 508.41162109 C80.06506348 510.59901428 80.06506348 510.59901428 77.42895508 512.41162109 C74.03980125 513.01021927 70.6850921 512.94732249 67.2512207 512.91333008 C66.21652649 512.91873306 65.18183228 512.92413605 64.11578369 512.92970276 C60.68863463 512.94222727 57.26232009 512.92566444 53.83520508 512.90771484 C51.44828243 512.90786984 49.06135953 512.9093589 46.67443848 512.91212463 C41.66411247 512.91351062 36.65407199 512.90092421 31.64379883 512.87817383 C25.24626358 512.84991187 18.84920725 512.85249059 12.45163727 512.86526394 C7.51684544 512.87225083 2.58216255 512.86439547 -2.35261536 512.85200691 C-4.70953451 512.84751293 -7.06646546 512.84713752 -9.42338562 512.85107231 C-32.26824109 512.87134217 -50.42062662 509.92585695 -67.57104492 493.41162109 C-80.82480934 479.64727827 -87.54965835 462.48843886 -87.57104492 443.41162109 C-86.51484149 424.13110759 -79.41219702 408.03131476 -65.57104492 394.41162109 C-56.7428339 386.54271641 -56.7428339 386.54271641 -51.57104492 385.41162109 C-51.62182819 384.82370623 -51.67261147 384.23579137 -51.72493362 383.63006091 C-54.7369736 348.75833579 -57.74365723 313.88615286 -60.74341941 279.01336937 C-61.10389108 274.82287441 -61.46440734 270.63238328 -61.82495117 266.44189453 C-61.89672593 265.60767012 -61.96850068 264.77344571 -62.04245043 263.91394177 C-63.20357156 250.41969434 -64.36830195 236.92576076 -65.53437471 223.43194041 C-66.73146398 209.5782561 -67.92465486 195.72423999 -69.114254 181.86991048 C-69.84797376 173.32628304 -70.58470559 164.78292648 -71.3253355 156.23989525 C-71.83344147 150.37559509 -72.33774842 144.51097582 -72.83911991 138.64609608 C-73.1281663 135.26622899 -73.41939988 131.88658926 -73.71403503 128.50720215 C-74.03407478 124.83337693 -74.34775398 121.15906021 -74.65991211 117.48455811 C-74.75329487 116.43004668 -74.84667763 115.37553525 -74.94289017 114.28906894 C-75.5263409 107.31539859 -75.67289072 100.40830476 -75.57104492 93.41162109 C-76.72604492 93.45287109 -77.88104492 93.49412109 -79.07104492 93.53662109 C-87.82612323 93.50568442 -93.98455855 90.99810747 -100.25854492 84.72412109 C-105.34468525 78.19814308 -106.0568789 70.41629749 -105.94604492 62.41162109 C-105.95764648 61.57373047 -105.96924805 60.73583984 -105.98120117 59.87255859 C-105.94276665 51.5963257 -104.18591216 44.03451619 -98.33666992 37.91552734 C-93.18399974 33.52663792 -88.58163012 32.30887562 -81.83691406 32.44995117 C-76.49233242 32.51210477 -72.33242725 32.54934951 -68.25854492 28.74755859 C-65.67384363 25.96562445 -63.33126236 22.987113 -60.95922852 20.02392578 C-45.60659946 2.19262746 -21.75695226 -0.2367058 0 0 Z " fill="#010100" transform="translate(129.571044921875,-0.41162109375)"/>
<path d="M0 0 C5.72337995 3.81558664 8.06299029 10.59550407 10 17 C10.46007243 20.64804906 10.41911156 22.32907601 8.45996094 25.46533203 C5.42794577 28.58942706 2.23903974 29.95985986 -1.74609375 31.48828125 C-2.50562851 31.79290787 -3.26516327 32.09753448 -4.04771423 32.41139221 C-6.50551672 33.39288924 -8.97097694 34.35315383 -11.4375 35.3125 C-13.12558049 35.98022744 -14.81324284 36.64901296 -16.50048828 37.31884766 C-20.59927098 38.94177778 -24.70470773 40.54699873 -28.81280518 42.1461792 C-31.83686204 43.32668796 -34.85370616 44.52522154 -37.87109375 45.72265625 C-39.70507233 46.44178154 -41.53963915 47.1594099 -43.375 47.875 C-44.17349365 48.18993408 -44.9719873 48.50486816 -45.79467773 48.8293457 C-46.53016846 49.1099585 -47.26565918 49.39057129 -48.0234375 49.6796875 C-48.63106934 49.91413574 -49.23870117 50.14858398 -49.86474609 50.39013672 C-55.50274664 52.00044147 -61.25218104 52.14614177 -67.07495117 52.1418457 C-67.84983383 52.14532013 -68.62471649 52.14879456 -69.42308044 52.15237427 C-71.09322085 52.15968457 -72.76337067 52.1650549 -74.43352318 52.16866493 C-77.07744978 52.17587528 -79.72119559 52.19157185 -82.36506653 52.21000671 C-89.87771264 52.26228915 -97.39025163 52.31050726 -104.90307617 52.32592773 C-109.50843507 52.33599745 -114.113326 52.36528241 -118.71850014 52.40724754 C-120.47075173 52.41956309 -122.22306932 52.42467778 -123.97536278 52.42244911 C-126.42183071 52.42010112 -128.86694701 52.44221766 -131.31323242 52.4699707 C-132.39725342 52.46006859 -132.39725342 52.46006859 -133.50317383 52.44996643 C-136.88406442 52.51301928 -138.69689773 52.76863875 -141.41792297 54.84562683 C-143.17108529 57.00218592 -143.17108529 57.00218592 -144 60 C-148.95 60 -153.9 60 -159 60 C-159.99 58.02 -160.98 56.04 -162 54 C-164.31037458 52.84481271 -165.61283947 52.87512558 -168.18332386 52.87530136 C-169.50662039 52.87171494 -169.50662039 52.87171494 -170.85665017 52.86805606 C-172.31941063 52.8717048 -172.31941063 52.8717048 -173.8117218 52.87542725 C-174.84304157 52.8740171 -175.87436134 52.87260695 -176.93693322 52.87115407 C-180.41540709 52.86748501 -183.8938406 52.87084448 -187.37231445 52.87402344 C-189.85707633 52.87262945 -192.34183798 52.87073064 -194.82659912 52.86836243 C-199.49304074 52.86444193 -204.15947614 52.86203272 -208.82591894 52.86194643 C-217.99588237 52.86174389 -227.1657928 52.8492949 -236.33573914 52.83233643 C-237.77855643 52.82973059 -239.22137374 52.82713178 -240.66419107 52.8245399 C-242.85097978 52.82060139 -245.03776849 52.81665488 -247.22455714 52.81267868 C-255.47286348 52.79772658 -263.72117144 52.78410506 -271.96948242 52.77197266 C-272.7236654 52.7708591 -273.47784839 52.76974553 -274.2548854 52.76859823 C-286.47635621 52.75102335 -298.69779392 52.74815407 -310.91927526 52.74982306 C-323.46142728 52.75110164 -336.00345593 52.73337799 -348.54556054 52.69880509 C-356.28455726 52.67813904 -364.02325873 52.67282963 -371.76227119 52.6871334 C-377.69210837 52.69658434 -383.62169101 52.68000064 -389.55148315 52.65364647 C-391.98595053 52.64698487 -394.42045843 52.64890836 -396.8549099 52.65994453 C-400.17292061 52.6737407 -403.48941094 52.65700774 -406.80732727 52.63250732 C-407.77580874 52.6438627 -408.74429021 52.65521808 -409.74211961 52.66691756 C-414.35021147 52.60053185 -416.34976018 52.50275957 -420.09660625 49.60573196 C-422.10009869 46.86296563 -422.63990128 45.65365215 -422.6640625 42.3125 C-422.67050781 41.44882813 -422.67695313 40.58515625 -422.68359375 39.6953125 C-422.66425781 38.80585937 -422.64492188 37.91640625 -422.625 37 C-422.64433594 36.11054687 -422.66367187 35.22109375 -422.68359375 34.3046875 C-422.67714844 33.44101562 -422.67070312 32.57734375 -422.6640625 31.6875 C-422.65842285 30.90761719 -422.6527832 30.12773438 -422.64697266 29.32421875 C-421.91584176 26.69766548 -420.9266958 24.95307039 -418.94412112 23.06736243 C-414.23789545 20.48354787 -408.26163824 21.38363427 -403.03213501 21.46842957 C-401.5748175 21.47357634 -400.1174906 21.47647496 -398.66016424 21.47731858 C-394.65323526 21.48586592 -390.64711273 21.52539683 -386.64044142 21.56967366 C-382.31808233 21.61182061 -377.99563252 21.62477107 -373.67311096 21.64059448 C-366.17462526 21.67135319 -358.67639096 21.71859837 -351.17805862 21.77519798 C-339.28765373 21.86336932 -327.39736315 21.89833367 -315.50668335 21.92463684 C-311.43130625 21.9342875 -307.35592996 21.94425402 -303.28055382 21.95429707 C-301.75241854 21.95803679 -301.75241854 21.95803679 -300.19341183 21.96185207 C-288.59017356 21.99090068 -276.98697853 22.03016905 -265.38378906 22.07446289 C-263.79292943 22.08051368 -263.79292943 22.08051368 -262.16993122 22.08668671 C-245.06974354 22.15315419 -227.97002227 22.26176862 -210.87014003 22.38196179 C-193.26305238 22.50422034 -175.65644001 22.56367625 -158.04893053 22.5710972 C-148.18377288 22.5773038 -138.32056332 22.61299812 -128.45598221 22.72405052 C-73.41935202 24.64453633 -73.41935202 24.64453633 -22.30717087 6.88428688 C-7.5279181 -1.53630982 -7.5279181 -1.53630982 0 0 Z " fill="#AADD92" transform="translate(462,25)"/>
<path d="M0 0 C10.6529266 8.18456556 18.33345041 18.80622281 21.5625 31.96875 C21.97280754 35.23249922 22.04063694 38.43195771 22 41.71875 C21.99170166 42.59273438 21.98340332 43.46671875 21.97485352 44.3671875 C21.62284948 57.9562972 16.64756923 70.72982054 7.3125 80.78125 C-4.06869403 91.13007909 -17.89244746 96.78075032 -33.22753906 96.49023438 C-46.95344563 95.79859456 -58.15929571 89.85054739 -68.4375 80.96875 C-73.90216673 74.60098488 -78.7598164 67.97221314 -81.4375 59.96875 C-81.66050781 59.32292969 -81.88351563 58.67710937 -82.11328125 58.01171875 C-86.26600487 43.2370626 -83.3717132 28.88706757 -76.1875 15.71875 C-69.15464812 4.32374949 -57.72647526 -5.31838119 -44.484375 -8.62890625 C-28.44749731 -10.74659651 -13.61734275 -9.34213049 0 0 Z " fill="#8A7E88" transform="translate(141.4375,401.03125)"/>
<path d="M0 0 C4.17523623 4.22344631 6.16063808 8.17023121 7.9296875 13.77734375 C8.16914093 14.50691788 8.40859436 15.236492 8.65530396 15.98817444 C9.15431373 17.52140353 9.64640294 19.05690087 10.13183594 20.59448242 C10.87401046 22.93438022 11.64627708 25.26279414 12.421875 27.59179688 C12.90548566 29.09055342 13.38731744 30.58988536 13.8671875 32.08984375 C14.09727509 32.77860092 14.32736267 33.46735809 14.56442261 34.17698669 C15.99290973 38.80049211 16.09314926 42.29299764 15 47 C13.5 49 13.5 49 11 50 C7.94789985 49.93159086 5.00321536 49.53262153 2 49 C2 49.66 2 50.32 2 51 C3.87703613 51.029729 3.87703613 51.029729 5.79199219 51.06005859 C10.436402 51.13615293 15.08050008 51.22486463 19.72460938 51.31738281 C21.73431238 51.35565669 23.74408351 51.39051236 25.75390625 51.421875 C28.6434768 51.46755991 31.53257896 51.52554887 34.421875 51.5859375 C35.31992859 51.59748871 36.21798218 51.60903992 37.14324951 51.62094116 C37.98381897 51.64081085 38.82438843 51.66068054 39.69042969 51.68115234 C40.79629425 51.70113785 40.79629425 51.70113785 41.92449951 51.7215271 C44.35247242 52.04729173 45.92851043 52.69662337 48 54 C50.01599025 57.02398538 50.25391755 57.63160502 50.29052734 61.02490234 C50.30328705 61.82938812 50.31604675 62.6338739 50.32919312 63.46273804 C50.33141876 64.32839386 50.33364441 65.19404968 50.3359375 66.0859375 C50.3459227 67.42683945 50.3459227 67.42683945 50.35610962 68.79483032 C50.36623469 70.68611595 50.37092668 72.5774373 50.37060547 74.46875 C50.37497335 77.35737266 50.41127895 80.24446076 50.44921875 83.1328125 C50.45508806 84.97134895 50.45905669 86.80989265 50.4609375 88.6484375 C50.47530853 89.51004486 50.48967957 90.37165222 50.50448608 91.2593689 C50.47329895 95.36877163 50.33566417 97.46719016 48.09619141 101.02197266 C44.43353706 104.47816011 41.31179695 104.15938224 36.50854492 104.17700195 C35.34972557 104.18685875 35.34972557 104.18685875 34.16749573 104.19691467 C31.60515246 104.21666139 29.04286784 104.2283133 26.48046875 104.23828125 C25.60593866 104.24235678 24.73140858 104.2464323 23.83037758 104.25063133 C19.20161804 104.27149796 14.57288821 104.28579709 9.9440918 104.29516602 C5.16223358 104.30623161 0.38084057 104.34063135 -4.40085316 104.38033772 C-8.07688769 104.40647924 -11.75281097 104.41485565 -15.42893028 104.41844749 C-17.19158762 104.42331987 -18.95423978 104.43495238 -20.71680641 104.45348549 C-23.18503326 104.47782511 -25.65205129 104.4769218 -28.12036133 104.4699707 C-28.84730194 104.48278076 -29.57424255 104.49559082 -30.32321167 104.50878906 C-35.16948587 104.45909052 -37.59014881 103.42186205 -41 100 C-42.6340332 97.65673828 -42.6340332 97.65673828 -44.05078125 95.0703125 C-44.58098877 94.11640625 -45.11119629 93.1625 -45.6574707 92.1796875 C-46.20363037 91.17164063 -46.74979004 90.16359375 -47.3125 89.125 C-48.45760831 87.04387174 -49.60344024 84.96314147 -50.75 82.8828125 C-51.30300781 81.87379883 -51.85601562 80.86478516 -52.42578125 79.82519531 C-53.78180245 77.3915915 -55.17805976 74.99738152 -56.625 72.6171875 C-57.00100342 71.99312012 -57.37700684 71.36905273 -57.7644043 70.72607422 C-58.73678452 69.12469333 -59.72140383 67.53076164 -60.70703125 65.9375 C-62.30387241 62.30963127 -62.29553023 59.94760691 -62 56 C-60.68652344 52.91381836 -60.68652344 52.91381836 -58.859375 49.83984375 C-58.20066406 48.71642578 -57.54195313 47.59300781 -56.86328125 46.43554688 C-56.15905629 45.26940916 -55.45462763 44.10339445 -54.75 42.9375 C-54.05984056 41.76837834 -53.37102619 40.59846156 -52.68359375 39.42773438 C-49.58412654 34.18873203 -46.40460006 29.04446051 -43 24 C-44.20381448 21.50638429 -45.45428722 19.31856917 -47 17 C-46.85272423 13.5390195 -46.49192675 11.60483258 -44.28955078 8.89697266 C-41.62650931 6.69054994 -39.87419721 6.20347266 -36.4921875 5.5859375 C-35.42226562 5.38226563 -34.35234375 5.17859375 -33.25 4.96875 C-32.13625 4.7728125 -31.0225 4.576875 -29.875 4.375 C-28.78445312 4.17132813 -27.69390625 3.96765625 -26.5703125 3.7578125 C-24.41120173 3.35491623 -22.25096542 2.95800098 -20.08959961 2.56738281 C-16.4186245 1.89323456 -12.7624452 1.15697789 -9.10717773 0.40283203 C-5.87234294 -0.21557573 -3.27020158 -0.5129728 0 0 Z " fill="#020301" transform="translate(176,239)"/>
<path d="M0 0 C5.5305492 4.32866414 8.43699971 10.58880078 11.8125 16.625 C13.14041361 18.96442066 14.46978719 21.30296075 15.80078125 23.640625 C16.14227203 24.24220428 16.48376282 24.84378357 16.83560181 25.46359253 C20.63831287 32.15137909 24.56421557 38.76494101 28.5 45.375 C30.39231696 48.55507491 32.28436426 51.73494981 34.16015625 54.92480469 C35.42560934 57.03993833 36.7274349 59.13359755 38.05859375 61.20800781 C38.70957031 62.24538086 39.36054688 63.28275391 40.03125 64.3515625 C40.62486328 65.27018066 41.21847656 66.18879883 41.83007812 67.13525391 C43.37303167 70.91342938 42.98103422 73.06553645 42 77 C40.62060547 80.09863281 40.62060547 80.09863281 38.8671875 83.203125 C38.22523438 84.34910156 37.58328125 85.49507813 36.921875 86.67578125 C36.58478516 87.26439941 36.24769531 87.85301758 35.90039062 88.45947266 C34.88868706 90.22609978 33.89217344 92.00055967 32.8984375 93.77734375 C21.54513291 113.96991139 21.54513291 113.96991139 17 117 C15.0827179 117.24050903 15.0827179 117.24050903 12.89575195 117.22705078 C12.07512772 117.22689972 11.25450348 117.22674866 10.40901184 117.22659302 C9.0870002 117.21110916 9.0870002 117.21110916 7.73828125 117.1953125 C6.83248825 117.1924826 5.92669525 117.18965271 4.99345398 117.18673706 C2.09966842 117.17553964 -0.79380794 117.15043589 -3.6875 117.125 C-5.64908407 117.11496963 -7.610673 117.10584388 -9.57226562 117.09765625 C-14.3816296 117.07560173 -19.19076237 117.04107489 -24 117 C-24.13019531 117.77730469 -24.26039063 118.55460937 -24.39453125 119.35546875 C-25.17062459 122.74524417 -26.20175136 123.95803478 -29 126 C-31.9375 126.5625 -31.9375 126.5625 -35 126 C-36.76376148 124.37941087 -38.37672912 122.75313255 -40 121 C-40.52811279 120.44304443 -41.05622559 119.88608887 -41.6003418 119.31225586 C-63.9934274 95.65532901 -63.9934274 95.65532901 -64.0078125 89.84375 C-62.6158651 84.53492735 -59.70844421 81.85570767 -55.875 78.0625 C-54.55856889 76.72135329 -53.24346086 75.37890658 -51.9296875 74.03515625 C-51.2792749 73.37539795 -50.6288623 72.71563965 -49.95874023 72.03588867 C-45.97999527 67.90043382 -42.23646308 63.5706423 -38.6875 59.0625 C-36.52466943 56.41904042 -35.57409191 56.07654559 -32.1875 55.625 C-29 56 -29 56 -26.125 58.25 C-24 61 -24 61 -24 65 C-23.01 65 -22.02 65 -21 65 C-22.24575896 62.74756713 -23.49611041 60.49790707 -24.75 58.25 C-25.14179443 57.54496338 -25.53358887 56.83992676 -25.93725586 56.11352539 C-28.28749534 51.92274239 -30.72061204 47.80380754 -33.26953125 43.73046875 C-33.81577148 42.85036133 -34.36201172 41.97025391 -34.92480469 41.06347656 C-35.99975257 39.33984219 -37.08729639 37.6239868 -38.18847656 35.91699219 C-40.4142225 32.33179128 -41.9032502 29.4279491 -42.83984375 25.28515625 C-41.53860006 20.19517511 -38.35423456 18.63469079 -34 16 C-33.05560059 15.42314453 -32.11120117 14.84628906 -31.13818359 14.25195312 C-28.00748833 12.38201753 -24.85316191 10.56004533 -21.6875 8.75 C-19.54516146 7.51633926 -17.40321587 6.28199578 -15.26171875 5.046875 C-14.32287842 4.50901367 -13.38403809 3.97115234 -12.41674805 3.41699219 C-5.46415224 -0.65946665 -5.46415224 -0.65946665 0 0 Z " fill="#020201" transform="translate(295,226)"/>
<path d="M0 0 C0.94463104 -0.0159874 1.88926208 -0.03197479 2.86251831 -0.04844666 C4.39067673 -0.05649071 4.39067673 -0.05649071 5.94970703 -0.06469727 C6.99901398 -0.07372574 8.04832092 -0.08275421 9.12942505 -0.09205627 C11.35025169 -0.10656993 13.57112119 -0.11544827 15.79199219 -0.11914062 C19.18774577 -0.13103426 22.58168097 -0.18020855 25.97705078 -0.23071289 C28.13459399 -0.24017729 30.29214837 -0.24741224 32.44970703 -0.25219727 C33.46443085 -0.27172958 34.47915466 -0.2912619 35.52462769 -0.31138611 C42.55828502 -0.26643178 42.55828502 -0.26643178 46.31323242 2.51171875 C48.21962932 5.1501573 49.95068528 7.73056921 51.52392578 10.57983398 C52.07628906 11.56983398 52.62865234 12.55983398 53.19775391 13.57983398 C53.75785156 14.60334961 54.31794922 15.62686523 54.89501953 16.68139648 C55.45898438 17.69717773 56.02294922 18.71295898 56.60400391 19.75952148 C57.69487369 21.72436296 58.78180282 23.69139887 59.86425781 25.66088867 C61.12367747 27.93010573 62.41859943 30.17152652 63.73486328 32.40795898 C65.33251953 35.30639648 65.33251953 35.30639648 65.33251953 37.30639648 C66.32251953 36.97639648 67.31251953 36.64639648 68.33251953 36.30639648 C74.49251953 35.74639648 74.49251953 35.74639648 77.77001953 37.93139648 C79.81568625 41.0408099 79.60935101 42.60138315 79.33251953 46.30639648 C78.59553757 49.05665756 77.80516598 51.68740696 76.88330078 54.37280273 C76.62880661 55.12931625 76.37431244 55.88582977 76.11210632 56.66526794 C75.57286035 58.25777894 75.02880507 59.84866863 74.48022461 61.43798828 C73.64833654 63.85924215 72.84232082 66.28810913 72.03759766 68.71850586 C71.50855324 70.27046895 70.97800364 71.82191991 70.44580078 73.37280273 C70.09078239 74.45423302 70.09078239 74.45423302 69.72859192 75.55751038 C68.10658343 80.1623093 66.26911636 83.19903474 62.33251953 86.30639648 C59.01912377 86.32359999 56.54268835 85.97932969 53.33251953 85.30639648 C51.47506104 84.96294189 51.47506104 84.96294189 49.58007812 84.61254883 C45.96847138 83.93914773 42.37055851 83.21007721 38.77416992 82.45996094 C36.51039078 81.99190566 34.24305063 81.54474156 31.97509766 81.09741211 C30.52496211 80.79726091 29.07508202 80.49587226 27.62548828 80.19311523 C26.61605415 79.99911385 26.61605415 79.99911385 25.58622742 79.80119324 C21.39104754 78.89339029 18.93104013 77.76505036 16.33251953 74.30639648 C15.70498146 69.99207228 15.78345641 68.07851651 18.33251953 64.49389648 C19.32251953 63.41108398 19.32251953 63.41108398 20.33251953 62.30639648 C20.33251953 61.64639648 20.33251953 60.98639648 20.33251953 60.30639648 C19.67251953 60.30639648 19.01251953 60.30639648 18.33251953 60.30639648 C18.07510986 61.16160889 17.8177002 62.01682129 17.55249023 62.89794922 C15.57480234 68.4233646 12.53242327 73.37310989 9.62036133 78.44726562 C8.52418704 80.36161837 7.44263005 82.28372997 6.36181641 84.20678711 C5.65891423 85.43970759 4.9551658 86.67214609 4.25048828 87.90405273 C3.61908936 89.01272705 2.98769043 90.12140137 2.3371582 91.26367188 C0.22779998 94.46534421 -1.6661815 96.91020486 -4.66748047 99.30639648 C-9.418501 100.09568083 -12.30618687 98.79971225 -16.40576172 96.45483398 C-17.47375 95.85026367 -18.54173828 95.24569336 -19.64208984 94.62280273 C-20.74359375 93.98213867 -21.84509766 93.34147461 -22.97998047 92.68139648 C-24.06988281 92.06393555 -25.15978516 91.44647461 -26.28271484 90.81030273 C-42.33161967 81.64225728 -42.33161967 81.64225728 -46.66748047 77.30639648 C-47.64284403 70.58242999 -44.9754254 66.51416156 -41.60498047 60.99389648 C-40.49924514 59.12296026 -39.39378936 57.2518588 -38.28857422 55.38061523 C-37.40468018 53.90214111 -37.40468018 53.90214111 -36.50292969 52.39379883 C-33.33445172 47.06411375 -30.25834911 41.68131883 -27.16748047 36.30639648 C-25.90190498 34.11886784 -24.63628025 31.93136768 -23.37060547 29.74389648 C-20.93786982 25.52918833 -18.53229981 21.30084978 -16.15185547 17.05639648 C-15.60464844 16.08444336 -15.05744141 15.11249023 -14.49365234 14.11108398 C-13.46816173 12.28629523 -12.44831749 10.45831795 -11.43505859 8.62670898 C-10.98066406 7.81975586 -10.52626953 7.01280273 -10.05810547 6.18139648 C-9.66655273 5.47756836 -9.275 4.77374023 -8.87158203 4.04858398 C-6.43837465 0.52803089 -4.00472317 0.05127665 0 0 Z " fill="#020201" transform="translate(205.66748046875,147.693603515625)"/>
<path d="M0 0 C2 2 2 2 2.375 4.8125 C1.89922873 8.85655584 0.8371979 10.09580606 -2 13 C-4.60047974 14.34383089 -7.03194478 15.44732155 -9.74609375 16.48828125 C-10.50562851 16.79290787 -11.26516327 17.09753448 -12.04771423 17.41139221 C-14.50551672 18.39288924 -16.97097694 19.35315383 -19.4375 20.3125 C-21.12558049 20.98022744 -22.81324284 21.64901296 -24.50048828 22.31884766 C-28.59927098 23.94177778 -32.70470773 25.54699873 -36.81280518 27.1461792 C-39.83686204 28.32668796 -42.85370616 29.52522154 -45.87109375 30.72265625 C-47.70507233 31.44178154 -49.53963915 32.1594099 -51.375 32.875 C-52.17349365 33.18993408 -52.9719873 33.50486816 -53.79467773 33.8293457 C-54.53016846 34.1099585 -55.26565918 34.39057129 -56.0234375 34.6796875 C-56.63106934 34.91413574 -57.23870117 35.14858398 -57.86474609 35.39013672 C-63.50274664 37.00044147 -69.25218104 37.14614177 -75.07495117 37.1418457 C-75.84983383 37.14532013 -76.62471649 37.14879456 -77.42308044 37.15237427 C-79.09322085 37.15968457 -80.76337067 37.1650549 -82.43352318 37.16866493 C-85.07744978 37.17587528 -87.72119559 37.19157185 -90.36506653 37.21000671 C-97.87771264 37.26228915 -105.39025163 37.31050726 -112.90307617 37.32592773 C-117.50843507 37.33599745 -122.113326 37.36528241 -126.71850014 37.40724754 C-128.47075173 37.41956309 -130.22306932 37.42467778 -131.97536278 37.42244911 C-134.42183071 37.42010112 -136.86694701 37.44221766 -139.31323242 37.4699707 C-140.39725342 37.46006859 -140.39725342 37.46006859 -141.50317383 37.44996643 C-144.88406442 37.51301928 -146.69689773 37.76863875 -149.41792297 39.84562683 C-151.17108529 42.00218592 -151.17108529 42.00218592 -152 45 C-156.95 45 -161.9 45 -167 45 C-167.99 43.02 -168.98 41.04 -170 39 C-172.31037458 37.84481271 -173.61283947 37.87512558 -176.18332386 37.87530136 C-177.50662039 37.87171494 -177.50662039 37.87171494 -178.85665017 37.86805606 C-180.31941063 37.8717048 -180.31941063 37.8717048 -181.8117218 37.87542725 C-182.84304157 37.8740171 -183.87436134 37.87260695 -184.93693322 37.87115407 C-188.41540709 37.86748501 -191.8938406 37.87084448 -195.37231445 37.87402344 C-197.85707633 37.87262945 -200.34183798 37.87073064 -202.82659912 37.86836243 C-207.49304074 37.86444193 -212.15947614 37.86203272 -216.82591894 37.86194643 C-225.99588237 37.86174389 -235.1657928 37.8492949 -244.33573914 37.83233643 C-245.77855643 37.82973059 -247.22137374 37.82713178 -248.66419107 37.8245399 C-250.85097978 37.82060139 -253.03776849 37.81665488 -255.22455714 37.81267868 C-263.47286348 37.79772658 -271.72117144 37.78410506 -279.96948242 37.77197266 C-280.7236654 37.7708591 -281.47784839 37.76974553 -282.2548854 37.76859823 C-294.47635621 37.75102335 -306.69779392 37.74815407 -318.91927526 37.74982306 C-331.46142728 37.75110164 -344.00345593 37.73337799 -356.54556054 37.69880509 C-364.28455726 37.67813904 -372.02325873 37.67282963 -379.76227119 37.6871334 C-385.69210837 37.69658434 -391.62169101 37.68000064 -397.55148315 37.65364647 C-399.98595053 37.64698487 -402.42045843 37.64890836 -404.8549099 37.65994453 C-408.17292061 37.6737407 -411.48941094 37.65700774 -414.80732727 37.63250732 C-415.77580874 37.6438627 -416.74429021 37.65521808 -417.74211961 37.66691756 C-422.29152673 37.60137728 -424.36457108 37.46905406 -428.1175108 34.69874954 C-430.50685782 31.27336513 -430.40086385 29.08881124 -430 25 C-429.19835252 25.24334754 -429.19835252 25.24334754 -428.38051015 25.49161118 C-425.50482717 26.10575058 -422.85420856 26.12937957 -419.91183758 26.13422108 C-418.65561806 26.13867892 -417.39939855 26.14313676 -416.10511178 26.14772969 C-414.70839543 26.1476404 -413.31167909 26.14745055 -411.91496277 26.14717102 C-410.43314703 26.15047059 -408.95133218 26.15419636 -407.46951848 26.1583125 C-403.39154558 26.16833057 -399.31358739 26.17204901 -395.23560393 26.17470181 C-390.83929356 26.1786056 -386.44299483 26.18818409 -382.04669189 26.19691467 C-371.42453867 26.21668009 -360.80238449 26.22674677 -350.18021747 26.23564246 C-345.17576582 26.24002646 -340.17131522 26.24539309 -335.1668644 26.25063133 C-318.52557565 26.26764598 -301.88428756 26.28213849 -285.24299145 26.28938007 C-280.92411994 26.29128992 -276.60524844 26.29321026 -272.28637695 26.29516602 C-271.21296168 26.29564976 -270.13954641 26.2961335 -269.03360341 26.2966319 C-251.65870178 26.30492589 -234.28386914 26.33025109 -216.90899762 26.36274669 C-199.06251133 26.39585153 -181.21606005 26.41383205 -163.3695429 26.41702431 C-153.35279109 26.41918656 -143.33613979 26.42789313 -133.31941795 26.45348549 C-124.78530294 26.47523953 -116.25131284 26.48321993 -107.71717324 26.47351871 C-103.36694207 26.46898721 -99.01696837 26.47079273 -94.66677284 26.49028015 C-90.67463923 26.50800808 -86.68294908 26.506837 -82.69081012 26.49138286 C-81.25594276 26.48902124 -79.8210439 26.49325419 -78.38622441 26.50521151 C-64.23076983 26.61575428 -52.0824557 23.22591933 -39.0859375 17.7421875 C-38.1423941 17.35306183 -37.19885071 16.96393616 -36.22671509 16.5630188 C-33.27243655 15.34240086 -30.32367998 14.10907179 -27.375 12.875 C-25.36624479 12.0421015 -23.35713218 11.21006442 -21.34765625 10.37890625 C-16.91063718 8.54241575 -12.47611555 6.70017563 -8.04803467 4.84222412 C-6.36734475 4.15106513 -4.66753821 3.50656705 -2.96337891 2.87548828 C-0.81985917 2.16868772 -0.81985917 2.16868772 0 0 Z " fill="#97DA7B" transform="translate(470,40)"/>
<path d="M0 0 C5.28 0 10.56 0 16 0 C16.99 2.475 16.99 2.475 18 5 C21.09563977 7.06375985 21.85241983 7.26165825 25.37478638 7.34767151 C26.71829414 7.38749146 26.71829414 7.38749146 28.08894348 7.42811584 C29.07037827 7.44740646 30.05181305 7.46669708 31.06298828 7.48657227 C32.09972183 7.51451874 33.13645538 7.54246521 34.2046051 7.57125854 C37.65967475 7.66209473 41.11491248 7.73924619 44.5703125 7.81640625 C47.00131297 7.87758183 49.43229229 7.93960297 51.86325073 8.00242615 C58.30820286 8.16667889 64.75337992 8.31937934 71.19866943 8.46972656 C77.59095098 8.62076681 83.98295987 8.78248042 90.375 8.94335938 C108.01863892 9.38463982 125.66258105 9.81386483 143.30727577 10.21090412 C147.05061596 10.29538737 150.79390793 10.38190078 154.53719711 10.46861076 C156.99961707 10.52466728 159.4620917 10.57734734 161.92459106 10.629776 C169.36740596 10.79586271 176.80387758 11.03798982 184.23876953 11.42407227 C185.2758093 11.47160723 185.2758093 11.47160723 186.33379936 11.5201025 C195.92279823 12.06607408 203.96169494 15.44570446 211 22 C211 22.33 211 22.66 211 23 C113.65 23 16.3 23 -84 23 C-75.64597477 12.97516972 -64.88511568 7.80636386 -52 6 C-43.76557092 5.4529119 -35.49358183 5.75009001 -27.25 5.9375 C-23.95782742 6.00560562 -20.66607028 6.06740776 -17.37347412 6.11073303 C-15.33989363 6.13796046 -13.30644221 6.1795747 -11.27349854 6.23728943 C-10.36114441 6.25042679 -9.44879028 6.26356415 -8.50878906 6.27709961 C-7.70797913 6.29582626 -6.90716919 6.31455292 -6.08209229 6.33384705 C-3.43773649 5.90984549 -2.61214371 5.10242118 -1 3 C-0.67 2.01 -0.34 1.02 0 0 Z " fill="#67994B" transform="translate(164,9)"/>
<path d="M0 0 C2.41936317 -0.16249454 4.82781859 -0.28097817 7.25 -0.375 C7.93191406 -0.42527344 8.61382812 -0.47554688 9.31640625 -0.52734375 C11.328125 -0.5859375 11.328125 -0.5859375 15 0 C15.45697266 0.98548828 15.91394531 1.97097656 16.38476562 2.98632812 C18.64828252 6.20463408 18.64828252 6.20463408 21.67230225 6.57284546 C25.29730831 6.79335091 28.88389292 6.8302543 32.515625 6.8046875 C33.85514716 6.81594057 35.19464961 6.82982252 36.53411865 6.84622192 C40.0524477 6.88225221 43.56990772 6.88263496 47.08837891 6.87554932 C50.68147314 6.87463623 54.27424195 6.90749715 57.8671875 6.9375 C64.91156226 6.99135427 71.95538568 7.00442263 79 7 C79 11.62 79 16.24 79 21 C78.67 20.01 78.34 19.02 78 18 C-24.63 18 -127.26 18 -233 18 C-233.9681648 14.1273408 -234.07622858 10.96388638 -234 7 C-232.82348248 6.99853344 -231.64696495 6.99706688 -230.43479538 6.99555588 C-202.51797232 6.95986782 -174.60124929 6.90364687 -146.68452142 6.82207905 C-143.24980507 6.81206137 -139.81508825 6.80221728 -136.38037109 6.79248047 C-135.69656955 6.7905391 -135.01276801 6.78859772 -134.30824521 6.78659752 C-123.23055925 6.75556111 -112.15289401 6.73859231 -101.07517275 6.72680578 C-89.71168567 6.71440268 -78.34832669 6.6866223 -66.98490071 6.64538693 C-60.60082541 6.62270993 -54.21690572 6.60709306 -47.83278656 6.60811615 C-41.82783347 6.60885908 -35.8232252 6.59105643 -29.81836128 6.55883217 C-27.61085392 6.55029097 -25.40330806 6.54861163 -23.19579124 6.55419731 C-20.18836783 6.56079523 -17.18205514 6.54301749 -14.17474365 6.51898193 C-13.29536786 6.52674235 -12.41599206 6.53450277 -11.50996852 6.54249835 C-6.637204 6.49486272 -6.637204 6.49486272 -2.48907852 4.09256363 C-0.97535463 2.07921483 -0.97535463 2.07921483 0 0 Z " fill="#66974A" transform="translate(303,85)"/>
<path d="M0 0 C8.03463262 4.78113117 13.15370604 11.59037702 15.69140625 20.6015625 C16.93575442 30.64010206 15.45932061 39.02472516 9.62890625 47.2890625 C4.26728641 53.77288184 -3.02094848 58.06681338 -11.30859375 59.6015625 C-20.41587736 60.34806116 -28.40668735 58.11019481 -35.49609375 52.25 C-36.39328125 51.43402344 -36.39328125 51.43402344 -37.30859375 50.6015625 C-37.86546875 50.09882813 -38.42234375 49.59609375 -38.99609375 49.078125 C-44.70118303 43.23040848 -47.42008824 35.00750372 -47.74609375 26.9140625 C-47.22893092 17.94451961 -43.54792722 10.98488059 -37.30859375 4.6015625 C-25.94502707 -4.50485738 -13.42669557 -6.40047538 0 0 Z " fill="#030202" transform="translate(126.30859375,416.3984375)"/>
<path d="M0 0 C5.28 0 10.56 0 16 0 C16.99 2.475 16.99 2.475 18 5 C21.09563977 7.06375985 21.85241983 7.26165825 25.37478638 7.34767151 C26.71829414 7.38749146 26.71829414 7.38749146 28.08894348 7.42811584 C29.07037827 7.44740646 30.05181305 7.46669708 31.06298828 7.48657227 C32.09972183 7.51451874 33.13645538 7.54246521 34.2046051 7.57125854 C37.65967475 7.66209473 41.11491248 7.73924619 44.5703125 7.81640625 C47.00131297 7.87758183 49.43229229 7.93960297 51.86325073 8.00242615 C58.30820286 8.16667889 64.75337992 8.31937934 71.19866943 8.46972656 C77.59095098 8.62076681 83.98295987 8.78248042 90.375 8.94335938 C108.01863892 9.38463982 125.66258105 9.81386483 143.30727577 10.21090412 C147.05061596 10.29538737 150.79390793 10.38190078 154.53719711 10.46861076 C156.99961707 10.52466728 159.4620917 10.57734734 161.92459106 10.629776 C169.38856288 10.79606741 176.84837644 11.03388908 184.30517578 11.40454102 C185.00543821 11.43361259 185.70570065 11.46268415 186.42718315 11.49263668 C190.32793273 11.7076108 193.46774825 12.31566566 197 14 C197 14.33 197 14.66 197 15 C108.56 15 20.12 15 -71 15 C-69 11 -69 11 -66.1015625 9.76953125 C-64.95429687 9.45371094 -63.80703125 9.13789063 -62.625 8.8125 C-60.91183594 8.32716797 -60.91183594 8.32716797 -59.1640625 7.83203125 C-57.59785156 7.42017578 -57.59785156 7.42017578 -56 7 C-55.37400406 6.81919891 -54.74800812 6.63839783 -54.1030426 6.45211792 C-51.73130104 5.94223435 -49.61280115 5.9013382 -47.18725586 5.93408203 C-46.23624496 5.94384064 -45.28523407 5.95359924 -44.30540466 5.96365356 C-42.77557701 5.98551224 -42.77557701 5.98551224 -41.21484375 6.0078125 C-39.0540411 6.02532244 -36.89323352 6.04223132 -34.73242188 6.05859375 C-31.32627778 6.08961914 -27.92037893 6.12523201 -24.5144043 6.17138672 C-21.22701902 6.21360871 -17.9399254 6.23712905 -14.65234375 6.2578125 C-13.63043442 6.27643341 -12.60852509 6.29505432 -11.5556488 6.3142395 C-10.1338607 6.31942093 -10.1338607 6.31942093 -8.68334961 6.32470703 C-7.84936142 6.33438507 -7.01537323 6.34406311 -6.15611267 6.35403442 C-3.468453 5.9127198 -2.6331564 5.14429666 -1 3 C-0.67 2.01 -0.34 1.02 0 0 Z " fill="#6FA750" transform="translate(164,9)"/>
<path d="M0 0 C1.54221474 0.02997826 1.54221474 0.02997826 3.11558533 0.06056213 C4.27671341 0.08065842 5.43784149 0.1007547 6.63415527 0.12145996 C8.52943214 0.16201256 8.52943214 0.16201256 10.46299744 0.2033844 C12.39193092 0.23880089 12.39193092 0.23880089 14.35983276 0.27493286 C17.78435361 0.3378667 21.20872554 0.4069067 24.63310242 0.47718811 C28.12515969 0.54778785 31.61732284 0.61265476 35.10948181 0.67799377 C41.9657167 0.80712584 48.8218114 0.9427043 55.67784119 1.08229065 C50.21410655 17.74377779 50.21410655 17.74377779 43.67784119 23.08229065 C37.38937539 25.66358442 30.5140833 25.45036604 23.81944275 25.32081604 C20.67629457 25.26976553 17.56115147 25.36289675 14.42002869 25.47486877 C-0.91317771 25.71101116 -0.91317771 25.71101116 -5.98622131 21.54566956 C-8.52526826 18.99502006 -10.50733219 16.19429417 -12.32215881 13.08229065 C-10.80142547 9.90506645 -9.12063856 7.52193512 -6.75965881 4.89479065 C-6.13961975 4.19998596 -5.51958069 3.50518127 -4.88075256 2.7893219 C-2.41202295 0.08547518 -2.41202295 0.08547518 0 0 Z " fill="#F9E4C3" transform="translate(261.32215881347656,304.91770935058594)"/>
<path d="M0 0 C0.67756882 1.55780332 1.34159457 3.12150096 2 4.6875 C2.37125 5.55761719 2.7425 6.42773438 3.125 7.32421875 C4.43820596 11.34004949 4.63790611 13.73767824 2.70703125 17.55859375 C2.08183594 18.50863281 1.45664063 19.45867187 0.8125 20.4375 C0.07689806 21.58040746 -0.65596412 22.72508094 -1.38671875 23.87109375 C-1.79841309 24.5141748 -2.21010742 25.15725586 -2.63427734 25.81982422 C-5.35073685 30.15625314 -7.91091175 34.58681536 -10.5 39 C-12.66426282 42.66808886 -14.83210999 46.33405403 -17 50 C-17.44005371 50.74604492 -17.88010742 51.49208984 -18.33349609 52.26074219 C-19.4437206 54.13696334 -20.56334326 56.00710458 -21.6875 57.875 C-22.28949219 58.88304687 -22.89148438 59.89109375 -23.51171875 60.9296875 C-24.24841797 61.95449219 -24.24841797 61.95449219 -25 63 C-25.66 63 -26.32 63 -27 63 C-29.16505016 60.09526305 -30.87851174 56.88557965 -32.6875 53.75 C-33.21150391 52.87730469 -33.73550781 52.00460937 -34.27539062 51.10546875 C-34.76587891 50.26113281 -35.25636719 49.41679687 -35.76171875 48.546875 C-36.21506592 47.77182617 -36.66841309 46.99677734 -37.13549805 46.19824219 C-38.16494235 43.58058714 -38.00580783 42.58716125 -37 40 C-35.73224202 37.56555813 -34.43060972 35.18914658 -33.0625 32.8125 C-32.66861084 32.11922607 -32.27472168 31.42595215 -31.86889648 30.71166992 C-29.69583277 26.90251742 -27.48481152 23.11697284 -25.25 19.34375 C-24.80132568 18.58602295 -24.35265137 17.8282959 -23.89038086 17.04760742 C-23.02269873 15.58711286 -22.15127127 14.12883516 -21.27563477 12.6730957 C-19.57045452 9.81253793 -18.08839228 7.2599362 -17.01171875 4.09375 C-16 2 -16 2 -13.828125 1.07421875 C-12.97734375 0.94660156 -12.1265625 0.81898438 -11.25 0.6875 C-10.36054688 0.54957031 -9.47109375 0.41164063 -8.5546875 0.26953125 C-5.68278306 -0.03346784 -2.88503209 -0.15184379 0 0 Z " fill="#FBE5C4" transform="translate(168,256)"/>
<path d="M0 0 C21.94459637 -2.08819639 21.94459637 -2.08819639 27.94921875 2.015625 C29.59944148 4.78948253 30.82604267 7.53971911 31.95898438 10.55761719 C34.26753959 15.97384287 37.48972808 20.97554004 40.4375 26.0625 C41.6736614 28.23618798 42.90203108 30.41433294 44.12109375 32.59765625 C44.6514624 33.54133057 45.18183105 34.48500488 45.72827148 35.45727539 C47.56975619 39.13918424 48.26094589 40.98768731 47.22265625 45.015625 C46.64837891 46.61664063 46.64837891 46.61664063 46.0625 48.25 C45.68222656 49.32765625 45.30195313 50.4053125 44.91015625 51.515625 C44.60980469 52.33546875 44.30945313 53.1553125 44 54 C41.8074138 53.81106967 39.62879454 53.58580699 37.4453125 53.30859375 C35.40675386 53.05133156 33.35988866 52.86100751 31.3125 52.6875 C26.73343496 50.35476876 25.91381028 47.52481406 23.84765625 42.9296875 C21.62983453 38.04920143 18.92836825 33.45122374 16.25 28.8125 C15.73574463 27.91716553 15.22148926 27.02183105 14.69165039 26.09936523 C10.82846512 19.39101655 6.91369529 12.71293666 2.94628906 6.06567383 C0 1.10584354 0 1.10584354 0 0 Z " fill="#FCE6C5" transform="translate(217,163)"/>
<path d="M0 0 C1.13917374 0.00666183 1.13917374 0.00666183 2.30136108 0.01345825 C3.59247299 0.01368484 3.59247299 0.01368484 4.90966797 0.01391602 C5.83991791 0.02423859 6.77016785 0.03456116 7.72860718 0.04519653 C8.68020721 0.04802643 9.63180725 0.05085632 10.61224365 0.05377197 C13.6589706 0.06498914 16.70540621 0.09009641 19.75204468 0.11550903 C21.81454044 0.12553685 23.8770408 0.13466304 25.93954468 0.14285278 C31.00224789 0.16323404 36.06431923 0.20237972 41.12704468 0.24050903 C41.12704468 7.50050903 41.12704468 14.76050903 41.12704468 22.24050903 C22.64704468 22.24050903 4.16704468 22.24050903 -14.87295532 22.24050903 C-12.81675643 18.12811125 -10.61851484 14.1259492 -8.37295532 10.11550903 C-7.76774048 9.02302856 -7.76774048 9.02302856 -7.15029907 7.90847778 C-6.75971313 7.21109497 -6.3691272 6.51371216 -5.96670532 5.79519653 C-5.61285767 5.16081665 -5.25901001 4.52643677 -4.8944397 3.87283325 C-3.52630276 1.68656089 -2.64470854 0.33961103 0 0 Z " fill="#FFCA9C" transform="translate(169.87295532226563,305.7594909667969)"/>
<path d="M0 0 C0.66 0 1.32 0 2 0 C3.87774765 3.21599484 5.72283211 6.44959488 7.5625 9.6875 C8.09552734 10.59951172 8.62855469 11.51152344 9.17773438 12.45117188 C9.92700195 13.78051758 9.92700195 13.78051758 10.69140625 15.13671875 C11.15748291 15.94842529 11.62355957 16.76013184 12.10375977 17.59643555 C13.23615782 20.63333526 13.01792086 21.93356024 12 25 C10.90518097 27.18197468 9.73157483 29.32514398 8.5078125 31.4375 C8.16120575 32.04005615 7.814599 32.6426123 7.45748901 33.26342773 C6.35319953 35.17948585 5.23924944 37.08972034 4.125 39 C3.38347977 40.28348762 2.64258798 41.56733853 1.90234375 42.8515625 C-1.02664855 47.92426673 -3.97472634 52.98395382 -7 58 C-11.76551013 56.62394084 -15.7248553 54.53221934 -19.875 51.875 C-20.46796875 51.50246094 -21.0609375 51.12992188 -21.671875 50.74609375 C-23.1181343 49.83635 -24.55958046 48.91896202 -26 48 C-24.56919548 44.19250164 -22.82346663 40.71705461 -20.83984375 37.16796875 C-19.90217163 35.48537964 -19.90217163 35.48537964 -18.94555664 33.76879883 C-18.27628809 32.57498564 -17.60693442 31.38122018 -16.9375 30.1875 C-16.25814239 28.97108114 -15.57902543 27.75452786 -14.90014648 26.5378418 C-12.93759463 23.02288541 -10.96940278 19.51112259 -9 16 C-8.47696289 15.06704102 -7.95392578 14.13408203 -7.41503906 13.17285156 C-4.94997093 8.77815341 -2.47895602 4.3868788 0 0 Z " fill="#FBC89A" transform="translate(203,171)"/>
<path d="M0 0 C1.74243164 2.39233398 1.74243164 2.39233398 3.66015625 5.74609375 C4.00667236 6.34456619 4.35318848 6.94303864 4.71020508 7.55964661 C5.83816448 9.51308468 6.95031674 11.4750444 8.0625 13.4375 C8.82825532 14.77048375 9.59510243 16.1028409 10.36303711 17.43457031 C11.88223301 20.07134326 13.39619228 22.71101143 14.90625 25.35302734 C17.97805237 30.71771076 21.14176466 36.02767158 24.30688477 41.33764648 C27 45.89132949 27 45.89132949 27 47 C18.77550435 48.24035317 10.09172355 49.39121824 2 47 C-3.54727272 42.69292151 -6.09673939 35.96179266 -8.79443359 29.66015625 C-10.59860466 25.67914208 -12.94014633 22.09795316 -15.3125 18.4375 C-16.67588847 16.31266243 -17.85817828 14.26209962 -19 12 C-17.56770819 7.70312456 -14.35400238 6.48544098 -10.625 4.3125 C-9.93921875 3.89677734 -9.2534375 3.48105469 -8.546875 3.05273438 C-3.39381927 0 -3.39381927 0 0 0 Z " fill="#FBC79A" transform="translate(290,244)"/>
<path d="M0 0 C0.639375 0.639375 1.27875 1.27875 1.9375 1.9375 C2.63359375 2.62199219 2.63359375 2.62199219 3.34375 3.3203125 C4.54160659 4.53511989 5.70432904 5.78490906 6.84375 7.0546875 C14.90565961 15.74831391 25.39052454 22.20726336 37 25 C37.7321875 25.18046875 38.464375 25.3609375 39.21875 25.546875 C55.28935498 28.16511963 71.46841892 25.22423095 85 16 C88.50122138 13.16090071 91.77906812 10.15141536 95 7 C95.85851562 6.1646875 95.85851562 6.1646875 96.734375 5.3125 C97.83693365 4.22232965 98.92173635 3.11420577 100 2 C98.48166647 12.62833468 90.91008225 21.48915907 82.640625 27.80078125 C70.20012429 36.39503248 56.91998785 39.79010628 42 38 C26.78054029 35.17542778 15.09365741 26.37596767 6.09375 14.12109375 C0 5.03731343 0 5.03731343 0 0 Z " fill="#786E76" transform="translate(60,459)"/>
<path d="M0 0 C4.39587417 2.60496247 7.12113101 5.3963527 9.375 10 C10.29900309 14.48368712 9.74782845 17.97962739 8.1875 22.25 C5.51202741 26.30933772 3.05963155 29.43845615 -1.625 31 C-6.45643408 31.55801651 -11.39634947 32.08904389 -15.86328125 29.90625 C-20.93751579 25.82078493 -23.12077094 21.02537434 -24.1875 14.625 C-23.38178843 9.43263653 -21.04614216 5.93117482 -17.625 2 C-11.97351887 -2.05432342 -6.42146064 -1.77143742 0 0 Z " fill="#FBBF63" transform="translate(117.625,429)"/>
<path d="M0 0 C0.2371875 0.60328125 0.474375 1.2065625 0.71875 1.828125 C3.16138138 5.96868306 7.61772554 7.43446172 12 9 C19.932979 10.56424938 26.073731 7.6869873 33 4 C32.87294721 10.09853407 30.84575499 12.9274445 26.7890625 17.3984375 C22.91449761 20.86693445 17.95693405 20.45401206 13.01953125 20.40625 C9.04588393 19.87163251 7.08030474 18.624902 4.3359375 15.7734375 C0.51721741 10.70414241 -0.38259333 6.24902438 0 0 Z " fill="#F8B03F" transform="translate(94,440)"/>
<path d="M0 0 C1.21816406 0.03480469 1.21816406 0.03480469 2.4609375 0.0703125 C3.68683594 0.09738281 3.68683594 0.09738281 4.9375 0.125 C5.87722656 0.15980469 5.87722656 0.15980469 6.8359375 0.1953125 C6.13335902 1.65642704 5.42341154 3.11399764 4.7109375 4.5703125 C4.31648438 5.38242187 3.92203125 6.19453125 3.515625 7.03125 C1.1336023 11.51831601 -1.5503535 15.83913083 -4.1640625 20.1953125 C17.6159375 20.6903125 17.6159375 20.6903125 39.8359375 21.1953125 C39.8359375 14.2653125 39.8359375 7.3353125 39.8359375 0.1953125 C40.1659375 0.1953125 40.4959375 0.1953125 40.8359375 0.1953125 C40.8359375 7.4553125 40.8359375 14.7153125 40.8359375 22.1953125 C22.3559375 22.1953125 3.8759375 22.1953125 -15.1640625 22.1953125 C-13.10786361 18.08291472 -10.90962202 14.08075267 -8.6640625 10.0703125 C-8.05884766 8.97783203 -8.05884766 8.97783203 -7.44140625 7.86328125 C-7.05082031 7.16589844 -6.66023437 6.46851563 -6.2578125 5.75 C-5.90396484 5.11562012 -5.55011719 4.48124023 -5.18554688 3.82763672 C-3.69549003 1.44653728 -2.87670277 0.25963021 0 0 Z " fill="#DDA472" transform="translate(170.1640625,305.8046875)"/>
<path d="M0 0 C2.12942822 2.55531386 3.64876136 5.18673797 5.109375 8.15625 C5.46483398 8.87619141 5.82029297 9.59613281 6.18652344 10.33789062 C6.58919434 11.16063477 6.58919434 11.16063477 7 12 C2.95986485 12.29146369 -1.07757429 12.46829657 -5.125 12.625 C-6.26710938 12.70878906 -7.40921875 12.79257812 -8.5859375 12.87890625 C-11.99631469 12.97804512 -14.71853443 12.95384878 -18 12 C-20.83792938 8.9939928 -22.48172519 5.82370742 -24 2 C-21.45017567 0.72508784 -19.83534576 0.97403384 -16.9921875 1.12109375 C-16.00605469 1.16943359 -15.01992188 1.21777344 -14.00390625 1.26757812 C-12.97136719 1.32365234 -11.93882812 1.37972656 -10.875 1.4375 C-9.83472656 1.48970703 -8.79445313 1.54191406 -7.72265625 1.59570312 C-5.14814884 1.72560946 -2.57400704 1.86058252 0 2 C0 1.34 0 0.68 0 0 Z " fill="#FCB77C" transform="translate(310,279)"/>
<path d="M0 0 C0.66 0 1.32 0 2 0 C3.87774765 3.21599484 5.72283211 6.44959488 7.5625 9.6875 C8.09552734 10.59951172 8.62855469 11.51152344 9.17773438 12.45117188 C9.92700195 13.78051758 9.92700195 13.78051758 10.69140625 15.13671875 C11.15748291 15.94842529 11.62355957 16.76013184 12.10375977 17.59643555 C13.20374339 20.54640526 12.96723549 22.03293564 12 25 C9.9375 27.8125 9.9375 27.8125 8 30 C7.61328125 29.21496094 7.2265625 28.42992187 6.828125 27.62109375 C4.03316986 21.98275603 1.20173903 16.41832759 -2 11 C-2.99 11 -3.98 11 -5 11 C-3.55049545 7.2089881 -1.84827434 3.6125362 0 0 Z " fill="#F7B47B" transform="translate(203,171)"/>
<path d="M0 0 C0.66 0 1.32 0 2 0 C2.33 0.99 2.66 1.98 3 3 C2.0409375 3.8353125 2.0409375 3.8353125 1.0625 4.6875 C-1.19680987 7.22066561 -1.63149047 8.68341424 -2 12 C-2.99 11.67 -3.98 11.34 -5 11 C-3.55049545 7.2089881 -1.84827434 3.6125362 0 0 Z " fill="#5E8D44" transform="translate(224,208)"/>
<path d="M0 0 C2.31 0.33 4.62 0.66 7 1 C7 1.66 7 2.32 7 3 C4.36 3 1.72 3 -1 3 C-0.67 2.01 -0.34 1.02 0 0 Z " fill="#649749" transform="translate(178,288)"/>
</svg>
