<?xml version="1.0" encoding="UTF-8"?>
<svg version="1.1" xmlns="http://www.w3.org/2000/svg" width="512" height="512">
<path d="M0 0 C1.83598503 -0.00856522 1.83598503 -0.00856522 3.70906067 -0.01730347 C5.07286062 -0.01854888 6.43666068 -0.01967397 7.80046082 -0.02069092 C9.23104989 -0.02531823 10.66163773 -0.03034277 12.09222412 -0.03573608 C15.98487877 -0.0488713 19.87751617 -0.05530733 23.77018952 -0.05974674 C26.20147767 -0.06267592 28.63276109 -0.06678045 31.06404686 -0.07125092 C38.66890021 -0.08492937 46.27374277 -0.09459408 53.87860757 -0.09845281 C62.66101401 -0.1029333 71.4432648 -0.12047924 80.22562391 -0.1494534 C87.0112521 -0.17106383 93.79683648 -0.18115676 100.58249873 -0.18249393 C104.63648913 -0.1835425 108.69033328 -0.18946124 112.74428749 -0.20731354 C116.55855269 -0.22378305 120.37256153 -0.22595529 124.18684959 -0.21717453 C125.58607036 -0.21640352 126.98530485 -0.22075531 128.38449097 -0.23063278 C130.29624316 -0.24333605 132.20809817 -0.23568965 134.11987305 -0.22705078 C135.18932065 -0.22851734 136.25876825 -0.2299839 137.36062336 -0.2314949 C140.67858888 0.19555137 142.55538379 1.19392299 145.25041199 3.14044189 C150.94793931 10.94780257 153.95708612 21.89015178 157.60490417 30.8114624 C159.69897006 35.93214756 161.80599762 41.04750496 163.91056824 46.16387939 C164.3470871 47.22614746 164.78360596 48.28841553 165.23335266 49.38287354 C169.61388227 60.03861128 174.03488168 70.67733981 178.46751404 81.31149292 C179.74216304 84.37064447 181.01473341 87.43065442 182.28703308 90.49078369 C185.78216825 98.88900584 189.28736265 107.28039172 192.91838074 115.62091064 C193.44045105 116.82650635 193.96252136 118.03210205 194.50041199 119.27423096 C195.4126699 121.37081284 196.33471495 123.46318487 197.26994324 125.54962158 C199.62987262 130.97472415 201.40619358 136.14830303 201.25041199 142.14044189 C199.72828771 145.82558488 197.81458774 148.31018948 194.25041199 150.14044189 C186.68023855 151.01789382 181.58938292 148.35957954 174.93791199 144.95294189 C172.98400614 143.97923898 171.02958017 143.0065791 169.07463074 142.03497314 C168.21957947 141.60031738 167.3645282 141.16566162 166.48356628 140.71783447 C161.78631137 138.42613591 157.00842355 136.30317442 152.25041199 134.14044189 C146.31041199 146.02044189 140.37041199 157.90044189 134.25041199 170.14044189 C138.51205261 170.15462158 142.77369324 170.16880127 147.16447449 170.18341064 C150.57221023 170.20867234 153.97982169 170.23890223 157.38748169 170.27248383 C160.97940993 170.30652257 164.57091186 170.33189726 168.16300964 170.33599854 C171.62583402 170.34029137 175.08770248 170.36883267 178.55022812 170.41387367 C180.50762057 170.4330978 182.46520609 170.4275008 184.42268372 170.42149353 C194.35974099 170.5840484 194.35974099 170.5840484 198.04484558 173.43463135 C201.29826151 177.42595399 201.37522796 180.53927426 201.39085388 185.59231567 C201.39656403 186.69981171 201.40227417 187.80730774 201.40815735 188.94836426 C201.40983414 190.76409943 201.40983414 190.76409943 201.4115448 192.61651611 C201.4165097 193.89493378 201.42147461 195.17335144 201.42658997 196.49050903 C201.43968969 199.994695 201.44615398 203.49886183 201.45060062 207.00306845 C201.4535348 209.19349645 201.45764022 211.38391925 201.4621048 213.57434464 C201.47577229 220.43114887 201.48544305 227.28794119 201.48930669 234.14475811 C201.4937881 242.05382406 201.51134289 249.96271726 201.54030728 257.87173069 C201.56193399 263.98990477 201.57201147 270.10803028 201.57334781 276.22624218 C201.57439498 279.87838268 201.58028406 283.53036061 201.59816742 287.18246078 C201.61773188 291.25693987 201.61335523 295.33105774 201.6068573 299.40557861 C201.61607208 300.61202026 201.62528687 301.81846191 201.63478088 303.0614624 C201.58313272 313.38464997 201.58313272 313.38464997 198.25041199 318.14044189 C192.73833439 322.45112549 185.76527929 321.57174329 179.10197449 321.53887939 C177.81664825 321.54174957 176.53132202 321.54461975 175.20704651 321.5475769 C172.48522613 321.55199121 169.76370171 321.54560904 167.04191589 321.53155518 C163.6014133 321.5146317 160.16161515 321.52448062 156.721138 321.5418787 C132.38710378 321.64643554 111.39674785 320.25729758 91.25041199 305.14044189 C90.08058777 304.26645752 90.08058777 304.26645752 88.88713074 303.37481689 C81.62787498 297.44363102 76.54346398 289.7824373 71.25041199 282.14044189 C70.82034851 281.52169189 70.39028503 280.90294189 69.94718933 280.26544189 C67.7257469 277.06262913 65.52112365 273.84868666 63.32463074 270.62872314 C59.7101918 265.33722292 56.04059191 260.08435896 52.37541199 254.82794189 C46.9408768 247.02843064 41.54510909 239.20433643 36.18888855 231.35089111 C31.19312677 224.0355587 26.13501262 216.76413598 21.06437683 209.50054932 C18.06395794 205.19965838 15.07208203 200.89524103 12.14103699 196.54669189 C7.96605075 190.36128699 3.76404801 184.41093411 -1.12458801 178.76544189 C-9.0708741 169.46954848 -13.10339805 159.71133814 -13.12458801 147.45294189 C-13.16132629 146.36336182 -13.16132629 146.36336182 -13.19880676 145.25177002 C-13.26081952 133.35565603 -7.30454295 122.71930485 -1.99944115 112.40061951 C-0.86095205 110.18484552 0.26616127 107.96359849 1.39059448 105.74066162 C4.58476558 99.43117779 7.79997196 93.13247743 11.01921082 86.83575439 C12.9984504 82.96255732 14.96604641 79.08362234 16.92685509 75.20106506 C18.03621676 73.01372123 19.15916915 70.8337127 20.2824707 68.65350342 C20.95784432 67.31815202 21.6325006 65.9824375 22.30632019 64.64630127 C22.90048233 63.48336548 23.49464447 62.32042969 24.10681152 61.12225342 C25.40754578 58.33229563 25.40754578 58.33229563 25.14033508 55.96003723 C24.03982354 53.70985889 22.74280025 52.27993278 20.95573425 50.52105713 C20.26153885 49.83031601 19.56734344 49.13957489 18.85211182 48.42790222 C18.09796494 47.69237625 17.34381805 46.95685028 16.56681824 46.19903564 C15.79611496 45.43494888 15.02541168 44.67086212 14.23135376 43.88362122 C11.76551984 41.44121186 9.28976501 39.00917183 6.81291199 36.57794189 C4.34136874 34.141456 1.87196716 31.7028538 -0.59481812 29.2615509 C-2.1308352 27.74251303 -3.66992105 26.22657075 -5.21234131 24.71403503 C-5.90968887 24.02644608 -6.60703644 23.33885712 -7.32551575 22.63043213 C-7.93982956 22.02738754 -8.55414337 21.42434296 -9.18707275 20.80302429 C-12.9702829 16.77752851 -13.22911587 13.88263149 -13.14411926 8.58966064 C-12.54664513 4.88058853 -10.69430097 3.31392051 -7.74958801 1.14044189 C-5.06750329 -0.20060047 -3.00446992 0.00836576 0 0 Z " fill="#10B981" transform="translate(12.749588012695313,148.85955810546875)"/>
<path d="M0 0 C0.97882755 -0.00551503 0.97882755 -0.00551503 1.97742939 -0.01114148 C4.15651051 -0.02212386 6.33554385 -0.0260129 8.51464844 -0.02983093 C10.08048146 -0.03609989 11.64631301 -0.04274707 13.21214294 -0.04974365 C18.34942599 -0.07074173 23.48670918 -0.08114468 28.62402344 -0.09111023 C30.39718643 -0.09515991 32.17034928 -0.09927689 33.94351196 -0.10346031 C42.27879327 -0.12250565 50.61406579 -0.13673592 58.94936466 -0.14507228 C68.54671483 -0.15483106 78.14383354 -0.18111775 87.74110222 -0.22157317 C95.17404301 -0.25182139 102.6069178 -0.26654953 110.0399189 -0.26985329 C114.47198904 -0.27219458 118.90381174 -0.28103367 123.33581543 -0.30631447 C127.5121492 -0.32975202 131.68807536 -0.33376614 135.86445808 -0.32355309 C137.38771999 -0.32306134 138.91100304 -0.32927376 140.43420219 -0.34310913 C154.21493129 -0.46116088 166.0201441 2.03777508 177.37402344 10.14717102 C178.02016602 10.59955139 178.66630859 11.05193176 179.33203125 11.51802063 C187.37677822 17.94535213 192.5474565 26.72134216 198.10644531 35.24848938 C199.88593646 37.97794368 201.68290992 40.6952038 203.48339844 43.4108429 C204.625039 45.14129311 205.76570014 46.87238998 206.90527344 48.60420227 C207.44059692 49.41669937 207.97592041 50.22919647 208.52746582 51.0663147 C209.26458801 52.1984565 209.26458801 52.1984565 210.01660156 53.35346985 C210.44912231 54.01550919 210.88164307 54.67754852 211.32727051 55.35964966 C212.37402344 57.14717102 212.37402344 57.14717102 213.37402344 60.14717102 C214.36208984 59.63742737 215.35015625 59.12768372 216.36816406 58.60249329 C220.0594949 56.70224808 223.75892947 54.81826634 227.4609375 52.93891907 C229.05757139 52.12557916 230.65201872 51.30793118 232.24414062 50.48579407 C234.54213585 49.30012632 236.84772793 48.13052716 239.15527344 46.96357727 C240.20890076 46.41353783 240.20890076 46.41353783 241.28381348 45.85238647 C246.04469907 43.47035747 250.03759927 42.42004018 255.37402344 42.14717102 C259.04032857 43.69516652 261.58513314 45.56939043 263.37402344 49.14717102 C264.1130721 55.51874788 262.91416715 60.5222547 260.35839844 66.30732727 C259.87435799 67.45662216 259.87435799 67.45662216 259.38053894 68.62913513 C258.30971867 71.16250335 257.21683116 73.68571906 256.12402344 76.20967102 C255.35615564 78.01600822 254.58999953 79.82307388 253.82543945 81.6308136 C252.1968822 85.47740819 250.56060483 89.3205908 248.91943359 93.16181946 C245.07406446 102.18064607 241.33048182 111.24185574 237.57312012 120.29759216 C235.06873143 126.32648084 232.55076907 132.34970815 230.03482056 138.3737793 C227.62789398 144.13833773 225.22738902 149.90550588 222.83265686 155.67514038 C221.3627803 159.21317648 219.88766886 162.7490124 218.41116333 166.2842865 C217.72816441 167.92265992 217.04734152 169.56194243 216.36886597 171.20219421 C215.43895858 173.44937547 214.50121381 175.69312911 213.56152344 177.93623352 C213.16284813 178.9077964 213.16284813 178.9077964 212.75611877 179.89898682 C208.44708713 190.11063918 208.44708713 190.11063918 204.37402344 192.14717102 C196.7700173 192.70117026 189.50537825 191.73590774 182.046875 190.35884094 C180.97386642 190.16858841 179.90085785 189.97833588 178.79533386 189.78231812 C175.28332309 189.1569477 171.77399742 188.51776486 168.26464844 187.87763977 C165.80859902 187.43582652 163.35244073 186.9946181 160.8961792 186.5539856 C155.76444828 185.63116819 150.63400399 184.70157984 145.50439453 183.76704407 C140.24509524 182.80927195 134.98452489 181.8592279 129.72216797 180.91841125 C123.34734982 179.77865078 116.97408054 178.63064769 110.60204315 177.47544289 C108.1800246 177.03727507 105.75756629 176.60153072 103.33466339 176.16827965 C99.94942518 175.56160468 96.5663376 174.94409648 93.18359375 174.32368469 C92.1881102 174.14745575 91.19262665 173.97122681 90.16697693 173.78965759 C83.83271398 172.61247177 78.41591826 171.0971036 72.93652344 167.58467102 C70.81153643 164.26969129 70.84684328 161.55390258 70.74511719 157.68232727 C71.82119135 153.34461215 74.68155738 151.18886078 78.40454102 148.89741516 C80.76556209 147.5927007 83.15206885 146.36002325 85.56152344 145.14717102 C86.40706787 144.71291809 87.2526123 144.27866516 88.1237793 143.83125305 C89.78862731 142.97810048 91.45563668 142.12914965 93.125 141.28486633 C95.01270716 140.32994716 96.89344308 139.36126431 98.77246094 138.38935852 C105.09009487 135.14717102 105.09009487 135.14717102 107.37402344 135.14717102 C102.45125772 127.21698187 97.2381083 119.51787181 91.92480469 111.84638977 C89.70361861 108.63745466 87.52833429 105.40134081 85.37402344 102.14717102 C79.94439256 108.64675857 75.00291234 115.40819253 70.15039062 122.34223938 C66.43884835 127.64567992 62.67505212 132.90753092 58.87402344 138.14717102 C53.96596147 144.91586821 49.11937211 151.72482166 44.33105469 158.57881165 C36.3743908 169.92483655 36.3743908 169.92483655 32.37402344 171.14717102 C24.10162252 172.29422544 18.33569577 168.42340242 11.31152344 164.45967102 C10.05675606 163.76801176 8.80120949 163.07776437 7.54492188 162.38887024 C3.80775941 160.33211176 0.08829099 158.24493921 -3.62597656 156.14717102 C-4.62677246 155.58207825 -5.62756836 155.01698547 -6.65869141 154.43476868 C-10.31543503 152.36429831 -13.96988092 150.28995148 -17.6184082 148.20503235 C-26.54431449 143.12921564 -35.61686797 138.3440972 -44.69802856 133.55427551 C-54.59747226 128.32949175 -64.40902175 122.97983669 -74.12158203 117.41255188 C-79.11076137 114.5531679 -84.13205104 111.82905431 -89.25097656 109.20967102 C-93.90362388 106.70203548 -97.04820204 104.8253544 -99.62597656 100.14717102 C-100.21018172 93.89424985 -99.55435233 91.05751391 -95.62597656 85.95967102 C-95.18737305 85.37854553 -94.74876953 84.79742004 -94.296875 84.19868469 C-93.30775531 82.89369894 -92.30946408 81.59563083 -91.30371094 80.30342102 C-89.48212018 77.96228459 -87.68540871 75.60340709 -85.89160156 73.24092102 C-83.86747138 70.57673883 -81.84125635 67.9143266 -79.80712891 65.25776672 C-75.22149844 59.26866846 -70.71079247 53.23041399 -66.25097656 47.14717102 C-64.5557406 44.84308604 -62.85963848 42.53964217 -61.16308594 40.23652649 C-60.18833327 38.91156885 -59.21544755 37.58523403 -58.24511719 36.2570343 C-43.8462961 16.60297027 -25.95604429 0.09514924 0 0 Z " fill="#059669" transform="translate(184.6259765625,-0.1471710205078125)"/>
<path d="M0 0 C6.26778415 4.03981662 9.04904222 9.79426089 12.5 16.25 C13.73925608 18.51580402 14.97884875 20.78142397 16.21875 23.046875 C17.16041016 24.78227539 17.16041016 24.78227539 18.12109375 26.55273438 C21.03303319 31.89532596 24.01788867 37.19636631 27 42.5 C28.16184552 44.5740019 29.32330234 46.64822159 30.484375 48.72265625 C33.47365532 54.06077611 36.46456774 59.39797975 39.45605469 64.73486328 C41.21234328 67.87027343 42.96561007 71.00735978 44.71875 74.14453125 C46.80755419 77.88004203 48.91116566 81.60637956 51.03125 85.32421875 C51.49370117 86.14092041 51.95615234 86.95762207 52.43261719 87.79907227 C53.27628251 89.28861999 54.1253991 90.77510134 54.98144531 92.25756836 C60.99539346 102.92256341 61.77322999 115.40587966 59.3125 127.33203125 C58.38651229 130.02897045 57.3186993 132.47317556 56 135 C55.56429688 135.84691406 55.12859375 136.69382812 54.6796875 137.56640625 C51.71626661 142.86979609 48.1648355 147.16549954 44.05859375 151.61328125 C41.07140727 155.07660371 38.65608946 158.84103538 36.16796875 162.671875 C33.8321493 166.2576735 31.42885933 169.78943177 29 173.3125 C28.54488037 173.9737085 28.08976074 174.63491699 27.62084961 175.31616211 C23.51829515 181.26711262 19.38286627 187.19508423 15.25 193.125 C7.9891847 203.54445556 0.82547695 214.02780654 -6.31738281 224.52832031 C-10.07079248 230.0418896 -13.84038949 235.54391029 -17.63769531 241.02734375 C-18.5856809 242.40005406 -19.53007946 243.77524561 -20.47167969 245.15234375 C-35.22674751 266.72108772 -50.52061572 282.10561651 -77 288 C-84.00464119 289.1674402 -90.91103633 289.11528152 -98 289.0625 C-99.73443359 289.05573242 -99.73443359 289.05573242 -101.50390625 289.04882812 C-104.33599225 289.03712529 -107.16796811 289.02072996 -110 289 C-109.98428955 290.00377686 -109.9685791 291.00755371 -109.95239258 292.04174805 C-109.89794886 295.77831955 -109.86359774 299.51485621 -109.83520508 303.25170898 C-109.82015124 304.86667789 -109.79970352 306.48160613 -109.77368164 308.09643555 C-109.73714714 310.42246555 -109.72023985 312.74795341 -109.70703125 315.07421875 C-109.69154739 315.79212082 -109.67606354 316.51002289 -109.66011047 317.24967957 C-109.65829799 322.69150909 -111.12061893 325.59798206 -114.390625 329.77734375 C-117.21202936 331.9207893 -120.01716653 331.58696324 -123.44140625 331.47265625 C-127.81641104 330.66444926 -130.10719503 328.23110435 -133 325 C-133.82564453 324.09507812 -133.82564453 324.09507812 -134.66796875 323.171875 C-135.83191312 321.86143877 -136.98115744 320.53783296 -138.1171875 319.203125 C-140.20299677 316.76246851 -142.34585592 314.38051176 -144.5 312 C-147.76390848 308.38323655 -150.98790949 304.73610392 -154.1875 301.0625 C-156.27211164 298.69035571 -158.38428644 296.34443935 -160.5 294 C-163.76390848 290.38323655 -166.98790949 286.73610392 -170.1875 283.0625 C-173.0326929 279.8248667 -175.92853836 276.6331371 -178.81640625 273.43359375 C-180.70848685 271.32488854 -182.57905758 269.20080199 -184.4375 267.0625 C-187.24822525 263.83440488 -190.115799 260.66261557 -193 257.5 C-196.45160931 253.71520367 -199.86438231 249.90522405 -203.2109375 246.02734375 C-204.54400145 244.51673198 -205.90870063 243.03392407 -207.2890625 241.56640625 C-218.07321833 230.02700823 -218.07321833 230.02700823 -217.94140625 222.77734375 C-216.71395447 217.85225713 -214.36956083 214.73301451 -211.3125 210.75 C-210.44334961 209.58307617 -210.44334961 209.58307617 -209.55664062 208.39257812 C-208.33170263 206.74924025 -207.10127367 205.10998277 -205.86572266 203.47460938 C-202.87565614 199.50872162 -199.94179012 195.50174226 -197 191.5 C-195.8242414 189.90753536 -194.64846016 188.31508744 -193.47265625 186.72265625 C-187.92329644 179.19082908 -182.46468333 171.59334877 -177 164 C-169.80401042 154.00094692 -162.56981908 144.0336765 -155.24609375 134.12768555 C-151.14391923 128.57246679 -147.09385338 122.9817577 -143.0625 117.375 C-128.08018921 96.59840077 -128.08018921 96.59840077 -123.08984375 95.62890625 C-119.32413464 95.39662887 -117.40156932 95.7555665 -114.125 97.75 C-109.8848823 102.23953639 -109.72091341 106.02701368 -109.8046875 112.046875 C-109.80670166 112.73088379 -109.80871582 113.41489258 -109.81079102 114.11962891 C-109.82121761 116.66315462 -109.84914019 119.20658438 -109.875 121.75 C-109.91625 127.4425 -109.9575 133.135 -110 139 C-96.14 138.67 -82.28 138.34 -68 138 C-74.69272412 126.73663502 -81.48730368 115.5725853 -88.54833984 104.53710938 C-93.15295261 97.33962022 -97.71539454 90.11680812 -102.25 82.875 C-102.89428955 81.84922852 -103.5385791 80.82345703 -104.20239258 79.76660156 C-104.80075928 78.80979492 -105.39912598 77.85298828 -106.015625 76.8671875 C-106.80888184 75.60044189 -106.80888184 75.60044189 -107.61816406 74.30810547 C-110.45069036 69.57688575 -111.58627311 66.66730669 -111 61 C-107.91129724 54.70214369 -103.10241114 52.34949032 -97.0625 49.125 C-95.55187988 48.29524658 -95.55187988 48.29524658 -94.01074219 47.44873047 C-91.82634962 46.25020537 -89.63854109 45.05788978 -87.44775391 43.87109375 C-83.9492838 41.97247635 -80.46272526 40.05311494 -76.98046875 38.125 C-72.11391481 35.43158221 -67.24417546 32.74408959 -62.37109375 30.0625 C-55.17503262 26.1010386 -47.9921216 22.11616242 -40.8125 18.125 C-39.70100586 17.50753906 -38.58951172 16.89007813 -37.44433594 16.25390625 C-32.43147812 13.46815318 -27.42125067 10.67791869 -22.41796875 7.875 C-21.57838623 7.40562012 -20.73880371 6.93624023 -19.8737793 6.45263672 C-18.34406836 5.59708102 -16.815494 4.7394884 -15.28833008 3.87939453 C-9.95198157 0.8973747 -6.18366608 -0.6288474 0 0 Z " fill="#059669" transform="translate(452,181)"/>
<path d="M0 0 C8.14275076 3.60053605 14.45359505 11.42043514 20.625 17.6875 C30.31626299 27.84696855 30.31626299 27.84696855 43.20658016 32.24774647 C44.42569371 32.24678313 45.64480726 32.2458198 46.90086365 32.24482727 C47.58285562 32.24709184 48.26484759 32.24935642 48.96750599 32.25168961 C51.24592975 32.25697405 53.52408011 32.24816394 55.80249023 32.23950195 C57.4387928 32.24061516 59.07509495 32.24267347 60.71139526 32.24560547 C64.23194541 32.25032452 67.75242885 32.24921088 71.27297783 32.24382973 C76.84089337 32.23621912 82.40868041 32.24687616 87.97657776 32.2610321 C103.80836489 32.29877023 119.64009373 32.3169552 135.47192383 32.30541992 C144.21814111 32.29920434 152.96415095 32.31077885 161.71031719 32.34186524 C167.24424713 32.36052479 172.77758971 32.35719642 178.31150997 32.33769763 C181.75572609 32.33081485 185.19962382 32.34477476 188.64377975 32.36464691 C190.23930438 32.36969314 191.83488254 32.36621188 193.43036461 32.35351372 C195.61174452 32.33738827 197.79087349 32.3520611 199.97215271 32.3742218 C201.80138857 32.37447341 201.80138857 32.37447341 203.6675787 32.37473011 C208.18577397 33.2224895 209.81264676 34.70617403 213 38 C214.33294503 41.03414566 214.13026228 44.16003373 214.14044189 47.45187378 C214.14615204 48.55936981 214.15186218 49.66686584 214.15774536 50.80792236 C214.15942215 52.62365753 214.15942215 52.62365753 214.16113281 54.47607422 C214.16609772 55.75449188 214.17106262 57.03290955 214.17617798 58.35006714 C214.1892777 61.85425311 214.19574199 65.35841993 214.20018864 68.86262655 C214.20312281 71.05305455 214.20722823 73.24347736 214.21169281 75.43390274 C214.2253603 82.29070698 214.23503106 89.1474993 214.2388947 96.00431621 C214.24337612 103.91338217 214.2609309 111.82227536 214.2898953 119.73128879 C214.311522 125.84946288 214.32159948 131.96758839 214.32293582 138.08580029 C214.32398299 141.73794079 214.32987207 145.38991871 214.34775543 149.04201889 C214.36731989 153.11649797 214.36294324 157.19061585 214.35644531 161.26513672 C214.3656601 162.47157837 214.37487488 163.67802002 214.3843689 164.92102051 C214.33272074 175.24420807 214.33272074 175.24420807 211 180 C205.4879224 184.31068359 198.5148673 183.4313014 191.8515625 183.3984375 C190.56623627 183.40130768 189.28091003 183.40417786 187.95663452 183.40713501 C185.23481414 183.41154932 182.51328972 183.40516715 179.79150391 183.39111328 C176.35100132 183.3741898 172.91120316 183.38403873 169.47072601 183.40143681 C145.13669179 183.50599364 124.14633587 182.11685568 104 167 C103.22011719 166.41734375 102.44023438 165.8346875 101.63671875 165.234375 C94.37746299 159.30318912 89.29305199 151.6419954 84 144 C83.56993652 143.38125 83.13987305 142.7625 82.69677734 142.125 C80.47533491 138.92218723 78.27071167 135.70824477 76.07421875 132.48828125 C72.45977981 127.19678103 68.79017992 121.94391707 65.125 116.6875 C59.69046481 108.88798875 54.2946971 101.06389453 48.93847656 93.21044922 C43.94271478 85.89511681 38.88460064 78.62369409 33.81396484 71.36010742 C30.81354595 67.05921648 27.82167005 62.75479914 24.890625 58.40625 C20.71563876 52.22084509 16.51363603 46.27049222 11.625 40.625 C3.38838105 30.98946322 -0.39027372 21.2242188 -0.125 8.5625 C-0.11597656 7.73556641 -0.10695312 6.90863281 -0.09765625 6.05664062 C-0.07431512 4.03763292 -0.03845288 2.01877644 0 0 Z " fill="#059669" transform="translate(0,287)"/>
<path d="M0 0 C1.15905853 -0.01268417 2.31811707 -0.02536835 3.51229858 -0.03843689 C4.76845978 -0.03550125 6.02462097 -0.03256561 7.31884766 -0.02954102 C8.61553375 -0.03478287 9.91221985 -0.04002472 11.24819946 -0.04542542 C14.00052576 -0.05436922 16.75256228 -0.05192635 19.50488281 -0.04199219 C22.99582706 -0.03060824 26.48574372 -0.05054101 29.97655296 -0.07990932 C33.34069998 -0.10294297 36.70462427 -0.09578893 40.06884766 -0.09204102 C41.92272598 -0.10889198 41.92272598 -0.10889198 43.8140564 -0.12608337 C58.78169819 -0.00814867 71.36121858 4.60463377 82.23291016 14.99389648 C86.64690744 19.49755228 90.08739303 24.46219334 93.54541016 29.71655273 C94.85760795 31.67639052 96.17011342 33.63602235 97.48291016 35.59545898 C98.45744141 37.05943115 98.45744141 37.05943115 99.45166016 38.55297852 C102.27780138 42.77988389 105.16243692 46.96581359 108.04541016 51.15405273 C114.2356839 60.18017985 120.30952151 69.28242877 126.35791016 78.40405273 C123.40230951 83.81202226 120.06571476 88.75245404 116.42041016 93.71655273 C115.25495213 95.3167451 114.08959024 96.91700748 112.92431641 98.51733398 C112.33150879 99.32895996 111.73870117 100.14058594 111.12792969 100.97680664 C108.35747954 104.77595359 105.60833253 108.59039613 102.85791016 112.40405273 C101.7837803 113.89109612 100.70956113 115.37807499 99.63525391 116.86499023 C97.37543727 119.99375774 95.11796357 123.12420075 92.86181641 126.25561523 C92.28560547 127.05483398 91.70939453 127.85405273 91.11572266 128.67749023 C90.02526114 130.19006589 88.93537045 131.70305333 87.84619141 133.21655273 C86.84973884 134.59823181 85.84999152 135.97754178 84.84667969 137.35424805 C83.81621595 138.77303676 82.79706241 140.20008345 81.78710938 141.63354492 C81.27293457 142.34929687 80.75875977 143.06504883 80.22900391 143.80249023 C79.77323975 144.44621582 79.31747559 145.08994141 78.84790039 145.75317383 C76.2105151 148.67534314 73.76795634 149.33921039 69.92431641 149.94702148 C63.37856815 149.75827442 57.84950945 145.85072382 52.29541016 142.71655273 C51.04064278 142.02489348 49.78509621 141.33464608 48.52880859 140.64575195 C44.79164613 138.58899347 41.07217771 136.50182092 37.35791016 134.40405273 C36.35711426 133.83895996 35.35631836 133.27386719 34.32519531 132.69165039 C30.66845169 130.62118002 27.0140058 128.5468332 23.36547852 126.46191406 C14.43957223 121.38609736 5.36701875 116.60097891 -3.71414185 111.81115723 C-13.61358554 106.58637347 -23.42513504 101.23671841 -33.13769531 95.66943359 C-38.12687466 92.81004961 -43.14816432 90.08593603 -48.26708984 87.46655273 C-52.91973716 84.95891719 -56.06431533 83.08223612 -58.64208984 78.40405273 C-59.226295 72.15113157 -58.57046561 69.31439563 -54.64208984 64.21655273 C-54.20348633 63.63542725 -53.76488281 63.05430176 -53.31298828 62.45556641 C-52.32386859 61.15058065 -51.32557736 59.85251254 -50.31982422 58.56030273 C-48.49823346 56.2191663 -46.70152199 53.8602888 -44.90771484 51.49780273 C-42.88358466 48.83362055 -40.85736963 46.17120832 -38.82324219 43.51464844 C-34.23762884 37.52557254 -29.72593698 31.48798941 -25.26708984 25.40405273 C-14.1030772 10.18468929 -14.1030772 10.18468929 -8.64208984 3.40405273 C-8.01262955 2.59767616 -8.01262955 2.59767616 -7.37045288 1.77500916 C-4.90712937 -0.17892594 -3.1201115 0.01652703 0 0 Z " fill="#10B981" transform="translate(143.64208984375,21.595947265625)"/>
<path d="M0 0 C6.26778415 4.03981662 9.04904222 9.79426089 12.5 16.25 C13.73925608 18.51580402 14.97884875 20.78142397 16.21875 23.046875 C17.16041016 24.78227539 17.16041016 24.78227539 18.12109375 26.55273438 C21.03303319 31.89532596 24.01788867 37.19636631 27 42.5 C28.16184552 44.5740019 29.32330234 46.64822159 30.484375 48.72265625 C33.4736401 54.06074893 36.46434938 59.39803053 39.45629883 64.73461914 C40.64023175 66.84868147 41.82239807 68.96373423 43.00268555 71.07983398 C45.6568299 75.83670556 48.32688494 80.58076115 51.06640625 85.2890625 C51.53336914 86.10125244 52.00033203 86.91344238 52.48144531 87.75024414 C53.33312412 89.22974706 54.19485092 90.70353939 55.06933594 92.16967773 C57.75006534 96.85980366 59.33720357 100.52980876 59 106 C56.85023009 109.10746889 54.12897407 111.39088553 51.25 113.8125 C49.67171295 115.20928486 48.09489132 116.60772729 46.51953125 118.0078125 C45.35671631 119.02343262 45.35671631 119.02343262 44.17041016 120.05957031 C41.27918547 122.64443576 38.62025795 125.38711052 35.9375 128.1875 C28.61833035 135.59579196 22.33346645 139.06436635 11.86352539 139.41503906 C11.03380219 139.44570465 10.20407898 139.47637024 9.34921265 139.50796509 C1.68313019 139.77650367 -5.98522246 139.93852852 -13.65482235 140.06656265 C-18.80288557 140.15436633 -23.94447184 140.27806621 -29.08911133 140.48828125 C-62.22866737 141.80831956 -62.22866737 141.80831956 -69.9581604 137.25888062 C-74.31794627 132.99472542 -76.43243043 128.10067569 -78.21969604 122.34405518 C-79.2932461 119.11908042 -81.01220163 116.53063126 -82.92578125 113.73828125 C-84.05521688 111.93001804 -85.1841284 110.12142736 -86.3125 108.3125 C-87.57283468 106.29291758 -88.83325411 104.27338805 -90.09375 102.25390625 C-90.72925781 101.23570801 -91.36476563 100.21750977 -92.01953125 99.16845703 C-94.08194453 95.86890087 -96.14975678 92.57277747 -98.21875 89.27734375 C-98.90412842 88.18446045 -99.58950684 87.09157715 -100.2956543 85.96557617 C-101.61341525 83.86459209 -102.93253042 81.76445662 -104.25317383 79.6652832 C-104.84638428 78.7187085 -105.43959473 77.77213379 -106.05078125 76.796875 C-106.57325439 75.96510742 -107.09572754 75.13333984 -107.6340332 74.27636719 C-110.46314511 69.56168633 -111.584456 66.64974134 -111 61 C-107.91129724 54.70214369 -103.10241114 52.34949032 -97.0625 49.125 C-95.55187988 48.29524658 -95.55187988 48.29524658 -94.01074219 47.44873047 C-91.82634962 46.25020537 -89.63854109 45.05788978 -87.44775391 43.87109375 C-83.9492838 41.97247635 -80.46272526 40.05311494 -76.98046875 38.125 C-72.11391481 35.43158221 -67.24417546 32.74408959 -62.37109375 30.0625 C-55.17503262 26.1010386 -47.9921216 22.11616242 -40.8125 18.125 C-39.14525879 17.19880859 -39.14525879 17.19880859 -37.44433594 16.25390625 C-32.43147812 13.46815318 -27.42125067 10.67791869 -22.41796875 7.875 C-21.57838623 7.40562012 -20.73880371 6.93624023 -19.8737793 6.45263672 C-18.34406836 5.59708102 -16.815494 4.7394884 -15.28833008 3.87939453 C-9.95198157 0.8973747 -6.18366608 -0.6288474 0 0 Z " fill="#10B981" transform="translate(452,181)"/>
<path d="M0 0 C3.45101522 4.24740335 6.73279209 8.61105071 10 13 C9.67 13.66 9.34 14.32 9 15 C7.87370125 13.56351736 6.7490101 12.12577415 5.625 10.6875 C4.99851562 9.88699219 4.37203125 9.08648437 3.7265625 8.26171875 C0 3.3800905 0 3.3800905 0 0 Z " fill="#A7F3D0" transform="translate(4,314)"/>
<path d="M0 0 C0.33 0.66 0.66 1.32 1 2 C0.06981474 3.46300982 -0.86944027 4.92025579 -1.8125 6.375 C-2.33457031 7.18710937 -2.85664063 7.99921875 -3.39453125 8.8359375 C-5 11 -5 11 -8 13 C-6.40956621 7.91061189 -3.2553049 4.12543357 0 0 Z " fill="#A7F3D0" transform="translate(506,316)"/>
</svg>
