<?xml version="1.0" encoding="UTF-8"?>
<svg version="1.1" xmlns="http://www.w3.org/2000/svg" width="512" height="513">
<path d="M0 0 C0.87117462 -0.00807175 1.74234924 -0.01614349 2.6399231 -0.02445984 C4.4874677 -0.03828195 6.33503765 -0.04901247 8.18261719 -0.05688477 C10.04825468 -0.06833138 11.91386136 -0.08866509 13.77929688 -0.1184082 C41.25490423 -0.55596458 65.57093294 9.39630303 85.68676758 28.38720703 C103.46465949 45.78243837 116.88133732 69.00276881 118.30078125 94.22265625 C118.33720394 99.38010851 118.06171453 104.22146588 117.1328125 109.30078125 C115.86507205 116.25967308 115.06483599 122.91568766 117.2578125 129.73828125 C119.62069459 132.8887907 121.4155212 133.95152657 125.1328125 135.23828125 C131.12103994 135.78925617 134.66631982 134.39946442 139.7578125 131.61328125 C141.17781387 130.87520144 142.59839433 130.13823475 144.01953125 129.40234375 C145.39070428 128.68114029 146.76180265 127.95979486 148.1328125 127.23828125 C166.50858812 117.71648427 186.25569115 114.06683055 206.6171875 119.0625 C216.43675439 122.34659959 226.4108861 127.26416246 234.1328125 134.23828125 C234.94105469 134.96660156 235.74929688 135.69492188 236.58203125 136.4453125 C252.05183077 151.12890398 259.45992063 169.91563093 260.125 191.0078125 C260.36907666 211.02661895 252.28146264 229.30354326 238.7109375 243.8203125 C224.50118218 257.14734059 206.5593079 263.87344846 187.2578125 264.73828125 C177.25743031 265.21549991 168.36233298 268.07217762 161.1328125 275.23828125 C154.06334 284.04298791 150.45846448 293.26652061 151.3125 304.62890625 C153.20345799 315.66592638 161.64722516 323.02997181 169.3828125 330.42578125 C177.3319554 338.21606402 184.36411992 345.69515115 190.1328125 355.23828125 C190.49117188 355.82206543 190.84953125 356.40584961 191.21875 357.00732422 C204.62714551 379.17040349 208.35997791 406.03749358 202.67626953 431.26464844 C195.32797924 460.13545277 176.8358579 484.2290883 151.33984375 499.42578125 C128.32092278 512.43525668 99.28362064 516.66826827 73.49609375 510.2734375 C57.1771413 505.2507634 43.21635264 498.45947964 30.1328125 487.23828125 C29.51019531 486.7484375 28.88757813 486.25859375 28.24609375 485.75390625 C7.32140181 469.0141527 -3.73475512 438.82473474 -12.81225586 414.63745117 C-17.73129629 401.97932473 -25.23532658 390.84775754 -37.84375 385.05078125 C-49.90348781 380.20826105 -62.09899733 381.70236537 -73.9765625 386.4921875 C-80.25430153 389.41595682 -85.17546555 392.85846528 -90.125 397.69921875 C-91.8671875 399.23828125 -91.8671875 399.23828125 -93.8671875 399.23828125 C-94.11082031 399.810625 -94.35445312 400.38296875 -94.60546875 400.97265625 C-96.09236048 403.64261663 -97.84802658 405.37657132 -100.0546875 407.48828125 C-102.94643179 410.29740427 -105.63955134 413.11003474 -108.1796875 416.23828125 C-115.33349593 424.51555151 -124.62978731 430.53539182 -134.8671875 434.23828125 C-135.9396875 434.63015625 -137.0121875 435.02203125 -138.1171875 435.42578125 C-156.93480825 441.3681878 -177.55416702 439.56560169 -195.2421875 430.98828125 C-201.39732614 427.70787214 -206.69618939 423.9030278 -211.8671875 419.23828125 C-212.91132813 418.33335937 -212.91132813 418.33335937 -213.9765625 417.41015625 C-227.37855682 405.04707622 -235.00510855 386.15903284 -236.1875 368.16796875 C-236.99662903 348.06332757 -230.54058316 328.81124258 -217.19921875 313.62890625 C-201.65882045 297.69804568 -182.10264046 292.97585533 -160.92456055 289.16357422 C-148.87268819 286.90580309 -137.84377346 283.26858577 -130.5546875 272.86328125 C-124.86759873 263.68357818 -122.24220514 253.74105694 -124.55078125 243.08203125 C-127.88234365 231.24876398 -133.63850579 222.16638523 -144.33837891 215.75830078 C-146.97260776 214.36984991 -149.62644792 213.03974735 -152.3046875 211.73828125 C-166.8553336 204.63680734 -177.73025884 196.23537438 -183.1171875 180.61328125 C-185.63786594 168.90358415 -184.10748425 156.98286469 -178.359375 146.484375 C-171.21464921 135.60112991 -162.74430282 129.2965705 -149.98046875 126.63671875 C-138.78981679 125.20453995 -128.55331937 127.48686848 -118.04638672 131.15454102 C-112.30220383 133.09254266 -106.93687417 133.99783754 -100.8671875 133.23828125 C-96.73934586 131.17436043 -94.57581118 129.49033561 -92.8671875 125.23828125 C-92.59005221 123.11478872 -92.59005221 123.11478872 -92.6796875 120.92578125 C-92.68613281 120.20777344 -92.69257813 119.48976563 -92.69921875 118.75 C-92.84377156 116.08799581 -92.84377156 116.08799581 -93.36328125 112.875 C-96.80556099 88.03188029 -88.86476714 61.66931006 -73.94042969 41.76660156 C-57.84318325 21.10903584 -37.97354113 8.22188766 -12.8671875 1.23828125 C-12.21950409 1.05743484 -11.57182068 0.87658844 -10.9045105 0.69026184 C-7.32338109 -0.10421257 -3.65368226 0.03242913 0 0 Z " fill="#064e3b" transform="translate(244.8671875,-0.23828125)"/>
</svg>
