<?xml version="1.0" encoding="UTF-8"?>
<svg version="1.1" xmlns="http://www.w3.org/2000/svg" width="512" height="512">
<path d="M0 0 C1.72733607 -0.00735005 3.45466725 -0.01593899 5.18199158 -0.02566528 C9.84691956 -0.04777899 14.51167041 -0.05081749 19.17664361 -0.04891777 C23.07616995 -0.04879772 26.97565921 -0.0573748 30.87517518 -0.06569529 C40.07110574 -0.08488863 49.26694552 -0.08782627 58.46289062 -0.08105469 C67.9471048 -0.07439977 77.43093146 -0.09734575 86.91506702 -0.13436842 C95.06816833 -0.1650392 103.2211447 -0.17642881 111.37430257 -0.1725316 C116.23977466 -0.17046331 121.10494434 -0.17595749 125.97036171 -0.20042419 C130.53997915 -0.22264863 135.10896309 -0.22084972 139.67858315 -0.20049667 C141.35516856 -0.19708022 143.03179633 -0.20220307 144.70832443 -0.21648026 C146.9970317 -0.23462718 149.2835785 -0.22196172 151.57221985 -0.20153809 C152.85250722 -0.2022506 154.13279459 -0.2029631 155.45187855 -0.2036972 C159.66755846 0.58437455 161.14652547 2.11290757 163.7878418 5.41992188 C164.4519043 7.91992188 164.4519043 7.91992188 164.4128418 10.41992188 C164.42573242 11.24492187 164.43862305 12.06992187 164.4519043 12.91992188 C163.4832389 16.5666622 161.67338538 18.03722709 158.7878418 20.41992188 C155.60805225 21.04519176 155.60805225 21.04519176 151.95185852 21.04570007 C151.27677236 21.05264462 150.6016862 21.05958916 149.90614289 21.06674415 C147.65039254 21.08396861 145.39634739 21.06571978 143.140625 21.04760742 C141.52065712 21.05278717 139.90069504 21.06018789 138.28074646 21.06964111 C134.79444827 21.08520417 131.3086309 21.08503302 127.82232094 21.07263756 C122.30361384 21.05308625 116.78533343 21.06830138 111.26664734 21.08808899 C102.5309364 21.11524638 93.79539923 21.1187296 85.05965441 21.11231595 C69.4346825 21.10138905 53.80976413 21.12607051 38.18484563 21.16606361 C32.70569887 21.17909668 27.22671163 21.18041559 21.74755728 21.17193067 C18.32838689 21.16828942 14.90925671 21.17262506 11.49009132 21.17877197 C9.91236724 21.17985168 8.33463632 21.17752912 6.75692368 21.17142677 C-5.87951134 21.12492565 -18.10355356 21.16112732 -28.0012207 30.02148438 C-35.86053678 38.50025393 -36.35800114 48.92846915 -36.37037659 59.99339294 C-36.37531456 60.93859096 -36.38025254 61.88378898 -36.38534015 62.85762936 C-36.40065794 66.01437815 -36.40906024 69.1711067 -36.41748047 72.32788086 C-36.42706349 74.59489621 -36.43707382 76.86190979 -36.44747925 79.12892151 C-36.47448842 85.2770599 -36.49551958 91.42520593 -36.51548123 97.5733707 C-36.53736538 104.00091869 -36.56474219 110.42844323 -36.59153748 116.85597229 C-36.63576305 127.64217166 -36.67660381 138.42837772 -36.71484375 149.21459961 C-36.7542329 160.32235657 -36.7956784 171.43010276 -36.83984375 182.5378418 C-36.84396801 183.57606637 -36.84396801 183.57606637 -36.84817559 184.63526517 C-36.87211173 190.65637334 -36.89620324 196.67748088 -36.92031002 202.69858837 C-37.02383324 228.60567873 -37.11715665 254.51279562 -37.2121582 280.41992188 C4.3678418 280.41992188 45.9478418 280.41992188 88.7878418 280.41992188 C88.7878418 277.77992188 88.7878418 275.13992188 88.7878418 272.41992188 C92.28883569 243.18355184 107.84387387 216.17565654 130.9128418 197.95117188 C137.83746304 192.99531549 145.10486686 188.92767767 152.6706543 185.04882812 C155.83269639 183.46677088 155.83269639 183.46677088 158.7878418 181.41992188 C158.36374023 180.98164063 157.93963867 180.54335937 157.50268555 180.09179688 C144.91025165 166.47536286 140.48885977 151.92937954 140.3503418 133.73242188 C140.34010986 132.69964111 140.32987793 131.66686035 140.31933594 130.6027832 C140.50301022 114.45357506 146.00992683 99.3320844 157.3503418 87.66601562 C172.28763949 73.90167881 187.475866 70.57940297 207.12133789 71.24072266 C221.2952251 72.19326186 233.19679276 80.44135571 242.7878418 90.41992188 C256.64737565 107.08371939 258.14047138 125.51816242 256.7878418 146.41992188 C255.15255177 160.12758141 248.25468354 171.63655959 238.7878418 181.41992188 C241.58512443 183.28477696 244.43765537 184.77676566 247.43554688 186.28637695 C273.92190925 199.76617313 293.91210757 221.60696035 303.64477539 249.91210938 C306.87101814 260.1585109 308.7878418 269.59285785 308.7878418 280.41992188 C350.3678418 280.41992188 391.9478418 280.41992188 434.7878418 280.41992188 C434.66816783 239.78511982 434.66816783 239.78511982 434.5300293 199.15039062 C434.51003374 193.66780648 434.49013811 188.18522201 434.47045898 182.70263672 C434.46798755 182.01551916 434.46551611 181.3284016 434.46296978 180.6204623 C434.42329066 169.53905673 434.39053071 158.45764102 434.36034198 147.376206 C434.32918718 135.99690152 434.29041431 124.6176449 434.24505174 113.23838651 C434.21982378 106.84968796 434.19803148 100.46101962 434.18449783 94.0722847 C434.171644 88.05591299 434.14955359 82.03964509 434.1204586 76.02333069 C434.11140883 73.81833902 434.10569868 71.61333065 434.10362816 69.40832138 C434.10028725 66.39014947 434.0847604 63.37226862 434.0663147 60.35415649 C434.0692168 59.05547195 434.0692168 59.05547195 434.07217753 57.73055136 C433.9861449 48.26826049 432.6689376 39.09091641 426.7878418 31.41992188 C418.20076215 23.11802199 409.41641997 21.2949465 397.67770386 21.29534912 C396.99738102 21.29393897 396.31705818 21.29252882 395.6161195 21.29107594 C393.35546784 21.28745024 391.09487999 21.29074753 388.83422852 21.29394531 C387.20586091 21.29254921 385.57749368 21.29064902 383.9491272 21.2882843 C380.45209334 21.28380069 376.95507117 21.28193152 373.45803452 21.2818222 C367.92805778 21.28067896 362.39814735 21.26782114 356.86819458 21.2522583 C355.93382533 21.24968545 354.99945608 21.24711259 354.03677261 21.24446177 C352.12682973 21.23919582 350.2168869 21.23391034 348.30694413 21.22860575 C335.43907503 21.19351617 322.57129012 21.16694922 309.70336914 21.16943359 C301.01316668 21.17102115 292.32319191 21.15501639 283.63306248 21.11872697 C279.03694408 21.10025883 274.44120599 21.09093217 269.84505844 21.10320282 C265.52576994 21.1146243 261.20716378 21.10297218 256.88796616 21.07356834 C255.30331659 21.06691972 253.71860472 21.06880841 252.1339798 21.07986641 C249.96983942 21.09371595 247.80801033 21.07687508 245.64401245 21.0524292 C244.43357206 21.05096264 243.22313168 21.04949608 241.97601128 21.04798508 C237.87303908 20.23970751 236.3797106 18.62967682 233.7878418 15.41992188 C233.1237793 12.91992188 233.1237793 12.91992188 233.1628418 10.41992188 C233.14995117 9.59492188 233.13706055 8.76992188 233.1237793 7.91992188 C234.09575428 4.26072195 235.8811982 2.80130517 238.7878418 0.41992188 C242.11821842 -0.20649052 242.11821842 -0.20649052 245.99000549 -0.20826721 C247.06177132 -0.21890879 247.06177132 -0.21890879 248.15518898 -0.22976536 C250.54443973 -0.24733779 252.93206187 -0.2292458 255.32128906 -0.21118164 C257.03653198 -0.21632111 258.75176962 -0.22360261 260.46699524 -0.23286438 C265.12457968 -0.25139291 269.78159224 -0.2384268 274.43915296 -0.21877408 C279.3209278 -0.20237971 284.20266661 -0.21120244 289.0844574 -0.21629333 C297.2901216 -0.22081641 305.49555805 -0.20493861 313.70117188 -0.17700195 C323.16636965 -0.14502381 332.63115495 -0.1449361 342.09638172 -0.16221672 C351.21763144 -0.17813156 360.33873105 -0.17131162 369.45997429 -0.15427971 C373.33249889 -0.14743546 377.20490222 -0.14841482 381.077425 -0.15582466 C385.65025168 -0.16353641 390.22261463 -0.1512032 394.79536247 -0.12397575 C396.46575927 -0.11713893 398.13619978 -0.1169429 399.80659485 -0.12419128 C416.01600352 -0.18637532 429.29126061 3.42457491 441.5378418 14.60742188 C451.70309965 25.50575121 455.25492241 38.11001226 455.17552185 52.62716675 C455.18360016 54.41587887 455.18360016 54.41587887 455.19184166 56.24072659 C455.20361053 59.52433405 455.20207957 62.80761261 455.19467485 66.09122252 C455.1899234 69.64279856 455.20247043 73.19432142 455.21269226 76.74588013 C455.22984721 83.69354547 455.23072713 90.64112024 455.22547936 97.58880125 C455.22143015 103.23873616 455.22289011 108.88864439 455.22822762 114.53857803 C455.22897604 115.34416394 455.22972446 116.14974985 455.23049556 116.97974745 C455.23202711 118.61654734 455.23356546 120.25334723 455.23511053 121.8901471 C455.24882369 137.22363618 455.24340628 152.55707417 455.23192532 167.89056207 C455.22199482 181.90129972 455.23493252 195.91190527 455.25885951 209.92262255 C455.28327476 224.32840889 455.29285238 238.73413377 455.28620678 253.13994038 C455.28271986 261.21986745 455.28491166 269.29969297 455.30245781 277.37960434 C455.3172102 284.25800046 455.31777575 291.13622352 455.3003869 298.01461636 C455.29189925 301.5199921 455.28967193 305.0250591 455.30503845 308.5304184 C455.31826733 312.34013789 455.30668223 316.14902549 455.28904724 319.95870972 C455.29865225 321.05309132 455.30825725 322.14747293 455.31815332 323.27501762 C455.18748983 337.05295213 449.86484852 349.0241572 440.6003418 359.16992188 C429.01873435 369.97249743 416.03090569 372.86943952 400.70922852 372.85229492 C399.31859985 372.86132961 397.9279791 372.87166097 396.53736877 372.88317871 C392.79219109 372.9105748 389.04716522 372.92000933 385.30190039 372.92603278 C381.37675393 372.93546213 377.45171886 372.96166893 373.52664185 372.98603821 C366.107352 373.02958211 358.68808392 373.05820322 351.26870549 373.08136159 C342.81633286 373.10847847 334.36407296 373.15238578 325.91178107 373.19765031 C308.53719284 373.29032299 291.16258021 373.36208295 273.7878418 373.41992188 C274.03018555 374.33805664 274.2725293 375.25619141 274.5222168 376.20214844 C275.42066045 379.61537043 276.31470621 383.02968202 277.20581055 386.44482422 C277.59207835 387.92152086 277.98008376 389.39776414 278.36987305 390.87353516 C278.93046276 392.99719771 279.48474405 395.12242249 280.0378418 397.24804688 C280.21283203 397.90548889 280.38782227 398.56293091 280.56811523 399.24029541 C281.39996425 402.4621412 281.7878418 405.05523186 281.7878418 408.41992188 C283.04338867 408.37351562 284.29893555 408.32710938 285.5925293 408.27929688 C297.45470162 407.96888046 307.14253068 408.20460772 316.2565918 416.71679688 C323.66949978 424.96176596 325.37068086 433.69831124 325.1003418 444.50195312 C324.69369011 449.60034866 323.53706193 453.15094652 320.7878418 457.41992188 C320.35213867 458.12632812 319.91643555 458.83273437 319.4675293 459.56054688 C314.77020432 466.49102635 308.78894832 470.17061359 300.7878418 472.41992188 C297.95200995 472.60703508 295.21607242 472.69874399 292.38224792 472.68734741 C291.55042679 472.69187853 290.71860565 472.69640964 289.86157781 472.70107806 C287.08197803 472.71371031 284.30257448 472.71210245 281.52294922 472.71044922 C279.52683765 472.7164352 277.5307284 472.72324091 275.53462219 472.73080444 C270.1171782 472.74846457 264.69979741 472.75315984 259.28232741 472.75443602 C255.89617682 472.75585817 252.51004226 472.760129 249.12389565 472.76543045 C237.3063823 472.78393081 225.48891406 472.79210106 213.67138672 472.79052734 C202.66279716 472.78932596 191.65440366 472.81042769 180.64586371 472.84201467 C171.18834614 472.86818243 161.73089258 472.87889443 152.27333909 472.87761652 C146.6274856 472.87710704 140.98180637 472.88278304 135.335989 472.90397263 C130.02453163 472.92336327 124.71341462 472.92347365 119.40194511 472.90893936 C117.45613354 472.9068512 115.51030062 472.91155255 113.5645256 472.92366028 C95.45659516 473.02901139 95.45659516 473.02901139 87.7878418 468.41992188 C86.97831055 467.95070313 86.1687793 467.48148437 85.3347168 466.99804688 C78.69713627 462.09200909 74.98155235 456.38655493 72.7878418 448.41992188 C71.78932668 437.32014916 72.43836978 427.68543528 79.5378418 418.60742188 C84.6113037 413.17523034 91.49767279 408.7861204 99.04858398 408.26342773 C101.58974496 408.22367522 104.12189732 408.24517447 106.6628418 408.29492188 C107.54198242 408.30394531 108.42112305 408.31296875 109.3269043 408.32226562 C111.4806689 408.34567611 113.63429194 408.38154178 115.7878418 408.41992188 C115.92512695 406.87304688 115.92512695 406.87304688 116.06518555 405.29492188 C116.86856988 398.8678472 118.68486015 392.66630255 120.3503418 386.41992188 C120.67969727 385.16824219 121.00905273 383.9165625 121.34838867 382.62695312 C122.15696604 379.55670283 122.97023529 376.48777768 123.7878418 373.41992188 C122.71441969 373.41772203 122.71441969 373.41772203 121.61931229 373.41547775 C104.1651638 373.3783425 86.71122612 373.31923916 69.25723648 373.23601913 C60.81642612 373.19629725 52.37570806 373.1638701 43.93481445 373.14892578 C36.57328696 373.13587359 29.21196316 373.10881855 21.85055041 373.06530881 C17.95671631 373.04277369 14.06313269 373.02700638 10.1692276 373.02803802 C6.49516589 373.02878939 2.82165619 373.01065037 -0.8522625 372.97875404 C-2.82516017 372.9663324 -4.79815095 372.97328181 -6.77107239 372.98106384 C-21.17185711 372.81450238 -33.29214462 367.97564141 -43.9621582 358.23242188 C-54.12741605 347.33409254 -57.67923882 334.72983149 -57.59983826 320.212677 C-57.60522379 319.02020225 -57.61060933 317.82772751 -57.61615807 316.59911716 C-57.62792694 313.3155097 -57.62639598 310.03223114 -57.61899126 306.74862123 C-57.61423981 303.19704519 -57.62678684 299.64552233 -57.63700867 296.09396362 C-57.65416362 289.14629828 -57.65504354 282.19872351 -57.64979576 275.2510425 C-57.64574655 269.60110759 -57.64720652 263.95119936 -57.65254402 258.30126572 C-57.65329244 257.49567981 -57.65404087 256.6900939 -57.65481197 255.8600963 C-57.65634352 254.22329641 -57.65788187 252.58649652 -57.65942694 250.94969665 C-57.6731401 235.61620757 -57.66772269 220.28276958 -57.65624172 204.94928168 C-57.64631123 190.93854403 -57.65924892 176.92793848 -57.68317591 162.9172212 C-57.70759117 148.51143486 -57.71716879 134.10570998 -57.71052319 119.69990337 C-57.70703627 111.6199763 -57.70922806 103.54015078 -57.72677422 95.46023941 C-57.74152661 88.58184329 -57.74209216 81.70362023 -57.7247033 74.82522739 C-57.71621566 71.31985165 -57.71398833 67.81478465 -57.72935486 64.30942535 C-57.74258374 60.49970586 -57.73099864 56.69081826 -57.71336365 52.88113403 C-57.72296865 51.78675243 -57.73257366 50.69237082 -57.74246973 49.56482613 C-57.61180624 35.78689162 -52.28916492 23.81568655 -43.0246582 13.66992188 C-30.40034835 1.89478084 -16.43865278 -0.03319129 0 0 Z M170.8425293 104.56054688 C161.21109854 116.40841567 160.92316116 128.68935896 161.7878418 143.41992188 C163.19521316 152.65094823 167.89413212 160.21558317 174.7878418 166.41992188 C175.5303418 167.10054688 176.2728418 167.78117187 177.0378418 168.48242188 C185.62043966 174.52925219 194.42352706 176.33258168 204.7878418 175.41992188 C215.81298874 172.66720084 224.23758111 166.71706608 230.7878418 157.41992188 C237.03259283 145.28473193 238.19884212 129.87553834 234.2253418 116.73242188 C230.01174737 106.2501817 222.3724937 98.89298736 212.2878418 94.04492188 C197.4065607 88.57926616 181.35768675 92.98965072 170.8425293 104.56054688 Z M132.6706543 225.53320312 C119.05856357 240.01922186 109.7878418 260.41076207 109.7878418 280.41992188 C168.5278418 280.41992188 227.2678418 280.41992188 287.7878418 280.41992188 C286.04330734 259.48550843 279.17579239 240.97580628 264.7878418 225.41992188 C264.11366211 224.65421875 263.43948242 223.88851562 262.74487305 223.09960938 C250.38123986 209.78492748 232.69372734 200.35278244 214.7878418 197.41992188 C212.78791888 197.40236248 210.78774509 197.40025409 208.7878418 197.41992188 C208.77325928 198.2774707 208.75867676 199.13501953 208.74365234 200.01855469 C208.68248702 203.209526 208.60831418 206.39985774 208.52539062 209.59033203 C208.49219987 210.96944855 208.46414962 212.34869898 208.44140625 213.72802734 C208.40775538 215.71414493 208.35389451 217.69988747 208.29956055 219.68554688 C208.27337646 220.87954102 208.24719238 222.07353516 208.22021484 223.30371094 C207.7580064 226.6349524 207.12372828 228.04692951 204.7878418 230.41992188 C200.58073135 231.86168444 196.84419721 231.88207737 192.7878418 230.10742188 C190.7878418 228.41992188 190.7878418 228.41992188 189.7878418 226.41992188 C189.63314812 224.24317404 189.53782074 222.06208707 189.47143555 219.88085938 C189.42954102 218.57890625 189.38764648 217.27695313 189.34448242 215.93554688 C189.3046688 214.55534142 189.26495657 213.17513305 189.2253418 211.79492188 C189.18214773 210.40688773 189.13853315 209.0188666 189.09448242 207.63085938 C188.98812179 204.22731931 188.88609465 200.82370409 188.7878418 197.41992188 C166.99644675 197.07960956 147.43129891 210.79979217 132.6706543 225.53320312 Z M-37.2121582 300.41992188 C-38.27576885 323.48251682 -38.27576885 323.48251682 -28.64575195 343.17382812 C-20.38415291 350.82203699 -10.9354602 352.54232995 0.05560017 352.54855633 C0.75629107 352.55030937 1.45698197 352.5520624 2.17890593 352.55386856 C4.52043912 352.5585104 6.86190971 352.55606776 9.20344543 352.55363464 C10.90177816 352.55550353 12.60011045 352.55780454 14.29844207 352.56049997 C18.96077381 352.56661474 23.62308761 352.56648475 28.28542244 352.56530559 C33.31553367 352.5651015 38.34563914 352.57062109 43.37574768 352.57536316 C53.22879281 352.58366841 63.08183196 352.58641794 72.93488029 352.58697554 C80.94378243 352.58745074 88.95268258 352.58950569 96.96158409 352.59267616 C119.66863312 352.60148223 142.37567743 352.60609559 165.08272818 352.60534569 C166.91881387 352.60528575 166.91881387 352.60528575 168.79199219 352.60522461 C170.63031969 352.60516329 170.63031969 352.60516329 172.50578513 352.60510073 C192.3702284 352.60469423 212.23465271 352.61426496 232.09909049 352.62836298 C252.49608557 352.64272474 272.8930714 352.64963328 293.29007167 352.6487692 C304.7413152 352.64843717 316.19253887 352.65118688 327.64377785 352.66194725 C337.39298552 352.67104959 347.14216431 352.67322967 356.89137439 352.66643783 C361.86471151 352.66317135 366.83799321 352.66312062 371.81132507 352.67179108 C376.36672739 352.6796512 380.9220303 352.67822959 385.47743019 352.66950694 C387.12274509 352.6679709 388.76806739 352.66979207 390.41337357 352.67536702 C409.32674096 352.74463817 409.32674096 352.74463817 425.54174805 343.85351562 C436.97395961 331.50443496 434.7878418 316.78256051 434.7878418 300.41992188 C279.0278418 300.41992188 123.2678418 300.41992188 -37.2121582 300.41992188 Z M146.7878418 372.41992188 C146.30566558 373.85572192 145.82441407 375.29183254 145.34355164 376.72807312 C145.07545527 377.52777369 144.80735891 378.32747427 144.53113842 379.1514082 C143.01212046 383.78739457 141.82796851 388.51287916 140.6003418 393.23242188 C140.32770508 394.25529297 140.05506836 395.27816406 139.77416992 396.33203125 C139.51700195 397.31623047 139.25983398 398.30042969 138.99487305 399.31445312 C138.7626001 400.19979736 138.53032715 401.0851416 138.29101562 401.99731445 C137.65226897 404.66027298 137.65226897 404.66027298 137.7878418 408.41992188 C178.0478418 408.41992188 218.3078418 408.41992188 259.7878418 408.41992188 C259.13763637 403.21827849 258.48926302 398.74709655 257.1940918 393.76757812 C256.88600586 392.57970703 256.57791992 391.39183594 256.26049805 390.16796875 C255.93952148 388.95173828 255.61854492 387.73550781 255.2878418 386.48242188 C254.96686523 385.23912109 254.64588867 383.99582031 254.31518555 382.71484375 C253.32875015 377.17539903 253.32875015 377.17539903 250.7878418 372.41992188 C249.43443589 372.32461025 248.07610195 372.29803468 246.71934509 372.29966736 C245.84289841 372.29829269 244.96645172 372.29691803 244.06344604 372.29550171 C243.09456451 372.29909698 242.12568298 372.30269226 241.12744141 372.30639648 C240.11292404 372.30625046 239.09840668 372.30610443 238.05314636 372.30595398 C234.68213806 372.30665358 231.31118425 372.31444819 227.94018555 372.32226562 C225.60990936 372.32412964 223.27963279 372.32555362 220.94935608 372.32655334 C214.80246914 372.33037986 208.65560567 372.34021127 202.50872803 372.35125732 C196.24174314 372.36146859 189.97475447 372.36605035 183.70776367 372.37109375 C171.40111271 372.38183342 159.0944792 372.39891144 146.7878418 372.41992188 Z M95.3503418 433.60742188 C93.31585012 437.26950689 92.87827096 440.37826364 93.7878418 444.41992188 C96.849322 449.28227279 99.31467058 451.01011357 104.7878418 452.41992188 C107.42867541 452.60379727 109.96140784 452.6946756 112.59947205 452.68061829 C113.75131519 452.68635661 113.75131519 452.68635661 114.9264279 452.69221085 C117.48959656 452.70249784 120.05253942 452.69855693 122.61572266 452.69458008 C124.45744534 452.69892891 126.29916621 452.70411264 128.1408844 452.71006775 C133.13672796 452.72345001 138.13249584 452.72403731 143.12835383 452.72150445 C147.30086741 452.72043429 151.47336569 452.72531923 155.64587599 452.73010987 C165.49000319 452.74120223 175.33409223 452.74164388 185.17822266 452.7355957 C195.33022403 452.72955426 205.48208687 452.74187192 215.63406461 452.76316577 C224.35440165 452.78078349 233.0746946 452.78678289 241.79504877 452.78352803 C247.00150066 452.78171542 252.20785371 452.78434925 257.41428947 452.79824257 C262.31039172 452.81081914 267.206278 452.80887836 272.10237694 452.79583168 C273.89744388 452.79346605 275.69252601 452.79620012 277.48757553 452.8044548 C279.94170968 452.8149251 282.39511952 452.80681969 284.84922791 452.79414368 C285.55624358 452.80151796 286.26325925 452.80889225 286.99169964 452.81648999 C293.0530685 452.75081491 297.66829813 451.32207645 302.2253418 447.23242188 C304.25983347 443.57033686 304.69741263 440.46158011 303.7878418 436.41992188 C300.72636159 431.55757096 298.26101301 429.82973018 292.7878418 428.41992188 C290.14700818 428.23604648 287.61427576 428.14516815 284.97621155 428.15922546 C284.20831612 428.15539992 283.44042068 428.15157437 282.64925569 428.1476329 C280.08608703 428.13734591 277.52314417 428.14128682 274.95996094 428.14526367 C273.11823826 428.14091484 271.27651738 428.13573111 269.43479919 428.129776 C264.43895563 428.11639374 259.44318775 428.11580644 254.44732976 428.1183393 C250.27481619 428.11940946 246.1023179 428.11452452 241.9298076 428.10973388 C232.0856804 428.09864152 222.24159136 428.09819987 212.39746094 428.10424805 C202.24545956 428.11028949 192.09359672 428.09797183 181.94161898 428.07667798 C173.22128194 428.05906026 164.500989 428.05306086 155.78063482 428.05631572 C150.57418293 428.05812833 145.36782988 428.0554945 140.16139412 428.04160118 C135.26529187 428.02902461 130.36940559 428.03096539 125.47330666 428.04401207 C123.67823972 428.0463777 121.88315758 428.04364363 120.08810806 428.03538895 C117.63397391 428.02491865 115.18056407 428.03302406 112.72645569 428.04570007 C112.01944002 428.03832579 111.31242435 428.0309515 110.58398396 428.02335376 C104.5226151 428.08902884 99.90738546 429.5177673 95.3503418 433.60742188 Z " fill="#059669" transform="translate(57.212158203125,19.580078125)"/>
<path d="M0 0 C3.125 1.875 3.125 1.875 5 5 C5.98876625 10.02622846 5.7769173 13.70513784 3.125 18.125 C-1.29486216 20.7769173 -4.97377154 20.98876625 -10 20 C-13.125 18.125 -13.125 18.125 -15 15 C-15.98876625 9.97377154 -15.7769173 6.29486216 -13.125 1.875 C-8.70513784 -0.7769173 -5.02622846 -0.98876625 0 0 Z " fill="#059669" transform="translate(261,20)"/>
</svg>
